<svg xmlns="http://www.w3.org/2000/svg" xmlns:xlink="http://www.w3.org/1999/xlink" fill="none" version="1.1" width="110.009521484375" height="114.86164855957031" viewBox="0 0 110.009521484375 114.86164855957031"><g style="opacity:0.7999999523162842;mix-blend-mode:passthrough" transform="matrix(0.9816271662712097,-0.19064942002296448,0.19096869230270386,0.9816271662712097,-4.907811979274811,3.6701206607767745)"><g style="mix-blend-mode:passthrough"><ellipse cx="67.48379421234131" cy="64.4306583404541" rx="12.986533164978027" ry="13.105453491210938" fill-opacity="0" stroke-opacity="1" stroke="#E5CFE1" fill="none" stroke-width="0.9411764740943909"/></g><g style="mix-blend-mode:passthrough"><g style="opacity:0.44999998807907104;mix-blend-mode:passthrough"><ellipse cx="67.44729995727539" cy="64.43065452575684" rx="9.83828353881836" ry="9.928373336791992" fill="#D9BAD8" fill-opacity="1"/></g><g style="mix-blend-mode:passthrough"><path d="M67.4473009109497,74.35898118896485C72.88083091094971,74.35898118896485,77.2855809109497,69.91398118896484,77.2855809109497,64.43065118896484C77.2855809109497,58.94736118896484,72.88083091094971,54.502281188964844,67.4473009109497,54.502281188964844L67.4473009109497,74.35898118896485Z" fill-rule="evenodd" fill="#D9BAD8" fill-opacity="1"/></g></g><g style="mix-blend-mode:passthrough"><path d="M56.58914445419312,56.474139968872066L22.988634454193114,33.219090968872074L23.524254454193116,32.44518896887207L57.12474445419311,55.70023996887207L56.58914445419312,56.474139968872066Z" fill="#E5CFE1" fill-opacity="1"/></g><g style="mix-blend-mode:passthrough"><ellipse cx="20.407612085342407" cy="31.120962381362915" rx="3.7877390384674072" ry="3.8224241733551025" fill-opacity="0" stroke-opacity="1" stroke="#E5CFE1" fill="none" stroke-width="0.9411764740943909"/></g><g style="mix-blend-mode:passthrough"><ellipse cx="19.866506338119507" cy="98.28641891479492" rx="3.246633291244507" ry="3.2763633728027344" fill="#F7ADEB" fill-opacity="1"/></g><g style="mix-blend-mode:passthrough"><path d="M57.09187207794189,73.2792880546875L22.766354077941894,97.0587560546875L22.230390077941895,96.2850560546875L56.55587207794189,72.5056240546875L57.09187207794189,73.2792880546875Z" fill="#E5CFE1" fill-opacity="1"/></g></g></svg>