<svg xmlns="http://www.w3.org/2000/svg" xmlns:xlink="http://www.w3.org/1999/xlink" fill="none" version="1.1" width="480.478515625" height="454.2196044921875" viewBox="0 0 480.478515625 454.2196044921875"><g style="opacity:0.32999998331069946;mix-blend-mode:passthrough" transform="matrix(0.9848077297210693,-0.1735566258430481,0.17373980581760406,0.9848077297210693,-19.879335171823186,11.564486442599446)"><g style="mix-blend-mode:passthrough" transform="matrix(0.08715580403804779,-0.9961947202682495,0.9961947202682495,0.08715580403804779,-64.9970598450459,435.57197962438954)"><g style="opacity:0.44999998807907104;mix-blend-mode:passthrough"><ellipse cx="218.71078395843506" cy="266.7961025238037" rx="13.537596702575684" ry="13.544195175170898" fill="#D6BAD9" fill-opacity="1"/></g><g style="mix-blend-mode:passthrough" transform="matrix(-1,0,0,-1,464.4967613220215,560.6805953979492)"><path d="M259.32358066101074,293.8844976989746C259.32358066101074,286.4042376989746,253.26258066101073,280.3402976989746,245.78598066101074,280.3402976989746C238.30937066101075,280.3402976989746,232.24838066101074,286.4042376989746,232.24838066101074,293.8844976989746L259.32358066101074,293.8844976989746Z" fill-rule="evenodd" fill="#D6BAD9" fill-opacity="1"/></g></g><g style="mix-blend-mode:passthrough"><ellipse cx="290.50193452835083" cy="220.8648338317871" rx="6.772121906280518" ry="6.768772125244141" fill="#E5CFE1" fill-opacity="1"/></g><g style="mix-blend-mode:passthrough"><path d="M236.7891159423828,139.85367932885742L223.3564909423828,222.4815683288574L222.20494094238282,222.29436832885742L235.6375159423828,139.66647482885742L236.7891159423828,139.85367932885742Z" fill="#D6BAD9" fill-opacity="1"/></g><g style="mix-blend-mode:passthrough"><path d="M203.8858896331787,233.14819279174804L76.22248363317871,163.16491079174804L76.78329563317871,162.14187479174805L204.44688963317873,232.12509279174805L203.8858896331787,233.14819279174804Z" fill="#D6BAD9" fill-opacity="1"/></g><g style="mix-blend-mode:passthrough"><path d="M223.8095263977051,258.7705108886719L260.2375263977051,389.3169108886719L99.60750639770508,290.3989108886719L202.6655263977051,247.40155388867188L203.11452639770508,248.47826788867187L101.10713639770508,291.03741088867184L100.88252639770508,290.49911088867185L101.18840439770509,290.0024108886719L259.5815263977051,387.5429108886719L259.2755263977051,388.0399108886719L258.7135263977051,388.19591088867185L222.68652639770508,259.0841108886719L223.8095263977051,258.7705108886719Z" fill="#E5CFE1" fill-opacity="1"/></g><g style="opacity:0.6000000238418579;mix-blend-mode:passthrough"><path d="M283.21754526367187,223.45498215332032L241.90759726367187,235.63338215332033L241.57769326367188,234.5143821533203L282.88764526367186,222.33593415332032L283.21754526367187,223.45498215332032Z" fill="#D9B4DF" fill-opacity="1"/></g><g style="mix-blend-mode:passthrough"><path d="M333.79620080566406,161.6425318408203L295.03711280566404,214.9849368408203L294.0932888056641,214.29913684082032L332.85240080566405,160.9567418408203L333.79620080566406,161.6425318408203Z" fill="#D6BAD9" fill-opacity="1"/></g><g style="mix-blend-mode:passthrough"><path d="M365.5003319580078,273.2478419189453L296.2620739580078,224.72693191894533L296.9316119580078,223.7715089189453L366.1699319580078,272.29234191894534L365.5003319580078,273.2478419189453Z" fill="#E5CFE1" fill-opacity="1"/></g><g style="mix-blend-mode:passthrough"><ellipse cx="238.3566083908081" cy="129.4864101409912" rx="10.158183097839355" ry="10.153158187866211" fill="#DCC1E0" fill-opacity="1"/></g><g style="mix-blend-mode:passthrough"><ellipse cx="371.09018993377686" cy="277.0456295013428" rx="10.158183097839355" ry="10.153158187866211" fill="#E0D3E6" fill-opacity="1"/></g><g style="mix-blend-mode:passthrough"><ellipse cx="101.5597414970398" cy="291.9369421005249" rx="6.094909191131592" ry="6.09189510345459" fill="#DCC1E0" fill-opacity="1"/></g><g style="mix-blend-mode:passthrough"><ellipse cx="66.34470653533936" cy="157.91525268554688" rx="10.158183097839355" ry="10.153158187866211" fill="#EBD1ED" fill-opacity="0.6000000238418579"/></g><g style="mix-blend-mode:passthrough"><ellipse cx="339.2612271308899" cy="154.5308666229248" rx="6.772121906280518" ry="6.768772125244141" fill="#EBD1ED" fill-opacity="0.6000000238418579"/></g><g style="mix-blend-mode:passthrough"><ellipse cx="260.02738904953003" cy="389.4072332382202" rx="6.094909191131592" ry="6.09189510345459" fill="#D9B4DF" fill-opacity="1"/></g></g></svg>