<svg xmlns="http://www.w3.org/2000/svg" xmlns:xlink="http://www.w3.org/1999/xlink" fill="none" version="1.1" width="311.73150634765625" height="274.1510925292969" viewBox="0 0 311.73150634765625 274.1510925292969"><g style="mix-blend-mode:passthrough" transform="matrix(0.9961947202682495,-0.08715573698282242,0.08715573698282242,0.9961947202682495,-3.925992033649436,1.8914030953483234)"><g style="opacity:0.25;mix-blend-mode:passthrough"><ellipse cx="53.50128173828125" cy="79.71847152709961" rx="33.80413818359375" ry="33.81277084350586" fill="#E2CEE5" fill-opacity="1"/></g><g style="opacity:0.30000001192092896;mix-blend-mode:passthrough"><ellipse cx="53.50128650665283" cy="79.71851062774658" rx="25.04010581970215" ry="25.04649543762207" fill="#E5CFDE" fill-opacity="1"/></g><g style="opacity:0.4000000059604645;mix-blend-mode:passthrough"><ellipse cx="227.53001403808594" cy="206.20327758789062" rx="27.544113159179688" ry="27.5511474609375" fill-opacity="0" stroke-opacity="0.4000000059604645" stroke="#CFDAE6" fill="none" stroke-width="1"/></g><g style="opacity:0.5;mix-blend-mode:passthrough"><ellipse cx="53.5012845993042" cy="79.7185697555542" rx="12.520052909851074" ry="12.523247718811035" fill="#D9BAD4" fill-opacity="1"/></g><g style="mix-blend-mode:passthrough"><path d="M53.501331689453124,92.24182203674317L53.501331689453124,67.19532203674316C46.58665168945313,67.19532203674316,40.981231689453125,72.80217203674316,40.981231689453125,79.71852203674317C40.981231689453125,86.63492203674316,46.58665168945313,92.24182203674317,53.501331689453124,92.24182203674317Z" fill-rule="evenodd" fill="#D6BAD9" fill-opacity="1"/></g><g style="opacity:0.44999998807907104;mix-blend-mode:passthrough"><g style="opacity:0.44999998807907104;mix-blend-mode:passthrough"><ellipse cx="227.5300211906433" cy="206.20333003997803" rx="7.512031078338623" ry="7.513983726501465" fill="#670A76" fill-opacity="1"/></g><g style="mix-blend-mode:passthrough" transform="matrix(-1,0,0,1,455.0600423812866,0)"><path d="M227.53002119064345,213.71734631347655C231.6788011906433,213.71734631347655,235.04205119064332,210.35314631347657,235.04205119064332,206.20332631347657C235.04205119064332,202.05347631347655,231.6788011906433,198.68934631347656,227.53002119064345,198.68934631347656L227.53002119064345,213.71734631347655Z" fill-rule="evenodd" fill="#680A77" fill-opacity="1"/></g></g><g style="mix-blend-mode:passthrough"><ellipse cx="273.2282122373581" cy="206.8294541835785" rx="1.8780077695846558" ry="1.8784959316253662" fill="#CFDAE6" fill-opacity="1"/></g><g style="opacity:0.3499999940395355;mix-blend-mode:passthrough"><ellipse cx="228.15600764751434" cy="249.4085099697113" rx="1.8780077695846558" ry="1.8784959316253662" fill="#E0B4B7" fill-opacity="1"/></g><g style="opacity:0.3499999940395355;mix-blend-mode:passthrough"><ellipse cx="228.78201031684875" cy="164.8765790462494" rx="2.5040104389190674" ry="2.5046613216400146" fill="#E0B4B7" fill-opacity="1"/></g><g style="opacity:0.800000011920929;mix-blend-mode:passthrough"><path d="M218.10171276855468,200.49248626708984L53.069898668554686,81.08306626708985L53.65609976855469,80.27289726708985L218.6877127685547,199.68248626708984L218.10171276855468,200.49248626708984Z" fill="#CFDAE6" fill-opacity="1"/></g></g></svg>