<svg xmlns="http://www.w3.org/2000/svg" xmlns:xlink="http://www.w3.org/1999/xlink" fill="none" version="1.1" width="200.74581909179688" height="161.8697509765625" viewBox="0 0 200.74581909179688 161.8697509765625"><g style="opacity:0.800000011920929;mix-blend-mode:passthrough" transform="matrix(0.9925461411476135,-0.1218559667468071,0.12188272923231125,0.9925461411476135,-4.804425054862804,2.0746454977331723)"><g style="opacity:0.25;mix-blend-mode:passthrough"><ellipse cx="87.47245979309082" cy="77.02435493469238" rx="25.288854598999023" ry="25.25628089904785" fill="#E5CFE1" fill-opacity="1"/></g><g style="opacity:0.5999999642372131;mix-blend-mode:passthrough"><ellipse cx="20.616811275482178" cy="55.44009780883789" rx="6.057088375091553" ry="6.049286842346191" fill="#E5CFE1" fill-opacity="1"/></g><g style="opacity:0.44999998807907104;mix-blend-mode:passthrough"><path d="M57.93878114624023,141.8691428466797C64.62918114624023,141.8691428466797,70.05298114624023,136.45244284667967,70.05298114624023,129.7706428466797C70.05298114624023,123.08876284667969,64.62918114624023,117.67204284667969,57.93878114624023,117.67204284667969C51.24828114624023,117.67204284667969,45.824581146240234,123.08876284667969,45.824581146240234,129.7706428466797C45.824581146240234,136.45244284667967,51.24828114624023,141.8691428466797,57.93878114624023,141.8691428466797Z" fill-rule="evenodd" fill="#E5CFE1" fill-opacity="1"/></g><g style="mix-blend-mode:passthrough"><path d="M152.2851431640625,59.403755522583005L88.5398211640625,78.671482522583Q88.4578401640625,78.696182522583,88.3725991640625,78.70458252258301Q88.2873581640625,78.71288252258302,88.2021351640625,78.704382522583Q88.1169111640625,78.695882522583,88.0349787640625,78.670982522583Q87.9530466640625,78.64598252258301,87.8775550640625,78.605582522583Q87.8020631640625,78.56508252258301,87.7359131640625,78.51068252258301Q87.6697631640625,78.45628252258301,87.6154961640625,78.39008252258301Q87.5612301640625,78.323782522583,87.5209321640625,78.24818252258301Q87.4806351640625,78.172682522583,87.4558551640625,78.09068252258301Q87.4310751640625,78.008682522583,87.4227661640625,77.92348252258301Q87.4144561640625,77.83818252258301,87.4229351640625,77.75298252258301Q87.4314151640625,77.66778252258301,87.4563571640625,77.585782522583Q87.4813001640625,77.50388252258301,87.5217481640625,77.42838252258301Q87.5621961640625,77.352882522583,87.6165941640625,77.28678252258301Q87.6709921640625,77.22058252258302,87.7372511640625,77.166382522583Q87.8035091640625,77.11208252258301,87.8790811640625,77.071782522583Q87.9546531640625,77.031482522583,88.0366347640625,77.006682522583L151.7819431640625,57.73900952258301Q151.8639431640625,57.71422952258301,151.9491431640625,57.70592052258301Q152.0344431640625,57.697610522583005,152.1196431640625,57.70608952258301Q152.20484316406248,57.714569522583005,152.2867431640625,57.739512522583006Q152.3687431640625,57.764455522583006,152.4442431640625,57.804902522583006Q152.5197431640625,57.845350522583004,152.5858431640625,57.89974852258301Q152.6520431640625,57.95414752258301,152.7062431640625,58.020405522583005Q152.76054316406248,58.08666352258301,152.80084316406248,58.16223552258301Q152.8411431640625,58.237807522583005,152.86594316406251,58.31978952258301Q152.89074316406248,58.40177052258301,152.8990431640625,58.48701132258301Q152.9073431640625,58.57225194258301,152.8988431640625,58.65747582258301Q152.8903431640625,58.74269952258301,152.8654431640625,58.824631522583005Q152.8404431640625,58.906563522583006,152.80004316406252,58.98205552258301Q152.7595431640625,59.05754752258301,152.70514316406252,59.12369752258301Q152.6507431640625,59.18984752258301,152.5845431640625,59.24411352258301Q152.51824316406248,59.29838052258301,152.4427431640625,59.338677522583005Q152.3671431640625,59.378975522583005,152.2851431640625,59.403755522583005Z" fill="#E5CFE1" fill-opacity="1"/></g><g style="opacity:0.699999988079071;mix-blend-mode:passthrough"><path d="M62.47650168838501,70.4311739227295L61.81030168838501,70.2003739227295L62.04030168838501,69.5364739227295L62.70650168838501,69.76727392272949M59.81160168838501,69.50787392272949L58.47920168838501,69.0461739227295L58.70920168838501,68.3822739227295L60.04170168838501,68.84387392272949M56.48060168838501,68.35367392272948L55.14810168838501,67.89197392272949L55.37820168838501,67.2280739227295L56.71060168838501,67.68977392272949M53.14950168838501,67.1994739227295L51.81710168838501,66.73787392272949L52.04710168838501,66.07387392272949L53.379501688385005,66.5355739227295M49.81840168838501,66.04527392272949L48.48600168838501,65.5836439227295L48.71610168838501,64.9196939227295L50.04850168838501,65.38136392272949M46.487401688385006,64.8911339227295L45.15500168838501,64.4294639227295L45.38500168838501,63.76551392272949L46.71740168838501,64.2271839227295M43.156301688385014,63.73695392272949L41.82390168838501,63.27527392272949L42.05390168838501,62.61132392272949L43.38640168838501,63.072993922729495M39.82530168838501,62.58276392272949L38.492801688385015,62.12109392272949L38.72290168838501,61.45713392272949L40.055301688385015,61.91881392272949M36.49420168838501,61.428583922729494L35.16180168838501,60.96690392272949L35.39180168838501,60.30295392272949L36.72430168838501,60.76462392272949M33.16310168838501,60.274393922729494L31.83072168838501,59.81272392272949L32.06077168838501,59.14876392272949L33.393201688385005,59.610443922729495M29.83208168838501,59.12021392272949L28.499651688385008,58.65853392272949L28.72971168838501,57.99458392272949L30.06213168838501,58.456253922729495M26.50102168838501,57.96602392272949L25.16860168838501,57.50435392272949L25.39865168838501,56.84039892272949L26.73108168838501,57.30207392272949M23.16996368838501,56.81183892272949L22.50375738838501,56.581003922729494L22.73381168838501,55.917051022729495L23.40001768838501,56.14788692272949" fill="#D9B4DF" fill-opacity="1"/></g><g style="mix-blend-mode:passthrough"><path d="M88.18612374267579,78.41949188354492L87.85022374267578,79.01298888354492L87.23862374267578,78.66687388354492L87.57462374267578,78.07337688354492M86.84242374267578,80.79347688354493L86.17062374267579,81.98047688354492L85.55912374267578,81.63435688354492L86.23092374267578,80.44736688354492M85.16292374267579,83.76096688354492L84.49112374267578,84.94795688354492L83.87952374267579,84.60184688354492L84.55142374267578,83.41484688354493M83.48332374267578,86.72844688354492L82.81152374267577,87.91544688354492L82.20002374267578,87.56932688354492L82.87182374267579,86.38233688354492M81.80382374267577,89.69588688354492L81.13192374267578,90.88288688354493L80.52042374267577,90.53678688354492L81.19222374267578,89.34978688354492M80.12422374267578,92.66338688354492L79.45242374267578,93.85038688354493L78.84092374267578,93.50428688354492L79.51272374267577,92.31728688354492M78.44462374267579,95.63088688354492L77.77282374267578,96.81788688354493L77.16132374267578,96.47178688354492L77.83312374267578,95.28478688354492M76.76512374267578,98.59838688354492L76.09332374267578,99.78538688354493L75.48172374267578,99.43928688354492L76.15362374267578,98.25228688354493M75.08552374267578,101.56588688354492L74.41372374267578,102.75288688354492L73.80220374267579,102.40678688354492L74.47402374267578,101.21978688354493M73.40599374267578,104.53338688354492L72.73416374267578,105.72038688354492L72.12264374267578,105.37428688354493L72.79446374267579,104.18728688354491M71.72643374267578,107.50088688354492L71.05460374267578,108.68788688354492L70.44308374267578,108.34168688354492L71.11490374267578,107.15468688354493M70.04687374267579,110.46828688354492L69.37504374267579,111.65528688354493L68.76352374267579,111.30918688354492L69.43534374267578,110.12218688354493M68.36731374267578,113.43578688354492L67.69549374267578,114.62278688354492L67.08396374267578,114.27668688354493L67.75578374267579,113.08968688354491M66.68775374267578,116.40328688354492L66.01593374267578,117.59028688354492L65.40440374267578,117.24418688354493L66.07623374267578,116.05718688354492M65.00819674267578,119.37078688354492L64.67228574267578,119.96428688354493L64.06076174267578,119.61818688354492L64.39667234267579,119.02468688354492" fill="#BACAD9" fill-opacity="1"/></g><g style="mix-blend-mode:passthrough" transform="matrix(0.866217315196991,0.4998149573802948,-0.5001850724220276,0.8658332228660583,41.11672904534589,-72.87965882993876)"><g style="opacity:0.44999998807907104;mix-blend-mode:passthrough"><ellipse cx="167.23705959320068" cy="50.90162372589111" rx="10.603560447692871" ry="10.592785835266113" fill="#E5CFE1" fill-opacity="1"/></g><g style="mix-blend-mode:passthrough" transform="matrix(-1,0,0,-1,355.6812400817871,122.98881912231445)"><path d="M199.04772004089355,72.08720956115722C199.04772004089355,66.23695956115722,194.30032004089355,61.49440956115723,188.44422004089355,61.49440956115723C182.58800004089355,61.49440956115723,177.84062004089355,66.23695956115722,177.84062004089355,72.08720956115722L199.04772004089355,72.08720956115722Z" fill-rule="evenodd" fill="#E5CFE1" fill-opacity="1"/></g></g></g></svg>