<?xml version="1.0" encoding="UTF-8"?>
<svg width="256px" height="256px" viewBox="0 0 256 256" version="1.1" xmlns="http://www.w3.org/2000/svg" xmlns:xlink="http://www.w3.org/1999/xlink">
    <title>编组 33</title>
    <g id="页面-1" stroke="none" stroke-width="1" fill="none" fill-rule="evenodd">
        <g id="编组-33">
            <rect id="矩形" fill="#D8D8D8" opacity="0" x="0" y="0" width="256" height="256"></rect>
            <path d="M127.999631,16 C137.077657,16 144.847448,21.8195401 147.695339,29.9918268 L147.808089,30.3244161 L147.885261,30.5653684 L202.648401,62.1873856 L202.724006,62.1707473 C203.857821,61.9246529 205.009926,61.7742082 206.169167,61.7206323 L206.749329,61.7019224 L207.155985,61.6984497 L207.48351,61.7016753 L207.90425,61.7127869 C215.007539,61.9760421 221.567571,65.8383573 225.200289,72.13146 C229.789415,80.0813862 228.56437,89.8294392 222.787634,96.3813392 L222.540841,96.656264 L222.385314,96.8231551 L222.385314,159.721566 L222.540841,159.889191 C228.372055,166.269657 229.781512,175.835816 225.553288,183.77755 L225.365896,184.121804 L225.200289,184.413995 C221.575538,190.693297 215.036297,194.552461 207.950975,194.830884 L207.570895,194.842367 L207.155985,194.847005 C205.850721,194.848593 204.550467,194.7276 203.27102,194.485751 L202.724006,194.374707 L202.648401,194.357335 L147.884529,225.980086 L147.830508,226.151663 C145.212588,234.188146 137.863898,240.055108 129.109926,240.516229 L128.739213,240.532487 L128.412374,240.541414 L127.999631,240.545455 C119.115757,240.545455 111.462786,234.965982 108.478271,227.034391 L108.356627,226.702555 L108.254659,226.410098 L52.9061741,194.449795 L52.7512014,194.481371 C51.9576877,194.632289 51.1561591,194.736704 50.3503894,194.794219 L49.7453258,194.828555 L49.3123597,194.842291 L48.8877636,194.847011 C41.4928811,194.853811 34.5704516,190.947479 30.7989727,184.413995 C26.3512849,176.709087 27.3536931,167.270628 32.7453741,160.712153 L33.0110197,160.394468 L33.0110197,96.1502525 L32.784105,95.8802729 C27.5051285,89.4972255 26.3988845,80.3642056 30.4495231,72.761295 L30.6401409,72.4114935 L30.7989727,72.13146 C34.5054261,65.7106223 41.2551133,61.8271252 48.5057047,61.7015745 L48.8877636,61.6984431 L49.3123597,61.7031633 C50.2751121,61.7236876 51.2341457,61.8109234 52.1830938,61.9641988 L52.7512014,62.0640833 L52.9061741,62.0949257 L108.254659,30.1346227 L108.356627,29.8428991 C111.175308,21.9460257 118.59363,16.2994222 127.300686,16.0115397 L127.674624,16.0024918 L127.999631,16 Z" id="路径" fill="#660874" fill-rule="nonzero"></path>
            <path d="M128.456621,25.127864 C134.802148,25.127864 140.004881,30.0217007 140.497846,36.241705 L140.517746,36.5388838 L202.249354,72.1868502 L202.599431,72.0164209 C204.114237,71.3087167 205.714254,70.9422143 207.305266,70.8916641 L207.702777,70.8855942 L207.943185,70.8882816 L208.249217,70.8986326 C212.223489,71.0834907 216.023506,73.226444 218.160469,76.9284922 C221.360424,82.4720561 219.668842,89.497738 214.425185,93.0056331 L214.160048,93.1780732 L214.160048,164.280168 L214.409039,164.441825 C219.665367,167.94609 221.363706,174.980499 218.160469,180.529749 C216.027949,184.2241 212.239283,186.365833 208.274002,186.55843 L207.943185,186.569959 L207.702777,186.572647 L207.333676,186.567446 C205.742774,186.520656 204.142307,186.158065 202.626491,185.454421 L202.249354,185.271391 L140.517746,220.919357 L140.498493,221.208333 C140.023577,227.252502 135.101599,232.046372 129.003657,232.318209 L128.697795,232.328017 L128.456621,232.330377 L128.165609,232.32694 C122.076573,232.18295 117.102739,227.532299 116.449854,221.581359 L116.420826,221.282743 L54.3358988,185.431474 L53.9740396,185.594249 C52.6526492,186.16282 51.2727017,186.477288 49.8952517,186.554015 L49.4821526,186.569917 L49.2362364,186.572651 L48.9379818,186.569239 C44.8650949,186.472316 40.9387916,184.316781 38.7527733,180.529749 C35.6757077,175.199077 37.1216888,168.497938 41.8997258,164.872035 L42.1498311,164.687253 L42.1498311,92.7709878 L41.9116912,92.5952747 C37.1241046,88.9714853 35.6731407,82.2636114 38.7527733,76.9284922 C40.9331792,73.1511829 44.8449456,70.9970043 48.9066146,70.8897894 L49.2362364,70.8855904 L49.4821526,70.8883241 L49.860816,70.9023577 C51.2382202,70.9751232 52.6186306,71.2854934 53.9409927,71.8498308 L54.3358988,72.0267674 L116.420826,36.1754974 L116.448332,35.8908316 C117.105232,29.8386463 122.230902,25.127864 128.456621,25.127864 Z M118.165568,43.5392021 L59.839841,77.2200369 L59.9880038,77.5035125 C61.7680112,81.0217075 61.7931657,85.3407057 59.6749535,89.0102714 C57.5319145,92.7228469 53.716349,94.8674479 49.7297935,95.0416606 L49.3972169,95.0516086 L49.3972169,162.406632 L49.6973788,162.415207 C53.6956562,162.579181 57.5261068,164.725333 59.6749535,168.44797 C61.7882587,172.109034 61.7681163,176.416526 60.0003463,179.930265 L59.839841,180.238204 L118.165568,213.919039 L118.324162,213.668563 C120.478453,210.356712 124.211848,208.166819 128.456621,208.166819 C132.581417,208.166819 136.223336,210.234669 138.40265,213.390453 L138.585844,213.66359 L196.933328,179.970688 L196.792217,179.683458 C195.145345,176.216211 195.174208,172.023758 197.238288,168.44797 C199.271036,164.926461 202.808588,162.815689 206.56951,162.459079 L206.911992,162.431502 L206.911992,95.0267386 L206.597236,95.0017583 C202.825981,94.652916 199.276031,92.5404324 197.238288,89.0102714 C195.179267,85.4432467 195.145499,81.2625775 196.780138,77.8002903 L196.933328,77.487553 L138.585844,43.7946506 L138.411641,44.0547496 C136.346536,47.0535323 132.962023,49.0730152 129.096369,49.2747683 L128.73258,49.2883317 L128.456621,49.2914224 L128.139239,49.287333 C123.920702,49.1785058 120.240236,46.9064839 118.165568,43.5392021 Z M152.457138,84.6434794 L153.249899,84.6471201 L154.021431,84.6543924 L154.772201,84.6652869 L155.860452,84.6883993 L156.561365,84.7083076 L157.243154,84.7318048 L158.231001,84.7737592 L158.867025,84.8061874 L159.485562,84.8421713 L160.08708,84.8817015 L160.672045,84.9247686 L161.240927,84.9713629 L162.065115,85.0478475 L162.595833,85.1032187 L163.112104,85.1620841 L163.614396,85.2244341 L164.103177,85.2902593 L164.695865,85.3774134 L165.269087,85.4699642 L165.714261,85.547878 L166.14803,85.6292243 L166.570859,85.7139936 L166.983218,85.8021765 L167.385573,85.8937636 L167.778394,85.9887452 L168.162146,86.087112 L168.537299,86.1888544 L169.084926,86.3477766 L169.440625,86.4579167 L169.961265,86.629391 L170.467817,86.8083539 L170.798472,86.931807 L171.124035,87.0585647 L171.603856,87.2548765 L171.918736,87.3898541 L172.230161,87.528103 L172.691845,87.7415896 L172.996681,87.8879755 L173.450672,88.113623 L173.751841,88.2680867 L174.202525,88.5058064 L174.654684,88.7533992 C178.989733,91.179358 182.436212,94.6293557 184.860531,98.9695778 L185.116362,99.4380019 L185.353683,99.8894443 L185.583783,100.342347 L185.733155,100.645875 L185.879296,100.951223 L186.022193,101.25886 L186.16184,101.569255 L186.298225,101.882876 L186.496667,102.360381 L186.624858,102.684118 L186.810964,103.178992 L186.989626,103.686396 L187.104583,104.032408 L187.270768,104.56421 L187.377377,104.92795 L187.530995,105.488542 L187.629196,105.87294 L187.724018,106.266421 L187.815452,106.669453 L187.903487,107.082505 L187.988114,107.506046 L188.069323,107.940544 L188.147106,108.386468 L188.221453,108.844285 L188.292354,109.314466 L188.3598,109.797477 L188.423781,110.293789 L188.484288,110.803869 L188.568514,111.595829 L188.620294,112.142379 L188.668568,112.704338 L188.713324,113.282174 L188.754555,113.876354 L188.79225,114.487349 L188.842142,115.436392 L188.884026,116.425901 L188.907484,117.108837 L188.927359,117.810929 L188.950432,118.90101 L188.961308,119.653043 L188.968568,120.425873 L188.972658,121.625136 L188.972658,138.4421 L188.968568,139.236194 L188.961308,140.009024 L188.950432,140.761057 L188.927359,141.851139 L188.907484,142.553231 L188.884026,143.236166 L188.842142,144.225676 L188.809768,144.86277 L188.773845,145.482347 L188.734381,146.084876 L188.691386,146.670825 L188.64487,147.240664 L188.568514,148.066239 L188.513236,148.597849 L188.454469,149.114989 L188.392224,149.618126 L188.326509,150.107729 L188.239501,150.701414 L188.147106,151.2756 L188.069323,151.721523 L187.988114,152.156021 L187.903487,152.579562 L187.815452,152.992615 L187.724018,153.395647 L187.629196,153.789128 L187.530995,154.173526 L187.429423,154.549309 L187.324491,154.916947 L187.160813,155.454155 L187.018677,155.889774 L186.810964,156.483075 L186.687718,156.814286 L186.561173,157.140397 L186.365191,157.621025 L186.23044,157.936434 L186.092424,158.248384 L185.879296,158.710844 L185.733155,159.016193 L185.507887,159.470948 L185.353683,159.772623 L185.116362,160.224066 L184.869185,160.676985 C182.4473,165.019327 179.003096,168.471603 174.670163,170.9 L174.202525,171.156261 L173.751841,171.393981 L173.299698,171.624468 L172.996681,171.774092 L172.691845,171.920478 L172.384725,172.063616 L172.074851,172.203497 L171.603856,172.407191 L171.285053,172.538888 L170.961861,172.667294 L170.467817,172.853714 L170.131603,172.973853 L169.615834,173.147827 L169.263675,173.259639 L168.721796,173.421079 L168.162146,173.574956 L167.778394,173.673322 L167.385573,173.768304 L166.983218,173.859891 L166.570859,173.948074 L166.14803,174.032843 L165.714261,174.11419 L165.269087,174.192103 L164.812038,174.266575 L164.342647,174.337595 L163.860446,174.405155 L163.364968,174.469243 L162.855745,174.529852 L162.065115,174.61422 L161.519482,174.666088 L160.958467,174.714442 L160.381602,174.759274 L159.788419,174.800574 L159.178451,174.838332 L158.231001,174.888308 L157.243154,174.930263 L156.561365,174.95376 L155.860452,174.973668 L154.772201,174.996781 L154.021431,175.007675 L153.249899,175.014947 L152.05265,175.019044 L105.189177,175.019044 L104.396416,175.014947 L103.624884,175.007675 L102.874114,174.996781 L101.785863,174.973668 L101.08495,174.95376 L100.403161,174.930263 L99.4153135,174.888308 L98.7792895,174.85588 L98.1607527,174.819896 L97.5592354,174.780366 L96.9742699,174.737299 L96.4053883,174.690705 L95.5812002,174.61422 L95.0504821,174.558849 L94.5342109,174.499983 L94.0319188,174.437633 L93.543138,174.371808 L92.8342773,174.266575 L92.3772284,174.192103 L91.9320536,174.11419 L91.4982853,174.032843 L91.0754557,173.948074 L90.663097,173.859891 L90.2607415,173.768304 L89.8679214,173.673322 L89.4841689,173.574956 L89.1090164,173.473213 L88.5613891,173.314291 L88.2056899,173.204151 L87.7708024,173.061776 L87.3458807,172.914198 L87.1784977,172.853714 L86.847843,172.73026 L86.52228,172.603503 L86.0424594,172.407191 L85.7275793,172.272213 L85.4161539,172.133964 L84.9544698,171.920478 L84.6496344,171.774092 L84.1956429,171.548444 L83.8944741,171.393981 L83.4437899,171.156261 L82.9916309,170.908668 C78.6565816,168.482709 75.2101026,165.032712 72.7857839,160.69249 L72.5299529,160.224066 L72.3692277,159.919916 L72.1342827,159.462737 L71.9817621,159.156607 L71.7591698,158.694188 L71.614915,158.383053 L71.4739835,158.069069 L71.3363852,157.751752 L71.2021298,157.430618 L71.0712272,157.105183 L70.943687,156.774963 L70.8195191,156.439473 L70.6987333,156.098231 L70.5813393,155.750752 L70.4673469,155.396552 L70.3567658,155.035146 L70.2496059,154.666052 L70.145877,154.288785 L70.0455887,153.902861 L69.9487509,153.507796 L69.8553734,153.103106 L69.7435323,152.582971 L69.6371323,152.046096 L69.5559427,151.603908 L69.4782572,151.149916 L69.4040858,150.683638 L69.3334382,150.204589 L69.2663242,149.712285 L69.2027535,149.206242 L69.142736,148.685977 L69.0862813,148.151005 L69.0333994,147.600842 L68.9840998,147.035004 L68.9383925,146.453008 L68.8962873,145.854368 L68.8577937,145.238602 L68.8229218,144.605226 L68.7916812,143.953755 L68.7640817,143.283705 L68.740133,142.594592 L68.7198451,141.885933 L68.6962982,140.785235 L68.6852047,140.025592 L68.677806,139.244708 L68.674112,138.4421 L68.674112,121.219968 L68.6777466,120.425873 L68.6850067,119.653043 L68.6958828,118.90101 L68.7189564,117.810929 L68.7388313,117.108837 L68.762289,116.425901 L68.804173,115.436392 L68.8365467,114.799298 L68.8724702,114.179721 L68.911934,113.577192 L68.9549287,112.991242 L69.0014448,112.421403 L69.077801,111.595829 L69.1330792,111.064218 L69.1918457,110.547079 L69.254091,110.043941 L69.3198057,109.554338 L69.4068135,108.960653 L69.4992088,108.386468 L69.5769917,107.940544 L69.6582014,107.506046 L69.7428284,107.082505 L69.8308633,106.669453 L69.9222965,106.266421 L70.0171186,105.87294 L70.1153202,105.488542 L70.2168918,105.112758 L70.3755471,104.56421 L70.4855023,104.207912 L70.5987943,103.858589 L70.6566886,103.686396 L70.835351,103.178992 L70.9585968,102.847781 L71.0851416,102.52167 L71.2811237,102.041043 L71.4158746,101.725633 L71.5538914,101.413684 L71.7670194,100.951223 L71.9131595,100.645875 L72.1384281,100.19112 L72.2926324,99.8894443 L72.5299529,99.4380019 L72.77713,98.9850824 C75.1990148,94.6427409 78.6432189,91.1904645 82.9761524,88.7620677 L83.4437899,88.5058064 L83.7474283,88.3448108 L84.2038403,88.1094706 L84.5094558,87.9566935 L84.9710982,87.7337268 L85.2817106,87.5892293 L85.5951673,87.4480607 L85.9119515,87.3102309 L86.2325463,87.1757497 L86.5574349,87.0446269 L86.8871006,86.9168722 L87.2220265,86.7924955 L87.5626957,86.6715064 L87.9095914,86.553915 L88.2631969,86.4397308 L88.6239952,86.3289637 L88.9924696,86.2216236 L89.3691032,86.1177201 L89.7543792,86.0172632 L90.1487808,85.9202625 L90.5527911,85.8267279 L91.0720524,85.7146987 L91.608026,85.6081197 L92.049472,85.5267935 L92.502701,85.4489774 L92.9681962,85.3746812 L93.4464407,85.3039148 L93.9379179,85.2366878 L94.4431107,85.1730102 L94.9625025,85.1128917 L95.4965763,85.0563421 L96.0458154,85.0033712 L96.6107029,84.9539887 L97.191722,84.9082045 L97.7893559,84.8660284 L98.4040877,84.8274702 L99.0364007,84.7925396 L99.6867779,84.7612464 L100.355703,84.7336004 L101.043658,84.7096115 L101.751127,84.6892894 L102.849976,84.665703 L103.608344,84.6545908 L104.387916,84.6471797 L105.189177,84.6434794 L152.457138,84.6434794 Z M152.05279,99.103187 L105.22185,99.103187 L103.874084,99.1109938 L102.924229,99.1222181 L102.024289,99.1384842 L101.172156,99.1599456 L100.629585,99.1772151 L99.8524429,99.2076759 L99.1174838,99.243741 L98.6499045,99.2709736 L97.9805634,99.3167201 L97.5547766,99.350549 L97.1446133,99.3870959 L96.7494486,99.4264064 L96.3686576,99.4685258 L96.0016153,99.5134997 L95.647697,99.5613734 L95.3062778,99.6121924 L94.8162176,99.6940428 L94.3507653,99.7827759 L94.0530933,99.8458307 L93.7647958,99.9120582 L93.4852481,99.9815037 L93.2138253,100.054213 L92.9499023,100.130231 L92.6928544,100.209603 L92.4420567,100.292375 L92.1968842,100.378593 L91.9567122,100.468301 L91.7209156,100.561545 L91.4888696,100.658372 L91.2599494,100.758825 L91.03353,100.862951 L90.8089866,100.970795 L90.5856942,101.082402 L90.2517345,101.256969 L89.9056411,101.44889 C88.0922155,102.489626 86.6790992,103.868815 85.6067883,105.646059 L85.3968525,106.006833 L85.2597024,106.257398 L85.0348874,106.692438 L84.8498843,107.076131 L84.6755875,107.465883 L84.5807142,107.692505 L84.4837073,107.936983 L84.390469,108.186161 L84.2791483,108.505291 L84.1735489,108.834184 L84.0931262,109.105232 L84.0162582,109.384075 L83.907517,109.818465 L83.8393274,110.119811 L83.7433808,110.591179 L83.6835724,110.919327 L83.6270331,111.2594 L83.5737155,111.612086 L83.5235721,111.978074 L83.4765551,112.35805 L83.4326171,112.752704 L83.3723792,113.37371 L83.3188013,114.03161 L83.2867036,114.491854 L83.257447,114.970216 L83.230984,115.467383 L83.1964234,116.249899 L83.1678809,117.078599 L83.138908,118.259387 L83.1237833,119.204879 L83.1141415,120.204294 L83.1095373,121.624744 L83.1095373,138.409371 L83.1173309,139.759405 L83.1285364,140.710858 L83.1447752,141.612312 L83.1662005,142.465878 L83.183441,143.009362 L83.2138507,143.787811 L83.2498552,144.524006 L83.2770421,144.992372 L83.3227117,145.662839 L83.3564838,146.089342 L83.3929694,146.500196 L83.4322138,146.896025 L83.4742625,147.277457 L83.5191608,147.645116 L83.5669541,147.99963 L83.6176878,148.341623 L83.6994008,148.832508 L83.7879849,149.298743 L83.8509338,149.596916 L83.9170501,149.885698 L83.9863789,150.165716 L84.0589658,150.437596 L84.1348561,150.701963 L84.2140951,150.959443 L84.2967283,151.210662 L84.382801,151.456247 L84.4723586,151.696823 L84.5654465,151.933017 L84.6621101,152.165453 L84.7623947,152.394758 L84.8663457,152.621558 L84.9740085,152.84648 L85.0854285,153.070148 L85.2597024,153.404669 L85.4513008,153.751345 C86.4902894,155.567821 87.8671619,156.983314 89.6414221,158.057429 L90.0015903,158.267718 L90.2517345,158.405098 L90.468691,158.519501 L90.6860439,158.630292 L91.0690921,158.815606 L91.4581904,158.990196 L91.684433,159.085229 L91.9285008,159.182399 L92.1772613,159.275794 L92.4958575,159.387302 L92.8242012,159.493079 L93.0947959,159.573637 L93.3731746,159.650634 L93.8068403,159.759558 L94.1076844,159.827863 L94.4187169,159.892773 L94.7406246,159.954338 L95.0740946,160.012603 L95.4198138,160.067618 L95.5974815,160.093921 L95.9628625,160.144149 L96.3422101,160.191245 L96.7362112,160.235257 L97.356191,160.295596 L98.0130053,160.349264 L98.4724901,160.381416 L98.9500633,160.410722 L99.4464116,160.437229 L100.227641,160.471848 L101.054978,160.500439 L102.233826,160.52946 L103.177766,160.54461 L104.175543,160.554268 L105.593665,160.55888 L152.774534,160.557735 L154.142053,160.548432 L155.103681,160.53513 L156.013018,160.51623 L156.591337,160.500439 L157.418674,160.471848 L158.199903,160.437229 L158.696252,160.410722 L159.173825,160.381416 L159.63331,160.349264 L160.290124,160.295596 L160.707393,160.256121 L161.108979,160.213634 L161.495567,160.168086 L162.048833,160.093921 L162.400935,160.040514 L162.740444,159.98388 L163.068047,159.923971 L163.384431,159.860739 L163.690283,159.794138 L163.839475,159.759558 L164.130817,159.687813 L164.413346,159.612578 L164.822114,159.493079 L165.214914,159.365462 L165.469054,159.275794 L165.717814,159.182399 L165.961882,159.085229 L166.188125,158.990196 L166.577223,158.815606 L166.960271,158.630292 L167.177624,158.519501 L167.39458,158.405098 L167.740674,158.213178 C169.554099,157.172441 170.967216,155.793253 172.039527,154.016008 L172.249462,153.655234 L172.386613,153.404669 L172.500823,153.187348 L172.611428,152.969629 L172.796431,152.585937 L172.970727,152.196184 L173.065601,151.969561 L173.162608,151.725082 L173.255846,151.475903 L173.388741,151.091816 L173.472766,150.827875 L173.553189,150.556825 L173.630057,150.277978 L173.738798,149.843583 L173.806988,149.542233 L173.871789,149.230677 L173.93325,148.908228 L173.991418,148.574197 L174.072599,148.04993 L174.122743,147.683934 L174.16976,147.303949 L174.213698,146.909285 L174.273936,146.288262 L174.327514,145.630343 L174.359611,145.170085 L174.388868,144.691709 L174.415331,144.194525 L174.449892,143.411982 L174.478434,142.583253 L174.507407,141.402422 L174.522532,140.456894 L174.532173,139.457439 L174.536778,138.036932 L174.535635,120.902038 L174.526347,119.532218 L174.513068,118.568973 L174.494198,117.658106 L174.478434,117.078814 L174.449892,116.250085 L174.415331,115.467542 L174.388868,114.970359 L174.359611,114.491982 L174.327514,114.031725 L174.273936,113.373806 L174.234527,112.955834 L174.192111,112.553573 L174.146639,112.166334 L174.072599,111.612138 L174.019282,111.259444 L173.962743,110.919364 L173.902934,110.59121 L173.839809,110.274294 L173.773319,109.967927 L173.738798,109.818484 L173.667173,109.526652 L173.592064,109.243648 L173.472766,108.834192 L173.345363,108.440732 L173.255846,108.186164 L173.162608,107.936985 L173.065601,107.692507 L172.970727,107.465884 L172.796431,107.076131 L172.611428,106.692438 L172.386613,106.257398 L172.195014,105.910723 C171.156026,104.094247 169.779153,102.678753 168.004893,101.604639 L167.644725,101.39435 L167.39458,101.256969 L167.177624,101.142567 L166.960271,101.031776 L166.577223,100.846462 L166.188125,100.671872 L165.961883,100.576839 L165.717815,100.479669 L165.469055,100.386273 L165.085614,100.253155 L164.822117,100.168988 L164.551523,100.088431 L164.273145,100.011433 L163.839481,99.9025091 L163.538639,99.8342047 L163.227608,99.7692943 L162.905703,99.70773 L162.572235,99.6494642 L162.048852,99.5681461 L161.683474,99.5179183 L161.304129,99.4708222 L160.910132,99.4268103 L160.290158,99.3664711 L159.633351,99.3128031 L159.173871,99.2806514 L158.696303,99.2513456 L158.19996,99.224838 L157.418741,99.1902193 L156.591414,99.1616288 L155.412581,99.1326072 L154.468654,99.117457 L153.470892,99.107799 L152.05279,99.103187 Z M112.392546,116.57634 L112.588591,116.580635 C114.928315,116.683367 116.793712,118.615926 116.793712,120.984904 L116.793712,120.984904 L116.793712,138.678075 L116.789424,138.874449 C116.686864,141.218107 114.757548,143.086639 112.392546,143.086639 L112.392546,143.086639 L106.758998,143.086639 L106.562953,143.082343 C104.223229,142.979611 102.357832,141.047052 102.357832,138.678075 L102.357832,138.678075 L102.357832,120.984904 L102.36212,120.788529 C102.46468,118.444872 104.393996,116.57634 106.758998,116.57634 L106.758998,116.57634 L112.392546,116.57634 Z M150.888226,116.57634 L151.084271,116.580635 C153.423996,116.683367 155.289392,118.615926 155.289392,120.984904 L155.289392,120.984904 L155.289392,138.678075 L155.285104,138.874449 C155.182544,141.218107 153.253229,143.086639 150.888226,143.086639 L150.888226,143.086639 L145.254679,143.086639 L145.058633,143.082343 C142.718909,142.979611 140.853512,141.047052 140.853512,138.678075 L140.853512,138.678075 L140.853512,120.984904 L140.857801,120.788529 C140.96036,118.444872 142.889676,116.57634 145.254679,116.57634 L145.254679,116.57634 L150.888226,116.57634 Z" id="形状结合" fill="#FFFFFF" fill-rule="nonzero"></path>
        </g>
    </g>
</svg>