<svg xmlns="http://www.w3.org/2000/svg" xmlns:xlink="http://www.w3.org/1999/xlink" fill="none" version="1.1" width="48" height="48" viewBox="0 0 48 48"><defs><clipPath id="master_svg0_502_405"><rect x="0" y="0" width="48" height="48" rx="0"/></clipPath></defs><g clip-path="url(#master_svg0_502_405)"><g><rect x="0" y="0" width="48" height="48" rx="0" fill="#FFFFFF" fill-opacity="0.009999999776482582"/></g><g><path d="M11.27206,36.7279Q16.5443,42,24,42Q31.4558,42,36.7279,36.7279Q42,31.4558,42,24Q42,16.5442,36.7279,11.27207Q31.4558,6,24,6Q16.5442,6,11.27206,11.272079999999999Q6,16.5442,6,24Q6,31.4558,11.272079999999999,36.7279L11.27206,36.7279ZM8.44364,39.5563Q2,33.1126,2,24Q2,14.8874,8.443660000000001,8.443629999999999Q14.8874,2,24,2Q33.1126,2,39.5563,8.443660000000001Q46,14.8874,46,24Q46,33.1126,39.5563,39.5563Q33.1126,46,24,46Q14.8874,46,8.44365,39.5563L8.44364,39.5563Z" fill="#660874" fill-opacity="1"/></g><g><path d="M24,11C25.3807,11,26.5,12.119299999999999,26.5,13.5C26.5,14.880700000000001,25.3807,16,24,16C22.6193,16,21.5,14.880700000000001,21.5,13.5C21.5,12.119299999999999,22.6193,11,24,11Z" fill-rule="evenodd" fill="#660874" fill-opacity="1"/></g><g><path d="M22.5,18L23.5,18L24.5,18Q24.59825,18,24.69603,18.00963Q24.79381,18.01926,24.89018,18.038429999999998Q24.98655,18.0576,25.08057,18.08612Q25.17459,18.11464,25.26537,18.15224Q25.35614,18.18984,25.44279,18.236159999999998Q25.52945,18.28247,25.61114,18.33706Q25.69284,18.39165,25.76879,18.45398Q25.84474,18.51631,25.91421,18.58579Q25.98369,18.65526,26.04602,18.73121Q26.10835,18.80716,26.16294,18.88886Q26.21753,18.97055,26.263840000000002,19.057207Q26.31016,19.143859,26.34776,19.234633Q26.38536,19.325408,26.41388,19.419431Q26.4424,19.513454,26.461570000000002,19.609819Q26.48074,19.706185,26.49037,19.803966Q26.5,19.9017463,26.5,20L26.5,34Q26.5,34.0983,26.49037,34.196Q26.48074,34.2938,26.461570000000002,34.3902Q26.4424,34.4865,26.41388,34.580600000000004Q26.38536,34.6746,26.34776,34.7654Q26.31016,34.8561,26.263840000000002,34.9428Q26.21753,35.0294,26.16294,35.1111Q26.10835,35.1928,26.04602,35.2688Q25.98369,35.3447,25.91421,35.4142Q25.84474,35.4837,25.76879,35.546Q25.69284,35.6084,25.61114,35.6629Q25.52945,35.7175,25.44279,35.7638Q25.35614,35.8102,25.26537,35.8478Q25.17459,35.885400000000004,25.08057,35.9139Q24.98655,35.9424,24.89018,35.961600000000004Q24.79381,35.9807,24.69603,35.9904Q24.59825,36,24.5,36Q24.40175,36,24.30397,35.9904Q24.20619,35.9807,24.10982,35.961600000000004Q24.01345,35.9424,23.91943,35.9139Q23.82541,35.885400000000004,23.73463,35.8478Q23.64386,35.8102,23.55721,35.7638Q23.470554,35.7175,23.388859,35.6629Q23.307164,35.6084,23.231213,35.546Q23.155262,35.4837,23.085786,35.4142Q23.016311,35.3447,22.953979,35.2688Q22.891648,35.1928,22.837061,35.1111Q22.782474,35.0294,22.736157,34.9428Q22.689841,34.8561,22.652241,34.7654Q22.614641,34.6746,22.5861193,34.580600000000004Q22.5575978,34.4865,22.5384294,34.3902Q22.5192611,34.2938,22.50963055,34.196Q22.5,34.0983,22.5,34L22.5,20L24.5,20L24.5,22L23.5,22L22.5,22Q22.4017463,22,22.303966,21.99037Q22.206185,21.98074,22.109819,21.961570000000002Q22.013454,21.9424,21.919431,21.91388Q21.825408,21.88536,21.734633,21.84776Q21.643859,21.81016,21.557207,21.763840000000002Q21.47055,21.71753,21.38886,21.66294Q21.30716,21.60835,21.23121,21.54602Q21.15526,21.48369,21.08579,21.41421Q21.01631,21.34474,20.95398,21.26879Q20.89165,21.19284,20.83706,21.11114Q20.78247,21.02945,20.736159999999998,20.942793Q20.68984,20.856141,20.65224,20.765367Q20.61464,20.674592,20.58612,20.580569Q20.5576,20.486546,20.538429999999998,20.390181Q20.51926,20.293815,20.50963,20.196034Q20.5,20.0982537,20.5,20Q20.5,19.9017463,20.50963,19.803966Q20.51926,19.706185,20.538429999999998,19.609819Q20.5576,19.513454,20.58612,19.419431Q20.61464,19.325408,20.65224,19.234633Q20.68984,19.143859,20.736159999999998,19.057207Q20.78247,18.97055,20.83706,18.88886Q20.89165,18.80716,20.95398,18.73121Q21.01631,18.65526,21.08579,18.58579Q21.15526,18.51631,21.23121,18.45398Q21.30716,18.39165,21.38886,18.33706Q21.47055,18.28247,21.557207,18.236159999999998Q21.643859,18.18984,21.734633,18.15224Q21.825408,18.11464,21.919431,18.08612Q22.013454,18.0576,22.109819,18.038429999999998Q22.206185,18.01926,22.303966,18.00963Q22.4017463,18,22.5,18ZM24.5,20Q24.5,20.0982537,24.49037,20.196034Q24.48074,20.293815,24.461570000000002,20.390181Q24.4424,20.486546,24.41388,20.580569Q24.38536,20.674592,24.34776,20.765367Q24.31016,20.856141,24.263840000000002,20.942793Q24.21753,21.02945,24.16294,21.11114Q24.10835,21.19284,24.04602,21.26879Q23.98369,21.34474,23.91421,21.41421Q23.84474,21.48369,23.76879,21.54602Q23.69284,21.60835,23.61114,21.66294Q23.52945,21.71753,23.442793,21.763840000000002Q23.356141,21.81016,23.265367,21.84776Q23.174592,21.88536,23.080569,21.91388Q22.986546,21.9424,22.890181,21.961570000000002Q22.793815,21.98074,22.696034,21.99037Q22.5982537,22,22.5,22Q22.4017463,22,22.303966,21.99037Q22.206185,21.98074,22.109819,21.961570000000002Q22.013454,21.9424,21.919431,21.91388Q21.825408,21.88536,21.734633,21.84776Q21.643859,21.81016,21.557207,21.763840000000002Q21.47055,21.71753,21.38886,21.66294Q21.30716,21.60835,21.23121,21.54602Q21.15526,21.48369,21.08579,21.41421Q21.01631,21.34474,20.95398,21.26879Q20.89165,21.19284,20.83706,21.11114Q20.78247,21.02945,20.736159999999998,20.942793Q20.68984,20.856141,20.65224,20.765367Q20.61464,20.674592,20.58612,20.580569Q20.5576,20.486546,20.538429999999998,20.390181Q20.51926,20.293815,20.50963,20.196034Q20.5,20.0982537,20.5,20Q20.5,19.9017463,20.50963,19.803966Q20.51926,19.706185,20.538429999999998,19.609819Q20.5576,19.513454,20.58612,19.419431Q20.61464,19.325408,20.65224,19.234633Q20.68984,19.143859,20.736159999999998,19.057207Q20.78247,18.97055,20.83706,18.88886Q20.89165,18.80716,20.95398,18.73121Q21.01631,18.65526,21.08579,18.58579Q21.15526,18.51631,21.23121,18.45398Q21.30716,18.39165,21.38886,18.33706Q21.47055,18.28247,21.557207,18.236159999999998Q21.643859,18.18984,21.734633,18.15224Q21.825408,18.11464,21.919431,18.08612Q22.013454,18.0576,22.109819,18.038429999999998Q22.206185,18.01926,22.303966,18.00963Q22.4017463,18,22.5,18Q22.5982537,18,22.696034,18.00963Q22.793815,18.01926,22.890181,18.038429999999998Q22.986546,18.0576,23.080569,18.08612Q23.174592,18.11464,23.265367,18.15224Q23.356141,18.18984,23.442793,18.236159999999998Q23.52945,18.28247,23.61114,18.33706Q23.69284,18.39165,23.76879,18.45398Q23.84474,18.51631,23.91421,18.58579Q23.98369,18.65526,24.04602,18.73121Q24.10835,18.80716,24.16294,18.88886Q24.21753,18.97055,24.263840000000002,19.057207Q24.31016,19.143859,24.34776,19.234633Q24.38536,19.325408,24.41388,19.419431Q24.4424,19.513454,24.461570000000002,19.609819Q24.48074,19.706185,24.49037,19.803966Q24.5,19.9017463,24.5,20ZM26.5,34Q26.5,34.0983,26.49037,34.196Q26.48074,34.2938,26.461570000000002,34.3902Q26.4424,34.4865,26.41388,34.580600000000004Q26.38536,34.6746,26.34776,34.7654Q26.31016,34.8561,26.263840000000002,34.9428Q26.21753,35.0294,26.16294,35.1111Q26.10835,35.1928,26.04602,35.2688Q25.98369,35.3447,25.91421,35.4142Q25.84474,35.4837,25.76879,35.546Q25.69284,35.6084,25.61114,35.6629Q25.52945,35.7175,25.44279,35.7638Q25.35614,35.8102,25.26537,35.8478Q25.17459,35.885400000000004,25.08057,35.9139Q24.98655,35.9424,24.89018,35.961600000000004Q24.79381,35.9807,24.69603,35.9904Q24.59825,36,24.5,36Q24.40175,36,24.30397,35.9904Q24.20619,35.9807,24.10982,35.961600000000004Q24.01345,35.9424,23.91943,35.9139Q23.82541,35.885400000000004,23.73463,35.8478Q23.64386,35.8102,23.55721,35.7638Q23.470554,35.7175,23.388859,35.6629Q23.307164,35.6084,23.231213,35.546Q23.155262,35.4837,23.085786,35.4142Q23.016311,35.3447,22.953979,35.2688Q22.891648,35.1928,22.837061,35.1111Q22.782474,35.0294,22.736157,34.9428Q22.689841,34.8561,22.652241,34.7654Q22.614641,34.6746,22.5861193,34.580600000000004Q22.5575978,34.4865,22.5384294,34.3902Q22.5192611,34.2938,22.50963055,34.196Q22.5,34.0983,22.5,34Q22.5,33.9017,22.50963055,33.804Q22.5192611,33.7062,22.5384294,33.6098Q22.5575978,33.5135,22.5861193,33.419399999999996Q22.614641,33.3254,22.652241,33.2346Q22.689841,33.1439,22.736157,33.0572Q22.782474,32.9706,22.837061,32.8889Q22.891648,32.8072,22.953979,32.7312Q23.016311,32.6553,23.085786,32.5858Q23.155262,32.5163,23.231213,32.454Q23.307164,32.3916,23.388859,32.3371Q23.470554,32.2825,23.55721,32.2362Q23.64386,32.1898,23.73463,32.1522Q23.82541,32.114599999999996,23.91943,32.0861Q24.01345,32.0576,24.10982,32.038399999999996Q24.20619,32.0193,24.30397,32.0096Q24.40175,32,24.5,32Q24.59825,32,24.69603,32.0096Q24.79381,32.0193,24.89018,32.038399999999996Q24.98655,32.0576,25.08057,32.0861Q25.17459,32.114599999999996,25.26537,32.1522Q25.35614,32.1898,25.44279,32.2362Q25.52945,32.2825,25.61114,32.3371Q25.69284,32.3916,25.76879,32.454Q25.84474,32.5163,25.91421,32.5858Q25.98369,32.6553,26.04602,32.7312Q26.10835,32.8072,26.16294,32.8889Q26.21753,32.9706,26.263840000000002,33.0572Q26.31016,33.1439,26.34776,33.2346Q26.38536,33.3254,26.41388,33.419399999999996Q26.4424,33.5135,26.461570000000002,33.6098Q26.48074,33.7062,26.49037,33.804Q26.5,33.9017,26.5,34Z" fill="#660874" fill-opacity="1"/></g><g><path d="M28,36L21,36Q20.9017463,36,20.803966,35.99037Q20.706185,35.98074,20.609819,35.96157Q20.513454,35.9424,20.419431,35.91388Q20.325408,35.88536,20.234633,35.84776Q20.143859,35.81016,20.057207,35.76384Q19.97055,35.71753,19.88886,35.66294Q19.80716,35.60835,19.73121,35.54602Q19.65526,35.48369,19.58579,35.41421Q19.51631,35.34474,19.45398,35.26879Q19.39165,35.19284,19.33706,35.11114Q19.28247,35.02945,19.236159999999998,34.942793Q19.18984,34.856141,19.15224,34.765367Q19.11464,34.674592,19.08612,34.580569Q19.0576,34.486546,19.038429999999998,34.390181Q19.01926,34.293815,19.00963,34.196034Q19,34.0982537,19,34Q19,33.9017463,19.00963,33.803966Q19.01926,33.706185,19.038429999999998,33.609819Q19.0576,33.513454,19.08612,33.419431Q19.11464,33.325408,19.15224,33.234633Q19.18984,33.143859,19.236159999999998,33.057207Q19.28247,32.97055,19.33706,32.88886Q19.39165,32.80716,19.45398,32.73121Q19.51631,32.65526,19.58579,32.58579Q19.65526,32.51631,19.73121,32.45398Q19.80716,32.39165,19.88886,32.33706Q19.97055,32.28247,20.057207,32.23616Q20.143859,32.18984,20.234633,32.15224Q20.325408,32.11464,20.419431,32.08612Q20.513454,32.0576,20.609819,32.03843Q20.706185,32.01926,20.803966,32.00963Q20.9017463,32,21,32L28,32Q28.09825,32,28.19603,32.00963Q28.29381,32.01926,28.39018,32.03843Q28.48655,32.0576,28.58057,32.08612Q28.674590000000002,32.11464,28.76537,32.15224Q28.85614,32.18984,28.94279,32.23616Q29.02944,32.28247,29.11114,32.33706Q29.19283,32.39165,29.26879,32.45398Q29.34474,32.51631,29.41421,32.58579Q29.48369,32.65526,29.54602,32.73121Q29.60835,32.80716,29.66294,32.88886Q29.71753,32.97055,29.763840000000002,33.057207Q29.81016,33.143859,29.84776,33.234633Q29.88536,33.325408,29.91388,33.419431Q29.9424,33.513454,29.961570000000002,33.609819Q29.98074,33.706185,29.99037,33.803966Q30,33.9017463,30,34Q30,34.0982537,29.99037,34.196034Q29.98074,34.293815,29.961570000000002,34.390181Q29.9424,34.486546,29.91388,34.580569Q29.88536,34.674592,29.84776,34.765367Q29.81016,34.856141,29.763840000000002,34.942793Q29.71753,35.02945,29.66294,35.11114Q29.60835,35.19284,29.54602,35.26879Q29.48369,35.34474,29.41421,35.41421Q29.34474,35.48369,29.26879,35.54602Q29.19283,35.60835,29.11114,35.66294Q29.02944,35.71753,28.94279,35.76384Q28.85614,35.81016,28.76537,35.84776Q28.674590000000002,35.88536,28.58057,35.91388Q28.48655,35.9424,28.39018,35.96157Q28.29381,35.98074,28.19603,35.99037Q28.09825,36,28,36ZM30,34Q30,34.0982537,29.99037,34.196034Q29.98074,34.293815,29.961570000000002,34.390181Q29.9424,34.486546,29.91388,34.580569Q29.88536,34.674592,29.84776,34.765367Q29.81016,34.856141,29.763840000000002,34.942793Q29.71753,35.02945,29.66294,35.11114Q29.60835,35.19284,29.54602,35.26879Q29.48369,35.34474,29.41421,35.41421Q29.34474,35.48369,29.26879,35.54602Q29.19283,35.60835,29.11114,35.66294Q29.02944,35.71753,28.94279,35.76384Q28.85614,35.81016,28.76537,35.84776Q28.674590000000002,35.88536,28.58057,35.91388Q28.48655,35.9424,28.39018,35.96157Q28.29381,35.98074,28.19603,35.99037Q28.09825,36,28,36Q27.90175,36,27.80397,35.99037Q27.70619,35.98074,27.60982,35.96157Q27.51345,35.9424,27.41943,35.91388Q27.325409999999998,35.88536,27.23463,35.84776Q27.14386,35.81016,27.05721,35.76384Q26.97055,35.71753,26.88886,35.66294Q26.80716,35.60835,26.73121,35.54602Q26.65526,35.48369,26.58579,35.41421Q26.51631,35.34474,26.45398,35.26879Q26.39165,35.19284,26.33706,35.11114Q26.28247,35.02945,26.236159999999998,34.942793Q26.18984,34.856141,26.15224,34.765367Q26.11464,34.674592,26.08612,34.580569Q26.0576,34.486546,26.038429999999998,34.390181Q26.01926,34.293815,26.00963,34.196034Q26,34.0982537,26,34Q26,33.9017463,26.00963,33.803966Q26.01926,33.706185,26.038429999999998,33.609819Q26.0576,33.513454,26.08612,33.419431Q26.11464,33.325408,26.15224,33.234633Q26.18984,33.143859,26.236159999999998,33.057207Q26.28247,32.97055,26.33706,32.88886Q26.39165,32.80716,26.45398,32.73121Q26.51631,32.65526,26.58579,32.58579Q26.65526,32.51631,26.73121,32.45398Q26.80716,32.39165,26.88886,32.33706Q26.97055,32.28247,27.05721,32.23616Q27.14386,32.18984,27.23463,32.15224Q27.325409999999998,32.11464,27.41943,32.08612Q27.51345,32.0576,27.60982,32.03843Q27.70619,32.01926,27.80397,32.00963Q27.90175,32,28,32Q28.09825,32,28.19603,32.00963Q28.29381,32.01926,28.39018,32.03843Q28.48655,32.0576,28.58057,32.08612Q28.674590000000002,32.11464,28.76537,32.15224Q28.85614,32.18984,28.94279,32.23616Q29.02944,32.28247,29.11114,32.33706Q29.19283,32.39165,29.26879,32.45398Q29.34474,32.51631,29.41421,32.58579Q29.48369,32.65526,29.54602,32.73121Q29.60835,32.80716,29.66294,32.88886Q29.71753,32.97055,29.763840000000002,33.057207Q29.81016,33.143859,29.84776,33.234633Q29.88536,33.325408,29.91388,33.419431Q29.9424,33.513454,29.961570000000002,33.609819Q29.98074,33.706185,29.99037,33.803966Q30,33.9017463,30,34ZM23,34Q23,34.0982537,22.99037,34.196034Q22.98074,34.293815,22.961570000000002,34.390181Q22.9424,34.486546,22.91388,34.580569Q22.88536,34.674592,22.84776,34.765367Q22.81016,34.856141,22.763840000000002,34.942793Q22.71753,35.02945,22.66294,35.11114Q22.60835,35.19284,22.54602,35.26879Q22.48369,35.34474,22.41421,35.41421Q22.34474,35.48369,22.26879,35.54602Q22.19284,35.60835,22.11114,35.66294Q22.02945,35.71753,21.942793,35.76384Q21.856141,35.81016,21.765367,35.84776Q21.674592,35.88536,21.580569,35.91388Q21.486546,35.9424,21.390181,35.96157Q21.293815,35.98074,21.196034,35.99037Q21.0982537,36,21,36Q20.9017463,36,20.803966,35.99037Q20.706185,35.98074,20.609819,35.96157Q20.513454,35.9424,20.419431,35.91388Q20.325408,35.88536,20.234633,35.84776Q20.143859,35.81016,20.057207,35.76384Q19.97055,35.71753,19.88886,35.66294Q19.80716,35.60835,19.73121,35.54602Q19.65526,35.48369,19.58579,35.41421Q19.51631,35.34474,19.45398,35.26879Q19.39165,35.19284,19.33706,35.11114Q19.28247,35.02945,19.236159999999998,34.942793Q19.18984,34.856141,19.15224,34.765367Q19.11464,34.674592,19.08612,34.580569Q19.0576,34.486546,19.038429999999998,34.390181Q19.01926,34.293815,19.00963,34.196034Q19,34.0982537,19,34Q19,33.9017463,19.00963,33.803966Q19.01926,33.706185,19.038429999999998,33.609819Q19.0576,33.513454,19.08612,33.419431Q19.11464,33.325408,19.15224,33.234633Q19.18984,33.143859,19.236159999999998,33.057207Q19.28247,32.97055,19.33706,32.88886Q19.39165,32.80716,19.45398,32.73121Q19.51631,32.65526,19.58579,32.58579Q19.65526,32.51631,19.73121,32.45398Q19.80716,32.39165,19.88886,32.33706Q19.97055,32.28247,20.057207,32.23616Q20.143859,32.18984,20.234633,32.15224Q20.325408,32.11464,20.419431,32.08612Q20.513454,32.0576,20.609819,32.03843Q20.706185,32.01926,20.803966,32.00963Q20.9017463,32,21,32Q21.0982537,32,21.196034,32.00963Q21.293815,32.01926,21.390181,32.03843Q21.486546,32.0576,21.580569,32.08612Q21.674592,32.11464,21.765367,32.15224Q21.856141,32.18984,21.942793,32.23616Q22.02945,32.28247,22.11114,32.33706Q22.19284,32.39165,22.26879,32.45398Q22.34474,32.51631,22.41421,32.58579Q22.48369,32.65526,22.54602,32.73121Q22.60835,32.80716,22.66294,32.88886Q22.71753,32.97055,22.763840000000002,33.057207Q22.81016,33.143859,22.84776,33.234633Q22.88536,33.325408,22.91388,33.419431Q22.9424,33.513454,22.961570000000002,33.609819Q22.98074,33.706185,22.99037,33.803966Q23,33.9017463,23,34Z" fill="#660874" fill-opacity="1"/></g></g></svg>