<svg xmlns="http://www.w3.org/2000/svg" xmlns:xlink="http://www.w3.org/1999/xlink" fill="none" version="1.1" width="48" height="48" viewBox="0 0 48 48"><defs><clipPath id="master_svg0_502_382"><rect x="0" y="0" width="48" height="48" rx="0"/></clipPath></defs><g clip-path="url(#master_svg0_502_382)"><g><rect x="0" y="0" width="48" height="48" rx="0" fill="#FFFFFF" fill-opacity="0.009999999776482582"/></g><g><ellipse cx="24" cy="24" rx="20" ry="20" fill-opacity="0" stroke-opacity="1" stroke="#660874" fill="none" stroke-width="4" stroke-linecap="ROUND" stroke-linejoin="round"/></g><g transform="matrix(-1,0,0,1,68,0)"><path d="M39.00001,25.99999237060547Q38.08992,25.99999237060547,37.33352,26.505492370605467Q36.57658,27.011292370605467,36.22838,27.85189237060547Q35.8801,28.692792370605467,36.05766,29.58519237060547Q36.23519,30.47789237060547,36.87862,31.12119237060547Q37.52216,31.76479237060547,38.414699999999996,31.942292370605468Q39.30719,32.11989237060547,40.148089999999996,31.771592370605468Q40.988730000000004,31.42349237060547,41.49458,30.666592370605468Q42.00001,29.91009237060547,42.00001,28.99999237060547L42.00001,19.00000237060547Q42.00001,16.87629237060547,43.17988,15.110882370605468Q44.3595,13.345380370605469,46.3213,12.53282237060547Q48.2833,11.720192370605469,50.3658,12.13455237060547Q52.4484,12.548752370605468,53.949799999999996,14.050389070605469Q55.4513,15.551632370605468,55.8655,17.634502370605468Q56.2798,19.71668237060547,55.4672,21.67872237060547Q54.6547,23.64028237060547,52.8892,24.82019237060547Q51.123400000000004,25.99999237060547,49,25.99999237060547Q48.9018,25.99999237060547,48.804,25.99039237060547Q48.7062,25.980692370605468,48.6098,25.96159237060547Q48.5135,25.942392370605468,48.419399999999996,25.913892370605467Q48.3254,25.88539237060547,48.2346,25.847792370605468Q48.1439,25.81019237060547,48.0572,25.76379237060547Q47.9706,25.71749237060547,47.8889,25.66289237060547Q47.8072,25.60839237060547,47.7312,25.545992370605468Q47.6553,25.483692370605468,47.5858,25.41419237060547Q47.5163,25.34469237060547,47.454,25.268792370605468Q47.3917,25.192792370605467,47.3371,25.11109237060547Q47.2825,25.029492370605467,47.2362,24.942792370605467Q47.1898,24.856092370605467,47.1522,24.76539237060547Q47.114599999999996,24.674592370605467,47.0861,24.58059237060547Q47.0576,24.486592370605468,47.038399999999996,24.39019237060547Q47.0193,24.293792370605466,47.0096,24.195992370605467Q47,24.09829237060547,47,23.99999237060547Q47,23.901752370605468,47.0096,23.80396237060547Q47.0193,23.706182370605468,47.038399999999996,23.60982237060547Q47.0576,23.51345237060547,47.0861,23.41943237060547Q47.114599999999996,23.325402370605467,47.1522,23.234632370605468Q47.1898,23.14385237060547,47.2362,23.057202370605467Q47.2825,22.970552370605468,47.3371,22.88886237060547Q47.3917,22.807162370605468,47.454,22.73121237060547Q47.5163,22.65526237060547,47.5858,22.585782370605468Q47.6553,22.51631237060547,47.7312,22.453982370605466Q47.8072,22.391642370605467,47.8889,22.33706237060547Q47.9706,22.28247237060547,48.0572,22.23616237060547Q48.1439,22.18984237060547,48.2346,22.15224237060547Q48.3254,22.114642370605466,48.419399999999996,22.08612237060547Q48.5135,22.05760237060547,48.6098,22.03843237060547Q48.7062,22.019262370605468,48.804,22.009632370605466Q48.9018,22.00000237060547,49,22.00000237060547Q49.9101,22.00000237060547,50.6666,21.494572370605468Q51.4234,20.988762370605468,51.7716,20.14808237060547Q52.1199,19.307182370605467,51.9423,18.41469237060547Q51.7648,17.52215237060547,51.1212,16.87861237060547Q50.477900000000005,16.235182370605468,49.5852,16.057652370605467Q48.6928,15.88009237060547,47.8519,16.22837237060547Q47.0113,16.57657237060547,46.5055,17.33351237060547Q46,18.089912370605468,46,19.00000237060547L46,28.99999237060547Q46,31.12339237060547,44.8202,32.88919237060547Q43.640209999999996,34.65489237060547,41.67873,35.46719237060547Q39.71669,36.27979237060547,37.63451,35.865492370605466Q35.55164,35.45129237060547,34.0503967,33.949792370605465Q32.54876,32.44839237060547,32.13456,30.36579237060547Q31.7202,28.28329237060547,32.53283,26.32129237060547Q33.345388,24.35949237060547,35.11089,23.17987237060547Q36.8763,22.00000237060547,39.00001,22.00000237060547Q39.098259999999996,22.00000237060547,39.196039999999996,22.009632370605466Q39.29382,22.019262370605468,39.39019,22.03843237060547Q39.48655,22.05760237060547,39.58058,22.08612237060547Q39.6746,22.114642370605466,39.76537,22.15224237060547Q39.85615,22.18984237060547,39.9428,22.23616237060547Q40.02945,22.28247237060547,40.11115,22.33706237060547Q40.192840000000004,22.391642370605467,40.26879,22.453982370605466Q40.34475,22.51631237060547,40.41422,22.585782370605468Q40.4837,22.65526237060547,40.54603,22.73121237060547Q40.60836,22.807162370605468,40.66295,22.88886237060547Q40.71753,22.970552370605468,40.76385,23.057202370605467Q40.81017,23.14385237060547,40.84777,23.234632370605468Q40.88537,23.325402370605467,40.91389,23.41943237060547Q40.94241,23.51345237060547,40.96158,23.60982237060547Q40.98075,23.706182370605468,40.99038,23.80396237060547Q41.00001,23.901752370605468,41.00001,23.99999237060547Q41.00001,24.09829237060547,40.99038,24.195992370605467Q40.98075,24.293792370605466,40.96158,24.39019237060547Q40.94241,24.486592370605468,40.91389,24.58059237060547Q40.88537,24.674592370605467,40.84777,24.76539237060547Q40.81017,24.856092370605467,40.76385,24.942792370605467Q40.71753,25.029492370605467,40.66295,25.11109237060547Q40.60836,25.192792370605467,40.54603,25.268792370605468Q40.4837,25.34469237060547,40.41422,25.41419237060547Q40.34475,25.483692370605468,40.26879,25.545992370605468Q40.192840000000004,25.60839237060547,40.11115,25.66289237060547Q40.02945,25.71749237060547,39.9428,25.76379237060547Q39.85615,25.81019237060547,39.76537,25.847792370605468Q39.6746,25.88539237060547,39.58058,25.913892370605467Q39.48655,25.942392370605468,39.39019,25.96159237060547Q39.29382,25.980692370605468,39.196039999999996,25.99039237060547Q39.098259999999996,25.99999237060547,39.00001,25.99999237060547ZM41.00001,23.99999237060547Q41.00001,24.09829237060547,40.99038,24.195992370605467Q40.98075,24.293792370605466,40.96158,24.39019237060547Q40.94241,24.486592370605468,40.91389,24.58059237060547Q40.88537,24.674592370605467,40.84777,24.76539237060547Q40.81017,24.856092370605467,40.76385,24.942792370605467Q40.71753,25.029492370605467,40.66295,25.11109237060547Q40.60836,25.192792370605467,40.54603,25.268792370605468Q40.4837,25.34469237060547,40.41422,25.41419237060547Q40.34475,25.483692370605468,40.26879,25.545992370605468Q40.192840000000004,25.60839237060547,40.11115,25.66289237060547Q40.02945,25.71749237060547,39.9428,25.76379237060547Q39.85615,25.81019237060547,39.76537,25.847792370605468Q39.6746,25.88539237060547,39.58058,25.913892370605467Q39.48655,25.942392370605468,39.39019,25.96159237060547Q39.29382,25.980692370605468,39.196039999999996,25.99039237060547Q39.098259999999996,25.99999237060547,39.00001,25.99999237060547Q38.90175,25.99999237060547,38.80397,25.99039237060547Q38.70619,25.980692370605468,38.60983,25.96159237060547Q38.51346,25.942392370605468,38.41944,25.913892370605467Q38.32541,25.88539237060547,38.23464,25.847792370605468Q38.14387,25.81019237060547,38.05721,25.76379237060547Q37.97056,25.71749237060547,37.88887,25.66289237060547Q37.80717,25.60839237060547,37.73122,25.545992370605468Q37.65527,25.483692370605468,37.58579,25.41419237060547Q37.51632,25.34469237060547,37.45399,25.268792370605468Q37.39166,25.192792370605467,37.33707,25.11109237060547Q37.28248,25.029492370605467,37.23616,24.942792370605467Q37.18985,24.856092370605467,37.15225,24.76539237060547Q37.11465,24.674592370605467,37.08613,24.58059237060547Q37.05761,24.486592370605468,37.03844,24.39019237060547Q37.01927,24.293792370605466,37.00964,24.195992370605467Q37.00001,24.09829237060547,37.00001,23.99999237060547Q37.00001,23.901752370605468,37.00964,23.80396237060547Q37.01927,23.706182370605468,37.03844,23.60982237060547Q37.05761,23.51345237060547,37.08613,23.41943237060547Q37.11465,23.325402370605467,37.15225,23.234632370605468Q37.18985,23.14385237060547,37.23616,23.057202370605467Q37.28248,22.970552370605468,37.33707,22.88886237060547Q37.39165,22.807162370605468,37.45399,22.73121237060547Q37.51632,22.65526237060547,37.58579,22.585782370605468Q37.65527,22.51631237060547,37.73122,22.453982370605466Q37.80717,22.391642370605467,37.88887,22.33706237060547Q37.97056,22.28247237060547,38.05721,22.23616237060547Q38.14387,22.18984237060547,38.23464,22.15224237060547Q38.32541,22.114642370605466,38.41944,22.08612237060547Q38.51346,22.05760237060547,38.60983,22.03843237060547Q38.70619,22.019262370605468,38.80397,22.009632370605466Q38.90175,22.00000237060547,39.00001,22.00000237060547Q39.098259999999996,22.00000237060547,39.196039999999996,22.009632370605466Q39.29382,22.019262370605468,39.39019,22.03843237060547Q39.48655,22.05760237060547,39.58058,22.08612237060547Q39.6746,22.114642370605466,39.76537,22.15224237060547Q39.85615,22.18984237060547,39.9428,22.23616237060547Q40.02945,22.28247237060547,40.11115,22.33706237060547Q40.192840000000004,22.391642370605467,40.26879,22.453982370605466Q40.34475,22.51631237060547,40.41422,22.585782370605468Q40.4837,22.65526237060547,40.54603,22.73121237060547Q40.60836,22.807162370605468,40.66295,22.88886237060547Q40.71753,22.970552370605468,40.76385,23.057202370605467Q40.81017,23.14385237060547,40.84777,23.234632370605468Q40.88537,23.325402370605467,40.91389,23.41943237060547Q40.94241,23.51345237060547,40.96158,23.60982237060547Q40.98075,23.706182370605468,40.99038,23.80396237060547Q41.00001,23.901752370605468,41.00001,23.99999237060547ZM51,23.99999237060547Q51,24.09829237060547,50.9904,24.195992370605467Q50.9807,24.293792370605466,50.961600000000004,24.39019237060547Q50.9424,24.486592370605468,50.9139,24.58059237060547Q50.885400000000004,24.674592370605467,50.8478,24.76539237060547Q50.810199999999995,24.856092370605467,50.7638,24.942792370605467Q50.7175,25.029492370605467,50.6629,25.11109237060547Q50.6084,25.192792370605467,50.546,25.268792370605468Q50.4837,25.34469237060547,50.4142,25.41419237060547Q50.3447,25.483692370605468,50.2688,25.545992370605468Q50.1928,25.60839237060547,50.1111,25.66289237060547Q50.0295,25.71749237060547,49.9428,25.76379237060547Q49.8561,25.81019237060547,49.7654,25.847792370605468Q49.6746,25.88539237060547,49.580600000000004,25.913892370605467Q49.486599999999996,25.942392370605468,49.3902,25.96159237060547Q49.2938,25.980692370605468,49.196,25.99039237060547Q49.0983,25.99999237060547,49,25.99999237060547Q48.9018,25.99999237060547,48.804,25.99039237060547Q48.7062,25.980692370605468,48.6098,25.96159237060547Q48.5135,25.942392370605468,48.419399999999996,25.913892370605467Q48.3254,25.88539237060547,48.2346,25.847792370605468Q48.1439,25.81019237060547,48.0572,25.76379237060547Q47.9706,25.71749237060547,47.8889,25.66289237060547Q47.8072,25.60839237060547,47.7312,25.545992370605468Q47.6553,25.483692370605468,47.5858,25.41419237060547Q47.5163,25.34469237060547,47.454,25.268792370605468Q47.3917,25.192792370605467,47.3371,25.11109237060547Q47.2825,25.029492370605467,47.2362,24.942792370605467Q47.1898,24.856092370605467,47.1522,24.76539237060547Q47.114599999999996,24.674592370605467,47.0861,24.58059237060547Q47.0576,24.486592370605468,47.038399999999996,24.39019237060547Q47.0193,24.293792370605466,47.0096,24.195992370605467Q47,24.09829237060547,47,23.99999237060547Q47,23.901752370605468,47.0096,23.80396237060547Q47.0193,23.706182370605468,47.038399999999996,23.60982237060547Q47.0576,23.51345237060547,47.0861,23.41943237060547Q47.114599999999996,23.325402370605467,47.1522,23.234632370605468Q47.1898,23.14385237060547,47.2362,23.057202370605467Q47.2825,22.970552370605468,47.3371,22.88886237060547Q47.3917,22.807162370605468,47.454,22.73121237060547Q47.5163,22.65526237060547,47.5858,22.585782370605468Q47.6553,22.51631237060547,47.7312,22.453982370605466Q47.8072,22.391642370605467,47.8889,22.33706237060547Q47.9706,22.28247237060547,48.0572,22.23616237060547Q48.1439,22.18984237060547,48.2346,22.15224237060547Q48.3254,22.114642370605466,48.419399999999996,22.08612237060547Q48.5135,22.05760237060547,48.6098,22.03843237060547Q48.7062,22.019262370605468,48.804,22.009632370605466Q48.9018,22.00000237060547,49,22.00000237060547Q49.0983,22.00000237060547,49.196,22.009632370605466Q49.2938,22.019262370605468,49.3902,22.03843237060547Q49.486599999999996,22.05760237060547,49.580600000000004,22.08612237060547Q49.6746,22.114642370605466,49.7654,22.15224237060547Q49.8561,22.18984237060547,49.9428,22.23616237060547Q50.0295,22.28247237060547,50.1111,22.33706237060547Q50.1928,22.391642370605467,50.2688,22.453982370605466Q50.3447,22.51631237060547,50.4142,22.585782370605468Q50.4837,22.65526237060547,50.546,22.73121237060547Q50.6084,22.807162370605468,50.6629,22.88886237060547Q50.7175,22.970552370605468,50.7638,23.057202370605467Q50.810199999999995,23.14385237060547,50.8478,23.234632370605468Q50.885400000000004,23.325402370605467,50.9139,23.41943237060547Q50.9424,23.51345237060547,50.961600000000004,23.60982237060547Q50.9807,23.706182370605468,50.9904,23.80396237060547Q51,23.901752370605468,51,23.99999237060547Z" fill="#660874" fill-opacity="1"/></g></g></svg>