<svg xmlns="http://www.w3.org/2000/svg" xmlns:xlink="http://www.w3.org/1999/xlink" fill="none" version="1.1" width="48" height="48" viewBox="0 0 48 48"><defs><clipPath id="master_svg0_502_372"><rect x="0" y="0" width="48" height="48" rx="0"/></clipPath></defs><g clip-path="url(#master_svg0_502_372)"><g><rect x="0" y="0" width="48" height="48" rx="0" fill="#FFFFFF" fill-opacity="0.009999999776482582"/></g><g><path d="M22.71963,29.46356L28.719630000000002,24.46356L30,26L28.719630000000002,27.53644L22.71963,22.53644Q22.64415,22.47354,22.5752,22.40355Q22.50625,22.33355,22.444490000000002,22.25713Q22.38273,22.18072,22.32876,22.09861Q22.27479,22.01651,22.22912,21.929512Q22.18346,21.842514,22.14654,21.75146Q22.10962,21.660405,22.08181,21.56617Q22.054,21.471936,22.03555,21.375429Q22.01711,21.278922,22.00821,21.181071Q21.99932,21.0832213,22.00006,20.9849704Q22.00079,20.886719,22.01116,20.789014Q22.02153,20.691309,22.04142,20.59509Q22.06131,20.498871,22.09054,20.405065Q22.11976,20.311259,22.15804,20.220769Q22.19633,20.13028,22.243290000000002,20.043978Q22.29026,19.95768,22.34546,19.87639Q22.40066,19.79511,22.46356,19.71963Q22.52646,19.64415,22.59645,19.5752Q22.66645,19.50625,22.74287,19.444490000000002Q22.81928,19.38273,22.90139,19.32876Q22.98349,19.27479,23.070488,19.22912Q23.157486,19.18346,23.24854,19.14654Q23.339595,19.10962,23.43383,19.08181Q23.528064,19.054,23.624571,19.03555Q23.721078,19.01711,23.818929,19.00821Q23.9167787,18.99932,24.0150296,19.00006Q24.113281,19.00079,24.210986,19.01116Q24.308691,19.02153,24.40491,19.04142Q24.501129,19.06131,24.594935,19.09054Q24.688741,19.11976,24.779231,19.15804Q24.86972,19.19633,24.956022,19.243290000000002Q25.04232,19.29026,25.12361,19.34546Q25.20489,19.40066,25.28037,19.46356L31.280369999999998,24.46356Q31.42005,24.57995,31.53644,24.71963Q31.599339999999998,24.79511,31.65454,24.87639Q31.70974,24.95768,31.756709999999998,25.04398Q31.80367,25.13028,31.84196,25.22077Q31.88024,25.31126,31.90946,25.40506Q31.93869,25.49887,31.95858,25.59509Q31.97847,25.69131,31.98884,25.78901Q31.999200000000002,25.88672,31.99994,25.98497Q32.00068,26.08322,31.99179,26.18107Q31.98289,26.27892,31.96445,26.37543Q31.945999999999998,26.47194,31.91819,26.56617Q31.89037,26.6604,31.85346,26.75146Q31.81654,26.84251,31.77088,26.92951Q31.72521,27.01651,31.67124,27.09861Q31.61727,27.18071,31.555509999999998,27.25713Q31.49375,27.33355,31.4248,27.40355Q31.35585,27.47354,31.280369999999998,27.53644L25.28037,32.5364Q25.20489,32.5993,25.12361,32.6545Q25.04232,32.7097,24.956022,32.7567Q24.86972,32.8037,24.779231,32.842Q24.688741,32.8802,24.594935,32.9095Q24.501129,32.9387,24.40491,32.958600000000004Q24.308691,32.9785,24.210986,32.9888Q24.113281,32.9992,24.0150296,32.9999Q23.9167787,33.0007,23.818929,32.9918Q23.721078,32.9829,23.624571,32.9644Q23.528064,32.946,23.43383,32.9182Q23.339595,32.8904,23.24854,32.8535Q23.157486,32.8165,23.070488,32.7709Q22.98349,32.7252,22.90139,32.6712Q22.81928,32.6173,22.74287,32.5555Q22.66645,32.4938,22.59645,32.4248Q22.52646,32.3559,22.46356,32.2804Q22.40066,32.2049,22.34546,32.123599999999996Q22.29026,32.0423,22.243290000000002,31.956Q22.19633,31.8697,22.15804,31.7792Q22.11976,31.6887,22.09054,31.594900000000003Q22.06131,31.5011,22.04142,31.404899999999998Q22.02153,31.3087,22.01116,31.211Q22.000799999999998,31.113300000000002,22.00006,31.015Q21.99932,30.91678,22.00821,30.81893Q22.01711,30.72108,22.03555,30.62457Q22.054,30.52806,22.08181,30.43383Q22.10962,30.33959,22.14654,30.24854Q22.18346,30.15749,22.22912,30.07049Q22.27479,29.98349,22.32876,29.90139Q22.38273,29.81928,22.444490000000002,29.74287Q22.50625,29.666449999999998,22.5752,29.59645Q22.64415,29.52646,22.71963,29.46356ZM26,31Q26,31.098300000000002,25.99037,31.195999999999998Q25.98074,31.293799999999997,25.961570000000002,31.3902Q25.9424,31.4865,25.91388,31.5806Q25.88536,31.674599999999998,25.84776,31.7654Q25.81016,31.856099999999998,25.763840000000002,31.9428Q25.71753,32.0294,25.66294,32.1111Q25.60835,32.1928,25.54602,32.2688Q25.48369,32.3447,25.41421,32.4142Q25.34474,32.4837,25.26879,32.546Q25.19284,32.6084,25.11114,32.6629Q25.02945,32.7175,24.942793,32.7638Q24.856141,32.8102,24.765367,32.8478Q24.674592,32.885400000000004,24.580569,32.9139Q24.486546,32.9424,24.390181,32.961600000000004Q24.293815,32.9807,24.196034,32.9904Q24.0982537,33,24,33Q23.9017463,33,23.803966,32.9904Q23.706185,32.9807,23.609819,32.961600000000004Q23.513454,32.9424,23.419431,32.9139Q23.325408,32.885400000000004,23.234633,32.8478Q23.143859,32.8102,23.057207,32.7638Q22.97055,32.7175,22.88886,32.6629Q22.80716,32.6084,22.73121,32.546Q22.65526,32.4837,22.58579,32.4142Q22.51631,32.3447,22.45398,32.2688Q22.39165,32.1928,22.33706,32.1111Q22.28247,32.0294,22.236159999999998,31.9428Q22.18984,31.856099999999998,22.15224,31.7654Q22.11464,31.674599999999998,22.08612,31.5806Q22.0576,31.4865,22.038429999999998,31.3902Q22.01926,31.293799999999997,22.00963,31.195999999999998Q22,31.098300000000002,22,31Q22,30.90175,22.00963,30.80397Q22.01926,30.70619,22.038429999999998,30.60982Q22.0576,30.51345,22.08612,30.41943Q22.11464,30.325409999999998,22.15224,30.23463Q22.18984,30.14386,22.236159999999998,30.057209999999998Q22.28247,29.97055,22.33706,29.88886Q22.39165,29.80716,22.45398,29.73121Q22.51631,29.65526,22.58579,29.58579Q22.65526,29.51631,22.73121,29.45398Q22.80716,29.39165,22.88886,29.33706Q22.97055,29.28247,23.057207,29.236159999999998Q23.143859,29.18984,23.234633,29.15224Q23.325408,29.11464,23.419431,29.08612Q23.513454,29.0576,23.609819,29.038429999999998Q23.706185,29.01926,23.803966,29.00963Q23.9017463,29,24,29Q24.0982537,29,24.196034,29.00963Q24.293815,29.01926,24.390181,29.038429999999998Q24.486546,29.0576,24.580569,29.08612Q24.674592,29.11464,24.765367,29.15224Q24.856141,29.18984,24.942793,29.236159999999998Q25.02945,29.28247,25.11114,29.33706Q25.19284,29.39165,25.26879,29.45398Q25.34474,29.51631,25.41421,29.58579Q25.48369,29.65526,25.54602,29.73121Q25.60835,29.80716,25.66294,29.88886Q25.71753,29.97056,25.763840000000002,30.057209999999998Q25.81016,30.14386,25.84776,30.23463Q25.88536,30.325409999999998,25.91388,30.41943Q25.9424,30.51345,25.961570000000002,30.60982Q25.98074,30.70619,25.99037,30.80397Q26,30.90175,26,31ZM26,21Q26,21.0982537,25.99037,21.196034Q25.98074,21.293815,25.961570000000002,21.390181Q25.9424,21.486546,25.91388,21.580569Q25.88536,21.674592,25.84776,21.765367Q25.81016,21.856141,25.763840000000002,21.942793Q25.71753,22.02945,25.66294,22.11114Q25.60835,22.19284,25.54602,22.26879Q25.48369,22.34474,25.41421,22.41421Q25.34474,22.48369,25.26879,22.54602Q25.19284,22.60835,25.11114,22.66294Q25.02945,22.71753,24.942793,22.763840000000002Q24.856141,22.81016,24.765367,22.84776Q24.674592,22.88536,24.580569,22.91388Q24.486546,22.9424,24.390181,22.961570000000002Q24.293815,22.98074,24.196034,22.99037Q24.0982537,23,24,23Q23.9017463,23,23.803966,22.99037Q23.706185,22.98074,23.609819,22.961570000000002Q23.513454,22.9424,23.419431,22.91388Q23.325408,22.88536,23.234633,22.84776Q23.143859,22.81016,23.057207,22.763840000000002Q22.97055,22.71753,22.88886,22.66294Q22.80716,22.60835,22.73121,22.54602Q22.65526,22.48369,22.58579,22.41421Q22.51631,22.34474,22.45398,22.26879Q22.39165,22.19284,22.33706,22.11114Q22.28247,22.02945,22.236159999999998,21.942793Q22.18984,21.856141,22.15224,21.765367Q22.11464,21.674592,22.08612,21.580569Q22.0576,21.486546,22.038429999999998,21.390181Q22.01926,21.293815,22.00963,21.196034Q22,21.0982537,22,21Q22,20.9017463,22.00963,20.803966Q22.01926,20.706185,22.038429999999998,20.609819Q22.0576,20.513454,22.08612,20.419431Q22.11464,20.325408,22.15224,20.234633Q22.18984,20.143859,22.236159999999998,20.057207Q22.28247,19.97055,22.33706,19.88886Q22.39165,19.80716,22.45398,19.73121Q22.51631,19.65526,22.58579,19.58579Q22.65526,19.51631,22.73121,19.45398Q22.80716,19.39165,22.88886,19.33706Q22.97055,19.28247,23.057207,19.236159999999998Q23.143859,19.18984,23.234633,19.15224Q23.325408,19.11464,23.419431,19.08612Q23.513454,19.0576,23.609819,19.038429999999998Q23.706185,19.01926,23.803966,19.00963Q23.9017463,19,24,19Q24.0982537,19,24.196034,19.00963Q24.293815,19.01926,24.390181,19.038429999999998Q24.486546,19.0576,24.580569,19.08612Q24.674592,19.11464,24.765367,19.15224Q24.856141,19.18984,24.942793,19.236159999999998Q25.02945,19.28247,25.11114,19.33706Q25.19284,19.39165,25.26879,19.45398Q25.34474,19.51631,25.41421,19.58579Q25.48369,19.65526,25.54602,19.73121Q25.60835,19.80716,25.66294,19.88886Q25.71753,19.97055,25.763840000000002,20.057207Q25.81016,20.143859,25.84776,20.234633Q25.88536,20.325408,25.91388,20.419431Q25.9424,20.513454,25.961570000000002,20.609819Q25.98074,20.706185,25.99037,20.803966Q26,20.9017463,26,21Z" fill="#660874" fill-opacity="1"/></g><g><path d="M11,44L11,10Q11,9.9017463,11.00963,9.803966Q11.01926,9.706185,11.03843,9.609819Q11.0576,9.513454,11.08612,9.419431Q11.11464,9.325408,11.152239999999999,9.234633Q11.18984,9.143858999999999,11.23616,9.057207Q11.28247,8.97055,11.33706,8.88886Q11.39165,8.80716,11.45398,8.73121Q11.51631,8.65526,11.58579,8.58579Q11.65526,8.51631,11.73121,8.45398Q11.80716,8.39165,11.88886,8.33706Q11.97055,8.28247,12.057207,8.23616Q12.143858999999999,8.18984,12.234633,8.152239999999999Q12.325408,8.11464,12.419431,8.08612Q12.513454,8.0576,12.609819,8.03843Q12.706185,8.01926,12.803966,8.00963Q12.9017463,8,13,8L41,8Q41.098299999999995,8,41.196,8.00963Q41.293800000000005,8.01926,41.3902,8.03843Q41.4865,8.0576,41.580600000000004,8.08612Q41.6746,8.11464,41.7654,8.152239999999999Q41.8561,8.18984,41.9428,8.23616Q42.029399999999995,8.28247,42.1111,8.33706Q42.1928,8.39165,42.2688,8.45398Q42.3447,8.51631,42.4142,8.58579Q42.4837,8.65526,42.546,8.73121Q42.6084,8.80716,42.6629,8.88886Q42.7175,8.97055,42.7638,9.057207Q42.810199999999995,9.143858999999999,42.8478,9.234633Q42.885400000000004,9.325408,42.9139,9.419431Q42.9424,9.513454,42.961600000000004,9.609819Q42.9807,9.706185,42.9904,9.803966Q43,9.9017463,43,10L43,44Q43,44.0983,42.9904,44.196Q42.9807,44.2938,42.961600000000004,44.3902Q42.9424,44.4865,42.9139,44.5806Q42.885400000000004,44.6746,42.8478,44.7654Q42.810199999999995,44.8561,42.7638,44.9428Q42.7175,45.0294,42.6629,45.1111Q42.6083,45.1928,42.546,45.2688Q42.4837,45.3447,42.4142,45.4142Q42.3447,45.4837,42.2688,45.546Q42.1928,45.6084,42.1111,45.6629Q42.029399999999995,45.7175,41.9428,45.7638Q41.8561,45.8102,41.7654,45.8478Q41.6746,45.8854,41.580600000000004,45.9139Q41.4865,45.9424,41.3902,45.9616Q41.293800000000005,45.9807,41.196,45.9904Q41.098299999999995,46,41,46L13,46Q12.9017463,46,12.803966,45.9904Q12.706185,45.9807,12.609819,45.9616Q12.513454,45.9424,12.419431,45.9139Q12.325408,45.8854,12.234633,45.8478Q12.143858999999999,45.8102,12.057207,45.7638Q11.97055,45.7175,11.88886,45.6629Q11.80716,45.6083,11.73121,45.546Q11.65526,45.4837,11.58579,45.4142Q11.51631,45.3447,11.45398,45.2688Q11.39165,45.1928,11.33706,45.1111Q11.28247,45.0294,11.23616,44.9428Q11.18984,44.8561,11.152239999999999,44.7654Q11.11464,44.6746,11.08612,44.5806Q11.0576,44.4865,11.03843,44.3902Q11.01926,44.2938,11.00963,44.196Q11,44.0983,11,44ZM15,12L15,42L39,42L39,12L15,12Z" fill="#660874" fill-opacity="1"/></g><g><path d="M13,40L7,40Q6.9017463,40,6.803966,39.9904Q6.706185,39.9807,6.609819,39.9616Q6.513454,39.9424,6.419431,39.9139Q6.325408,39.8854,6.234633,39.8478Q6.143859,39.8102,6.057207,39.7638Q5.97055,39.7175,5.88886,39.6629Q5.80716,39.6083,5.73121,39.546Q5.65526,39.4837,5.58579,39.4142Q5.51631,39.3447,5.45398,39.2688Q5.39165,39.1928,5.33706,39.1111Q5.28247,39.0294,5.23616,38.9428Q5.18984,38.8561,5.15224,38.7654Q5.11464,38.6746,5.08612,38.5806Q5.0576,38.4865,5.03843,38.3902Q5.01926,38.2938,5.00963,38.196Q5,38.0983,5,38L5,5Q5,3.757363,5.87868,2.87868Q6.757363,2,8,2L35,2Q35.098299999999995,2,35.196,2.00963Q35.293800000000005,2.01926,35.3902,2.03843Q35.4865,2.0576,35.580600000000004,2.08612Q35.6746,2.11464,35.7654,2.15224Q35.8561,2.1898400000000002,35.9428,2.23616Q36.029399999999995,2.28247,36.1111,2.33706Q36.1928,2.3916500000000003,36.2688,2.45398Q36.3447,2.51631,36.4142,2.5857900000000003Q36.4837,2.65526,36.546,2.73121Q36.6084,2.80716,36.6629,2.88886Q36.7175,2.9705500000000002,36.7638,3.057207Q36.810199999999995,3.143859,36.8478,3.234633Q36.885400000000004,3.325408,36.9139,3.419431Q36.9424,3.513454,36.961600000000004,3.609819Q36.9807,3.706185,36.9904,3.803966Q37,3.9017463,37,4L37,10Q37,10.09825,36.9904,10.19603Q36.9807,10.29381,36.961600000000004,10.39018Q36.9424,10.486550000000001,36.9139,10.58057Q36.885400000000004,10.67459,36.8478,10.76537Q36.810199999999995,10.85614,36.7638,10.942789999999999Q36.7175,11.02945,36.6629,11.111139999999999Q36.6083,11.19284,36.546,11.26879Q36.4837,11.34474,36.4142,11.41421Q36.3447,11.48369,36.2688,11.54602Q36.1928,11.60835,36.1111,11.662939999999999Q36.029399999999995,11.71753,35.9428,11.76384Q35.8561,11.81016,35.7654,11.847760000000001Q35.6746,11.88536,35.580600000000004,11.913879999999999Q35.4865,11.9424,35.3902,11.96157Q35.293800000000005,11.98074,35.196,11.99037Q35.098299999999995,12,35,12Q34.901700000000005,12,34.804,11.99037Q34.706199999999995,11.98074,34.6098,11.96157Q34.5135,11.9424,34.419399999999996,11.913879999999999Q34.3254,11.88536,34.2346,11.847760000000001Q34.1439,11.81016,34.0572,11.76384Q33.970600000000005,11.71753,33.8889,11.662939999999999Q33.8072,11.60835,33.7312,11.54602Q33.6553,11.48369,33.5858,11.41421Q33.5163,11.34474,33.454,11.26879Q33.3916,11.19284,33.3371,11.111139999999999Q33.2825,11.029440000000001,33.2362,10.942789999999999Q33.189800000000005,10.85614,33.1522,10.76537Q33.114599999999996,10.67459,33.0861,10.58057Q33.0576,10.486550000000001,33.038399999999996,10.39018Q33.0193,10.29381,33.0096,10.19603Q33,10.09825,33,10L33,4L35,4L35,6L8,6Q9,6,9,5L9,38L7,38L7,36L13,36Q13.09825,36,13.19603,36.0096Q13.29381,36.0193,13.39018,36.0384Q13.486550000000001,36.0576,13.58057,36.0861Q13.67459,36.1146,13.76537,36.1522Q13.85614,36.1898,13.942789999999999,36.2362Q14.02945,36.2825,14.111139999999999,36.3371Q14.19284,36.3916,14.26879,36.454Q14.34474,36.5163,14.41421,36.5858Q14.48369,36.6553,14.54602,36.7312Q14.60835,36.8072,14.662939999999999,36.8889Q14.71753,36.9706,14.76384,37.0572Q14.81016,37.1439,14.847760000000001,37.2346Q14.88536,37.3254,14.913879999999999,37.4194Q14.9424,37.5135,14.96157,37.6098Q14.98074,37.7062,14.99037,37.804Q15,37.9017,15,38Q15,38.0983,14.99037,38.196Q14.98074,38.2938,14.96157,38.3902Q14.9424,38.4865,14.913879999999999,38.5806Q14.88536,38.6746,14.847760000000001,38.7654Q14.81016,38.8561,14.76384,38.9428Q14.71753,39.0294,14.662939999999999,39.1111Q14.60835,39.1928,14.54602,39.2688Q14.48369,39.3447,14.41421,39.4142Q14.34474,39.4837,14.26879,39.546Q14.19284,39.6084,14.111139999999999,39.6629Q14.029440000000001,39.7175,13.942789999999999,39.7638Q13.85614,39.8102,13.76537,39.8478Q13.67459,39.8854,13.58057,39.9139Q13.486550000000001,39.9424,13.39018,39.9616Q13.29381,39.9807,13.19603,39.9904Q13.09825,40,13,40ZM15,38Q15,38.0983,14.99037,38.196Q14.98074,38.2938,14.96157,38.3902Q14.9424,38.4865,14.913879999999999,38.5806Q14.88536,38.6746,14.847760000000001,38.7654Q14.81016,38.8561,14.76384,38.9428Q14.71753,39.0294,14.662939999999999,39.1111Q14.60835,39.1928,14.54602,39.2688Q14.48369,39.3447,14.41421,39.4142Q14.34474,39.4837,14.26879,39.546Q14.19284,39.6084,14.111139999999999,39.6629Q14.029440000000001,39.7175,13.942789999999999,39.7638Q13.85614,39.8102,13.76537,39.8478Q13.67459,39.8854,13.58057,39.9139Q13.486550000000001,39.9424,13.39018,39.9616Q13.29381,39.9807,13.19603,39.9904Q13.09825,40,13,40Q12.90175,40,12.80397,39.9904Q12.70618,39.9807,12.60982,39.9616Q12.513449999999999,39.9424,12.41943,39.9139Q12.32541,39.8854,12.23463,39.8478Q12.14386,39.8102,12.057210000000001,39.7638Q11.97055,39.7175,11.888860000000001,39.6629Q11.80716,39.6083,11.73121,39.546Q11.65526,39.4837,11.58579,39.4142Q11.51631,39.3447,11.45398,39.2688Q11.39165,39.1928,11.337060000000001,39.1111Q11.28247,39.0294,11.23616,38.9428Q11.18984,38.8561,11.152239999999999,38.7654Q11.11464,38.6746,11.086120000000001,38.5806Q11.0576,38.4865,11.03843,38.3902Q11.01926,38.2938,11.00963,38.196Q11,38.0983,11,38Q11,37.9017,11.00963,37.804Q11.01926,37.7062,11.03843,37.6098Q11.0576,37.5135,11.086120000000001,37.4194Q11.11464,37.3254,11.152239999999999,37.2346Q11.18984,37.1439,11.23616,37.0572Q11.28247,36.9706,11.337060000000001,36.8889Q11.39165,36.8072,11.45398,36.7312Q11.51631,36.6553,11.58579,36.5858Q11.65526,36.5163,11.73121,36.454Q11.80716,36.3916,11.888860000000001,36.3371Q11.97055,36.2825,12.057210000000001,36.2362Q12.14386,36.1898,12.23463,36.1522Q12.32541,36.1146,12.41943,36.0861Q12.513449999999999,36.0576,12.60982,36.0384Q12.70618,36.0193,12.80397,36.0096Q12.90175,36,13,36Q13.09825,36,13.19603,36.0096Q13.29381,36.0193,13.39018,36.0384Q13.486550000000001,36.0576,13.58057,36.0861Q13.67459,36.1146,13.76537,36.1522Q13.85614,36.1898,13.942789999999999,36.2362Q14.02945,36.2825,14.111139999999999,36.3371Q14.19284,36.3916,14.26879,36.454Q14.34474,36.5163,14.41421,36.5858Q14.48369,36.6553,14.54602,36.7312Q14.60835,36.8072,14.662939999999999,36.8889Q14.71753,36.9706,14.76384,37.0572Q14.81016,37.1439,14.847760000000001,37.2346Q14.88536,37.3254,14.913879999999999,37.4194Q14.9424,37.5135,14.96157,37.6098Q14.98074,37.7062,14.99037,37.804Q15,37.9017,15,38ZM37,10Q37,10.09825,36.9904,10.19603Q36.9807,10.29381,36.961600000000004,10.39018Q36.9424,10.486550000000001,36.9139,10.58057Q36.885400000000004,10.67459,36.8478,10.76537Q36.810199999999995,10.85614,36.7638,10.942789999999999Q36.7175,11.02945,36.6629,11.111139999999999Q36.6083,11.19284,36.546,11.26879Q36.4837,11.34474,36.4142,11.41421Q36.3447,11.48369,36.2688,11.54602Q36.1928,11.60835,36.1111,11.662939999999999Q36.029399999999995,11.71753,35.9428,11.76384Q35.8561,11.81016,35.7654,11.847760000000001Q35.6746,11.88536,35.580600000000004,11.913879999999999Q35.4865,11.9424,35.3902,11.96157Q35.293800000000005,11.98074,35.196,11.99037Q35.098299999999995,12,35,12Q34.901700000000005,12,34.804,11.99037Q34.706199999999995,11.98074,34.6098,11.96157Q34.5135,11.9424,34.419399999999996,11.913879999999999Q34.3254,11.88536,34.2346,11.847760000000001Q34.1439,11.81016,34.0572,11.76384Q33.970600000000005,11.71753,33.8889,11.662939999999999Q33.8072,11.60835,33.7312,11.54602Q33.6553,11.48369,33.5858,11.41421Q33.5163,11.34474,33.454,11.26879Q33.3916,11.19284,33.3371,11.111139999999999Q33.2825,11.029440000000001,33.2362,10.942789999999999Q33.189800000000005,10.85614,33.1522,10.76537Q33.114599999999996,10.67459,33.0861,10.58057Q33.0576,10.486550000000001,33.038399999999996,10.39018Q33.0193,10.29381,33.0096,10.19603Q33,10.09825,33,10Q33,9.90175,33.0096,9.80397Q33.0193,9.70618,33.038399999999996,9.60982Q33.0576,9.513449999999999,33.0861,9.41943Q33.114599999999996,9.32541,33.1522,9.23463Q33.189800000000005,9.14386,33.2362,9.057210000000001Q33.2825,8.97055,33.3371,8.888860000000001Q33.3916,8.80716,33.454,8.73121Q33.5163,8.65526,33.5858,8.58579Q33.6553,8.51631,33.7312,8.45398Q33.8072,8.39165,33.8889,8.337060000000001Q33.970600000000005,8.28247,34.0572,8.23616Q34.1439,8.18984,34.2346,8.152239999999999Q34.3254,8.11464,34.419399999999996,8.086120000000001Q34.5135,8.0576,34.6098,8.03843Q34.706199999999995,8.01926,34.804,8.00963Q34.901700000000005,8,35,8Q35.098299999999995,8,35.196,8.00963Q35.293800000000005,8.01926,35.3902,8.03843Q35.4865,8.0576,35.580600000000004,8.086120000000001Q35.6746,8.11464,35.7654,8.152239999999999Q35.8561,8.18984,35.9428,8.23616Q36.029399999999995,8.28247,36.1111,8.337060000000001Q36.1928,8.39165,36.2688,8.45398Q36.3447,8.51631,36.4142,8.58579Q36.4837,8.65526,36.546,8.73121Q36.6084,8.80716,36.6629,8.888860000000001Q36.7175,8.97055,36.7638,9.057210000000001Q36.810199999999995,9.14386,36.8478,9.23463Q36.885400000000004,9.32541,36.9139,9.41943Q36.9424,9.513449999999999,36.961600000000004,9.60982Q36.9807,9.70618,36.9904,9.80397Q37,9.90175,37,10Z" fill="#660874" fill-opacity="1"/></g></g></svg>