<svg xmlns="http://www.w3.org/2000/svg" xmlns:xlink="http://www.w3.org/1999/xlink" fill="none" version="1.1" width="48" height="48" viewBox="0 0 48 48"><defs><clipPath id="master_svg0_502_332"><rect x="0" y="0" width="48" height="48" rx="0"/></clipPath></defs><g clip-path="url(#master_svg0_502_332)"><g><path d="M40,24L40,8Q40,7.9017463,40.00963,7.803966Q40.01926,7.706185,40.03843,7.609819Q40.0576,7.513454,40.08612,7.419431Q40.11464,7.325408,40.15224,7.234633Q40.18984,7.143859,40.23616,7.057207Q40.28247,6.97055,40.33706,6.88886Q40.39165,6.80716,40.45398,6.73121Q40.51631,6.65526,40.58579,6.58579Q40.65526,6.51631,40.73121,6.45398Q40.80716,6.39165,40.88886,6.33706Q40.97055,6.28247,41.057207,6.23616Q41.143859,6.18984,41.234633,6.15224Q41.325408,6.11464,41.419431,6.08612Q41.513454,6.0576,41.609819,6.03843Q41.706185,6.01926,41.803966,6.00963Q41.9017463,6,42,6Q42.0982537,6,42.196034,6.00963Q42.293815,6.01926,42.390181,6.03843Q42.486546,6.0576,42.580569,6.08612Q42.674592,6.11464,42.765367,6.15224Q42.856141,6.18984,42.942793,6.23616Q43.02945,6.28247,43.11114,6.33706Q43.19284,6.39165,43.26879,6.45398Q43.34474,6.51631,43.41421,6.58579Q43.48369,6.65526,43.54602,6.73121Q43.60835,6.80716,43.66294,6.88886Q43.71753,6.97055,43.76384,7.057207Q43.81016,7.143859,43.84776,7.234633Q43.88536,7.325408,43.91388,7.419431Q43.9424,7.513454,43.96157,7.609819Q43.98074,7.706185,43.99037,7.803966Q44,7.9017463,44,8L44,24Q44,24.0983,43.99037,24.196Q43.98074,24.2938,43.96157,24.3902Q43.9424,24.4865,43.91388,24.5806Q43.88536,24.6746,43.84776,24.7654Q43.81016,24.8561,43.76384,24.9428Q43.71753,25.0294,43.66294,25.1111Q43.60835,25.1928,43.54602,25.2688Q43.48369,25.3447,43.41421,25.4142Q43.34474,25.4837,43.26879,25.546Q43.19284,25.6084,43.11114,25.6629Q43.02945,25.7175,42.942793,25.7638Q42.856141,25.8102,42.765367,25.8478Q42.674592,25.8854,42.580569,25.9139Q42.486546,25.9424,42.390181,25.9616Q42.293815,25.9807,42.196034,25.9904Q42.0982537,26,42,26Q41.9017463,26,41.803966,25.9904Q41.706185,25.9807,41.609819,25.9616Q41.513454,25.9424,41.419431,25.9139Q41.325408,25.8854,41.234633,25.8478Q41.143859,25.8102,41.057207,25.7638Q40.97055,25.7175,40.88886,25.6629Q40.80716,25.6084,40.73121,25.546Q40.65526,25.4837,40.58579,25.4142Q40.51631,25.3447,40.45398,25.2688Q40.39165,25.1928,40.33706,25.1111Q40.28247,25.0294,40.23616,24.9428Q40.18984,24.8561,40.15224,24.7654Q40.11464,24.6746,40.08612,24.5806Q40.0576,24.4865,40.03843,24.3902Q40.01926,24.2938,40.00963,24.196Q40,24.0983,40,24ZM44,24Q44,24.0983,43.99037,24.196Q43.98074,24.2938,43.96157,24.3902Q43.9424,24.4865,43.91388,24.5806Q43.88536,24.6746,43.84776,24.7654Q43.81016,24.8561,43.76384,24.9428Q43.71753,25.0294,43.66294,25.1111Q43.60835,25.1928,43.54602,25.2688Q43.48369,25.3447,43.41421,25.4142Q43.34474,25.4837,43.26879,25.546Q43.19284,25.6084,43.11114,25.6629Q43.02945,25.7175,42.942793,25.7638Q42.856141,25.8102,42.765367,25.8478Q42.674592,25.8854,42.580569,25.9139Q42.486546,25.9424,42.390181,25.9616Q42.293815,25.9807,42.196034,25.9904Q42.0982537,26,42,26Q41.9017463,26,41.803966,25.9904Q41.706185,25.9807,41.609819,25.9616Q41.513454,25.9424,41.419431,25.9139Q41.325408,25.8854,41.234633,25.8478Q41.143859,25.8102,41.057207,25.7638Q40.97055,25.7175,40.88886,25.6629Q40.80716,25.6084,40.73121,25.546Q40.65526,25.4837,40.58579,25.4142Q40.51631,25.3447,40.45398,25.2688Q40.39165,25.1928,40.33706,25.1111Q40.28247,25.0294,40.23616,24.9428Q40.18984,24.8561,40.15224,24.7654Q40.11464,24.6746,40.08612,24.5806Q40.0576,24.4865,40.03843,24.3902Q40.01926,24.2938,40.00963,24.196Q40,24.0983,40,24Q40,23.901699999999998,40.00963,23.804000000000002Q40.01926,23.706200000000003,40.03843,23.6098Q40.0576,23.5135,40.08612,23.4194Q40.11464,23.325400000000002,40.15224,23.2346Q40.18984,23.143900000000002,40.23616,23.0572Q40.28247,22.970599999999997,40.33706,22.8889Q40.39165,22.8072,40.45398,22.7312Q40.51631,22.6553,40.58579,22.5858Q40.65526,22.5163,40.73121,22.454Q40.80716,22.3916,40.88886,22.3371Q40.97055,22.2825,41.057207,22.2362Q41.143859,22.189799999999998,41.234633,22.1522Q41.325408,22.1146,41.419431,22.086100000000002Q41.513454,22.0576,41.609819,22.0384Q41.706185,22.0193,41.803966,22.0096Q41.9017463,22,42,22Q42.0982537,22,42.196034,22.0096Q42.293815,22.0193,42.390181,22.0384Q42.486546,22.0576,42.580569,22.086100000000002Q42.674592,22.1146,42.765367,22.1522Q42.856141,22.189799999999998,42.942793,22.2362Q43.02945,22.2825,43.11114,22.3371Q43.19284,22.3916,43.26879,22.454Q43.34474,22.5163,43.41421,22.5858Q43.48369,22.6553,43.54602,22.7312Q43.60835,22.8072,43.66294,22.8889Q43.71753,22.970599999999997,43.76384,23.0572Q43.81016,23.143900000000002,43.84776,23.2346Q43.88536,23.325400000000002,43.91388,23.4194Q43.9424,23.5135,43.96157,23.6098Q43.98074,23.706200000000003,43.99037,23.804000000000002Q44,23.901699999999998,44,24ZM44,8Q44,8.0982537,43.99037,8.196034Q43.98074,8.293815,43.96157,8.390181Q43.9424,8.486546,43.91388,8.580569Q43.88536,8.674592,43.84776,8.765367Q43.81016,8.856141000000001,43.76384,8.942793Q43.71753,9.02945,43.66294,9.11114Q43.60835,9.19284,43.54602,9.26879Q43.48369,9.34474,43.41421,9.41421Q43.34474,9.48369,43.26879,9.54602Q43.19284,9.60835,43.11114,9.66294Q43.02945,9.71753,42.942793,9.76384Q42.856141,9.81016,42.765367,9.847760000000001Q42.674592,9.88536,42.580569,9.91388Q42.486546,9.9424,42.390181,9.96157Q42.293815,9.98074,42.196034,9.99037Q42.0982537,10,42,10Q41.9017463,10,41.803966,9.99037Q41.706185,9.98074,41.609819,9.96157Q41.513454,9.9424,41.419431,9.91388Q41.325408,9.88536,41.234633,9.847760000000001Q41.143859,9.81016,41.057207,9.76384Q40.97055,9.71753,40.88886,9.66294Q40.80716,9.60835,40.73121,9.54602Q40.65526,9.48369,40.58579,9.41421Q40.51631,9.34474,40.45398,9.26879Q40.39165,9.19284,40.33706,9.11114Q40.28247,9.02945,40.23616,8.942793Q40.18984,8.856141000000001,40.15224,8.765367Q40.11464,8.674592,40.08612,8.580569Q40.0576,8.486546,40.03843,8.390181Q40.01926,8.293815,40.00963,8.196034Q40,8.0982537,40,8Q40,7.9017463,40.00963,7.803966Q40.01926,7.706185,40.03843,7.609819Q40.0576,7.513454,40.08612,7.419431Q40.11464,7.325408,40.15224,7.234633Q40.18984,7.143859,40.23616,7.057207Q40.28247,6.97055,40.33706,6.88886Q40.39165,6.80716,40.45398,6.73121Q40.51631,6.65526,40.58579,6.58579Q40.65526,6.51631,40.73121,6.45398Q40.80716,6.39165,40.88886,6.33706Q40.97055,6.28247,41.057207,6.23616Q41.143859,6.18984,41.234633,6.15224Q41.325408,6.11464,41.419431,6.08612Q41.513454,6.0576,41.609819,6.03843Q41.706185,6.01926,41.803966,6.00963Q41.9017463,6,42,6Q42.0982537,6,42.196034,6.00963Q42.293815,6.01926,42.390181,6.03843Q42.486546,6.0576,42.580569,6.08612Q42.674592,6.11464,42.765367,6.15224Q42.856141,6.18984,42.942793,6.23616Q43.02945,6.28247,43.11114,6.33706Q43.19284,6.39165,43.26879,6.45398Q43.34474,6.51631,43.41421,6.58579Q43.48369,6.65526,43.54602,6.73121Q43.60835,6.80716,43.66294,6.88886Q43.71753,6.97055,43.76384,7.057207Q43.81016,7.143859,43.84776,7.234633Q43.88536,7.325408,43.91388,7.419431Q43.9424,7.513454,43.96157,7.609819Q43.98074,7.706185,43.99037,7.803966Q44,7.9017463,44,8Z" fill="#660874" fill-opacity="1"/></g><g><path d="M4,40L4,24Q4,23.9017463,4.00963,23.803966Q4.01926,23.706185,4.03843,23.609819Q4.0576,23.513454,4.08612,23.419431Q4.11464,23.325408,4.15224,23.234633Q4.18984,23.143859,4.23616,23.057207Q4.28247,22.97055,4.33706,22.88886Q4.39165,22.80716,4.45398,22.73121Q4.51631,22.65526,4.58579,22.58579Q4.65526,22.51631,4.73121,22.45398Q4.80716,22.39165,4.88886,22.33706Q4.97055,22.28247,5.057207,22.236159999999998Q5.143859,22.18984,5.234633,22.15224Q5.325408,22.11464,5.419431,22.08612Q5.513454,22.0576,5.609819,22.038429999999998Q5.706185,22.01926,5.803966,22.00963Q5.9017463,22,6,22Q6.0982537,22,6.196034,22.00963Q6.293815,22.01926,6.390181,22.038429999999998Q6.486546,22.0576,6.580569,22.08612Q6.674592,22.11464,6.765367,22.15224Q6.856141,22.18984,6.942793,22.236159999999998Q7.02945,22.28247,7.11114,22.33706Q7.19284,22.39165,7.26879,22.45398Q7.34474,22.51631,7.41421,22.58579Q7.48369,22.65526,7.54602,22.73121Q7.60835,22.80716,7.66294,22.88886Q7.71753,22.97055,7.76384,23.057207Q7.81016,23.143859,7.84776,23.234633Q7.88536,23.325408,7.91388,23.419431Q7.9424,23.513454,7.96157,23.609819Q7.98074,23.706185,7.99037,23.803966Q8,23.9017463,8,24L8,40Q8,40.098299999999995,7.99037,40.196Q7.98074,40.293800000000005,7.96157,40.3902Q7.9424,40.4865,7.91388,40.580600000000004Q7.88536,40.6746,7.84776,40.7654Q7.81016,40.8561,7.76384,40.9428Q7.71753,41.029399999999995,7.66294,41.1111Q7.60835,41.1928,7.54602,41.2688Q7.48369,41.3447,7.41421,41.4142Q7.34474,41.4837,7.26879,41.546Q7.19284,41.6084,7.11114,41.6629Q7.02945,41.7175,6.942793,41.7638Q6.856141,41.810199999999995,6.765367,41.8478Q6.674592,41.885400000000004,6.580569,41.9139Q6.486546,41.9424,6.390181,41.961600000000004Q6.293815,41.9807,6.196034,41.9904Q6.0982537,42,6,42Q5.9017463,42,5.803966,41.9904Q5.706185,41.9807,5.609819,41.961600000000004Q5.513454,41.9424,5.419431,41.9139Q5.325408,41.885400000000004,5.234633,41.8478Q5.143859,41.810199999999995,5.057207,41.7638Q4.97055,41.7175,4.88886,41.6629Q4.80716,41.6084,4.73121,41.546Q4.65526,41.4837,4.58579,41.4142Q4.51631,41.3447,4.45398,41.2688Q4.39165,41.1928,4.33706,41.1111Q4.28247,41.029399999999995,4.23616,40.9428Q4.18984,40.8561,4.15224,40.7654Q4.11464,40.6746,4.08612,40.580600000000004Q4.0576,40.4865,4.03843,40.3902Q4.01926,40.293800000000005,4.00963,40.196Q4,40.098299999999995,4,40ZM8,40Q8,40.098299999999995,7.99037,40.196Q7.98074,40.293800000000005,7.96157,40.3902Q7.9424,40.4865,7.91388,40.580600000000004Q7.88536,40.6746,7.84776,40.7654Q7.81016,40.8561,7.76384,40.9428Q7.71753,41.029399999999995,7.66294,41.1111Q7.60835,41.1928,7.54602,41.2688Q7.48369,41.3447,7.41421,41.4142Q7.34474,41.4837,7.26879,41.546Q7.19284,41.6084,7.11114,41.6629Q7.02945,41.7175,6.942793,41.7638Q6.856141,41.810199999999995,6.765367,41.8478Q6.674592,41.885400000000004,6.580569,41.9139Q6.486546,41.9424,6.390181,41.961600000000004Q6.293815,41.9807,6.196034,41.9904Q6.0982537,42,6,42Q5.9017463,42,5.803966,41.9904Q5.706185,41.9807,5.609819,41.961600000000004Q5.513454,41.9424,5.419431,41.9139Q5.325408,41.885400000000004,5.234633,41.8478Q5.143859,41.810199999999995,5.057207,41.7638Q4.97055,41.7175,4.88886,41.6629Q4.80716,41.6084,4.73121,41.546Q4.65526,41.4837,4.58579,41.4142Q4.51631,41.3447,4.45398,41.2688Q4.39165,41.1928,4.33706,41.1111Q4.28247,41.029399999999995,4.23616,40.9428Q4.18984,40.8561,4.15224,40.7654Q4.11464,40.6746,4.08612,40.580600000000004Q4.0576,40.4865,4.03843,40.3902Q4.01926,40.293800000000005,4.00963,40.196Q4,40.098299999999995,4,40Q4,39.9017,4.00963,39.804Q4.01926,39.7062,4.03843,39.6098Q4.0576,39.5135,4.08612,39.419399999999996Q4.11464,39.3254,4.15224,39.2346Q4.18984,39.1439,4.23616,39.0572Q4.28247,38.9706,4.33706,38.8889Q4.39165,38.8072,4.45398,38.7312Q4.51631,38.6553,4.58579,38.5858Q4.65526,38.5163,4.73121,38.454Q4.80716,38.3916,4.88886,38.3371Q4.97055,38.2825,5.057207,38.2362Q5.143859,38.1898,5.234633,38.1522Q5.325408,38.114599999999996,5.419431,38.0861Q5.513454,38.0576,5.609819,38.038399999999996Q5.706185,38.0193,5.803966,38.0096Q5.9017463,38,6,38Q6.0982537,38,6.196034,38.0096Q6.293815,38.0193,6.390181,38.038399999999996Q6.486546,38.0576,6.580569,38.0861Q6.674592,38.114599999999996,6.765367,38.1522Q6.856141,38.1898,6.942793,38.2362Q7.02945,38.2825,7.11114,38.3371Q7.19284,38.3916,7.26879,38.454Q7.34474,38.5163,7.41421,38.5858Q7.48369,38.6553,7.54602,38.7312Q7.60835,38.8072,7.66294,38.8889Q7.71753,38.9706,7.76384,39.0572Q7.81016,39.1439,7.84776,39.2346Q7.88536,39.3254,7.91388,39.419399999999996Q7.9424,39.5135,7.96157,39.6098Q7.98074,39.7062,7.99037,39.804Q8,39.9017,8,40ZM8,24Q8,24.0982537,7.99037,24.196034Q7.98074,24.293815,7.96157,24.390181Q7.9424,24.486546,7.91388,24.580569Q7.88536,24.674592,7.84776,24.765367Q7.81016,24.856141,7.76384,24.942793Q7.71753,25.02945,7.66294,25.11114Q7.60835,25.19284,7.54602,25.26879Q7.48369,25.34474,7.41421,25.41421Q7.34474,25.48369,7.26879,25.54602Q7.19284,25.60835,7.11114,25.66294Q7.02945,25.71753,6.942793,25.763840000000002Q6.856141,25.81016,6.765367,25.84776Q6.674592,25.88536,6.580569,25.91388Q6.486546,25.9424,6.390181,25.961570000000002Q6.293815,25.98074,6.196034,25.99037Q6.0982537,26,6,26Q5.9017463,26,5.803966,25.99037Q5.706185,25.98074,5.609819,25.961570000000002Q5.513454,25.9424,5.419431,25.91388Q5.325408,25.88536,5.234633,25.84776Q5.143859,25.81016,5.057207,25.763840000000002Q4.97055,25.71753,4.88886,25.66294Q4.80716,25.60835,4.73121,25.54602Q4.65526,25.48369,4.58579,25.41421Q4.51631,25.34474,4.45398,25.26879Q4.39165,25.19284,4.33706,25.11114Q4.28247,25.02945,4.23616,24.942793Q4.18984,24.856141,4.15224,24.765367Q4.11464,24.674592,4.08612,24.580569Q4.0576,24.486546,4.03843,24.390181Q4.01926,24.293815,4.00963,24.196034Q4,24.0982537,4,24Q4,23.9017463,4.00963,23.803966Q4.01926,23.706185,4.03843,23.609819Q4.0576,23.513454,4.08612,23.419431Q4.11464,23.325408,4.15224,23.234633Q4.18984,23.143859,4.23616,23.057207Q4.28247,22.97055,4.33706,22.88886Q4.39165,22.80716,4.45398,22.73121Q4.51631,22.65526,4.58579,22.58579Q4.65526,22.51631,4.73121,22.45398Q4.80716,22.39165,4.88886,22.33706Q4.97055,22.28247,5.057207,22.236159999999998Q5.143859,22.18984,5.234633,22.15224Q5.325408,22.11464,5.419431,22.08612Q5.513454,22.0576,5.609819,22.038429999999998Q5.706185,22.01926,5.803966,22.00963Q5.9017463,22,6,22Q6.0982537,22,6.196034,22.00963Q6.293815,22.01926,6.390181,22.038429999999998Q6.486546,22.0576,6.580569,22.08612Q6.674592,22.11464,6.765367,22.15224Q6.856141,22.18984,6.942793,22.236159999999998Q7.02945,22.28247,7.11114,22.33706Q7.19284,22.39165,7.26879,22.45398Q7.34474,22.51631,7.41421,22.58579Q7.48369,22.65526,7.54602,22.73121Q7.60835,22.80716,7.66294,22.88886Q7.71753,22.97055,7.76384,23.057207Q7.81016,23.143859,7.84776,23.234633Q7.88536,23.325408,7.91388,23.419431Q7.9424,23.513454,7.96157,23.609819Q7.98074,23.706185,7.99037,23.803966Q8,23.9017463,8,24Z" fill="#660874" fill-opacity="1"/></g><g><path d="M37.888999999999996,38.3908Q32.0783,44,24,44Q15.71575,44,9.85787,38.1421Q4,32.28425,4,23.999999808135Q4,23.9017461,4.00963,23.803966Q4.01926,23.706185,4.03843,23.609819Q4.0576,23.513453,4.08612,23.41943Q4.11464,23.325408,4.15224,23.234633Q4.18984,23.143858,4.23616,23.057206Q4.28247,22.97055,4.33706,22.88886Q4.39165,22.80716,4.45398,22.73121Q4.51631,22.65526,4.58579,22.58579Q4.65526,22.51631,4.73121,22.45398Q4.80717,22.39165,4.88886,22.33706Q4.97055,22.28247,5.057207,22.236159999999998Q5.143859,22.18984,5.234633,22.15224Q5.325408,22.11464,5.419431,22.08612Q5.513454,22.0576,5.609819,22.038429999999998Q5.706185,22.01926,5.803966,22.00963Q5.9017463,22,6,22Q6.0982537,22,6.196034,22.00963Q6.293815,22.01926,6.390181,22.038429999999998Q6.486546,22.0576,6.580569,22.08612Q6.674592,22.11464,6.765367,22.15224Q6.856142,22.18984,6.942794,22.236159999999998Q7.02945,22.28247,7.11114,22.33706Q7.19284,22.39165,7.26879,22.45398Q7.34474,22.51631,7.41421,22.58579Q7.48369,22.65526,7.54602,22.73121Q7.60835,22.80716,7.66294,22.88886Q7.71753,22.97055,7.76384,23.057207Q7.81016,23.143859,7.84776,23.234633Q7.88536,23.325408,7.91388,23.419431Q7.9424,23.513454,7.96157,23.60982Q7.98074,23.706185,7.99037,23.803966Q8,23.9017465,8,24.000000191865Q8,30.6274,12.6863,35.3137Q17.3726,40,24,40Q30.4627,40,35.111000000000004,35.513Q35.1817,35.4447,35.258700000000005,35.3837Q35.3357,35.3228,35.4184,35.2696Q35.501000000000005,35.216499999999996,35.588499999999996,35.1717Q35.6759,35.1269,35.767399999999995,35.0909Q35.8588,35.0549,35.9533,35.0281Q36.047799999999995,35.0012,36.1445,34.9838Q36.2412,34.966300000000004,36.3391,34.9584Q36.4371,34.9505,36.5353,34.9522Q36.6335,34.953900000000004,36.7311,34.9653Q36.8287,34.9767,36.9247,34.9975Q37.020700000000005,35.0184,37.1142,35.0486Q37.2078,35.0787,37.297799999999995,35.1179Q37.3879,35.1571,37.4738,35.205Q37.5596,35.2528,37.640299999999996,35.3088Q37.721000000000004,35.3648,37.7959,35.4285Q37.8707,35.4922,37.938900000000004,35.5629Q38.0072,35.6336,38.0682,35.7106Q38.1291,35.7876,38.1823,35.8703Q38.2354,35.9529,38.2802,36.0404Q38.325,36.1278,38.361,36.219300000000004Q38.397,36.3107,38.4238,36.4052Q38.4507,36.499700000000004,38.4681,36.5964Q38.4856,36.6931,38.4935,36.791Q38.5014,36.888999999999996,38.4997,36.9872Q38.498,37.0854,38.4866,37.183Q38.4752,37.2806,38.4544,37.376599999999996Q38.4335,37.4726,38.4033,37.5661Q38.3732,37.6597,38.334,37.7498Q38.2948,37.8398,38.2469,37.9257Q38.1991,38.0115,38.1431,38.0922Q38.0871,38.1729,38.0234,38.2478Q37.9597,38.3226,37.888999999999996,38.3908ZM38.5,36.9519Q38.5,37.050200000000004,38.4904,37.1479Q38.4807,37.2457,38.4616,37.3421Q38.4424,37.4384,38.4139,37.5325Q38.3854,37.6265,38.3478,37.7173Q38.3102,37.808,38.2638,37.8947Q38.2175,37.9813,38.1629,38.063Q38.1084,38.1447,38.046,38.2207Q37.9837,38.2966,37.9142,38.3661Q37.8447,38.4356,37.7688,38.4979Q37.6928,38.5603,37.6111,38.6148Q37.529399999999995,38.669399999999996,37.4428,38.7157Q37.3561,38.762100000000004,37.2654,38.7997Q37.1746,38.8373,37.080600000000004,38.8658Q36.9865,38.8943,36.8902,38.9135Q36.793800000000005,38.9326,36.696,38.9423Q36.598299999999995,38.9519,36.5,38.9519Q36.401700000000005,38.9519,36.304,38.9423Q36.206199999999995,38.9326,36.1098,38.9135Q36.0135,38.8943,35.919399999999996,38.8658Q35.8254,38.8373,35.7346,38.7997Q35.6439,38.762100000000004,35.5572,38.7157Q35.470600000000005,38.669399999999996,35.3889,38.6148Q35.3072,38.5603,35.2312,38.4979Q35.1553,38.4356,35.0858,38.3661Q35.0163,38.2966,34.954,38.2207Q34.8916,38.1447,34.8371,38.063Q34.7825,37.9813,34.7362,37.8947Q34.689800000000005,37.808,34.6522,37.7173Q34.614599999999996,37.6265,34.5861,37.5325Q34.5576,37.4384,34.538399999999996,37.3421Q34.5193,37.2457,34.5096,37.1479Q34.5,37.050200000000004,34.5,36.9519Q34.5,36.8536,34.5096,36.7559Q34.5193,36.6581,34.538399999999996,36.5617Q34.5576,36.4654,34.5861,36.3713Q34.614599999999996,36.2773,34.6522,36.1865Q34.689800000000005,36.0958,34.7362,36.009100000000004Q34.7825,35.9225,34.8371,35.8408Q34.8916,35.759100000000004,34.954,35.683099999999996Q35.0163,35.6072,35.0858,35.5377Q35.1553,35.468199999999996,35.2312,35.4059Q35.3072,35.3435,35.3889,35.289Q35.470600000000005,35.2344,35.5572,35.1881Q35.6439,35.1417,35.7346,35.1041Q35.8254,35.0665,35.919399999999996,35.038Q36.0135,35.0095,36.1098,34.9903Q36.206199999999995,34.971199999999996,36.304,34.9615Q36.401700000000005,34.9519,36.5,34.9519Q36.598299999999995,34.9519,36.696,34.9615Q36.793800000000005,34.971199999999996,36.8902,34.9903Q36.9865,35.0095,37.080600000000004,35.038Q37.1746,35.0665,37.2654,35.1041Q37.3561,35.1417,37.4428,35.1881Q37.529399999999995,35.2344,37.6111,35.289Q37.6928,35.3435,37.7688,35.4059Q37.8447,35.468199999999996,37.9142,35.5377Q37.9837,35.6072,38.046,35.683099999999996Q38.1084,35.759100000000004,38.1629,35.8408Q38.2175,35.9225,38.2638,36.009100000000004Q38.3102,36.0958,38.3478,36.1865Q38.3854,36.2773,38.4139,36.3713Q38.4424,36.4654,38.4616,36.5617Q38.4807,36.6581,38.4904,36.7559Q38.5,36.8536,38.5,36.9519ZM8,24Q8,24.0982537,7.99037,24.196034Q7.98074,24.293815,7.96157,24.390181Q7.9424,24.486546,7.91388,24.580569Q7.88536,24.674592,7.84776,24.765367Q7.81016,24.856141,7.76384,24.942793Q7.71753,25.02945,7.66294,25.11114Q7.60835,25.19284,7.54602,25.26879Q7.48369,25.34474,7.41421,25.41421Q7.34474,25.48369,7.26879,25.54602Q7.19284,25.60835,7.11114,25.66294Q7.02945,25.71753,6.942793,25.763840000000002Q6.856141,25.81016,6.765367,25.84776Q6.674592,25.88536,6.580569,25.91388Q6.486546,25.9424,6.390181,25.961570000000002Q6.293815,25.98074,6.196034,25.99037Q6.0982537,26,6,26Q5.9017463,26,5.803966,25.99037Q5.706185,25.98074,5.609819,25.961570000000002Q5.513454,25.9424,5.419431,25.91388Q5.325408,25.88536,5.234633,25.84776Q5.143859,25.81016,5.057207,25.763840000000002Q4.97055,25.71753,4.88886,25.66294Q4.80716,25.60835,4.73121,25.54602Q4.65526,25.48369,4.58579,25.41421Q4.51631,25.34474,4.45398,25.26879Q4.39165,25.19284,4.33706,25.11114Q4.28247,25.02945,4.23616,24.942793Q4.18984,24.856141,4.15224,24.765367Q4.11464,24.674592,4.08612,24.580569Q4.0576,24.486546,4.03843,24.390181Q4.01926,24.293815,4.00963,24.196034Q4,24.0982537,4,24Q4,23.9017463,4.00963,23.803966Q4.01926,23.706185,4.03843,23.609819Q4.0576,23.513454,4.08612,23.419431Q4.11464,23.325408,4.15224,23.234633Q4.18984,23.143859,4.23616,23.057207Q4.28247,22.97055,4.33706,22.88886Q4.39165,22.80716,4.45398,22.73121Q4.51631,22.65526,4.58579,22.58579Q4.65526,22.51631,4.73121,22.45398Q4.80716,22.39165,4.88886,22.33706Q4.97055,22.28247,5.057207,22.236159999999998Q5.143859,22.18984,5.234633,22.15224Q5.325408,22.11464,5.419431,22.08612Q5.513454,22.0576,5.609819,22.038429999999998Q5.706185,22.01926,5.803966,22.00963Q5.9017463,22,6,22Q6.0982537,22,6.196034,22.00963Q6.293815,22.01926,6.390181,22.038429999999998Q6.486546,22.0576,6.580569,22.08612Q6.674592,22.11464,6.765367,22.15224Q6.856141,22.18984,6.942793,22.236159999999998Q7.02945,22.28247,7.11114,22.33706Q7.19284,22.39165,7.26879,22.45398Q7.34474,22.51631,7.41421,22.58579Q7.48369,22.65526,7.54602,22.73121Q7.60835,22.80716,7.66294,22.88886Q7.71753,22.97055,7.76384,23.057207Q7.81016,23.143859,7.84776,23.234633Q7.88536,23.325408,7.91388,23.419431Q7.9424,23.513454,7.96157,23.609819Q7.98074,23.706185,7.99037,23.803966Q8,23.9017463,8,24Z" fill="#660874" fill-opacity="1"/></g><g><path d="M9.609870468444825,10.11094Q15.508990468444825,4,24.000700468444826,4Q32.28500046844482,4,38.142800468444825,9.85787Q44.000700468444826,15.71575,44.000700468444826,24Q44.000700468444826,24.0983,43.99110046844483,24.196Q43.981400468444825,24.2938,43.96230046844482,24.3902Q43.943100468444825,24.4865,43.914600468444824,24.5806Q43.88610046844482,24.6746,43.848500468444826,24.7654Q43.81090046844482,24.8561,43.76450046844482,24.9428Q43.71820046844483,25.0294,43.66360046844483,25.1111Q43.60910046844482,25.1928,43.546700468444826,25.2688Q43.484400468444825,25.3447,43.41490046844483,25.4142Q43.34540046844482,25.4837,43.269500468444825,25.546Q43.193500468444824,25.6083,43.11180046844483,25.6629Q43.03010046844483,25.7175,42.943500468444824,25.7638Q42.856800468444824,25.8102,42.766100468444826,25.8478Q42.675300468444824,25.8854,42.58130046844482,25.9139Q42.487200468444826,25.9424,42.390900468444826,25.9616Q42.294500468444824,25.9807,42.196700468444824,25.9904Q42.09900046844483,26,42.00070046844482,26Q41.902400468444824,26,41.80470046844482,25.9904Q41.70690046844483,25.9807,41.610500468444826,25.9616Q41.51420046844483,25.9424,41.42010046844483,25.9139Q41.32610046844482,25.8854,41.23530046844482,25.8478Q41.14460046844482,25.8102,41.05790046844483,25.7638Q40.971300468444824,25.7175,40.889600468444826,25.6629Q40.80790046844483,25.6084,40.73190046844482,25.546Q40.65600046844482,25.4837,40.586500468444825,25.4142Q40.51700046844482,25.3447,40.45470046844483,25.2688Q40.39230046844482,25.1928,40.337800468444826,25.1111Q40.283200468444825,25.0294,40.23690046844482,24.9428Q40.190500468444824,24.8561,40.15290046844483,24.7654Q40.11530046844483,24.6746,40.08680046844482,24.5806Q40.05830046844483,24.4865,40.03910046844483,24.3902Q40.02000046844482,24.2938,40.010300468444825,24.196Q40.00070046844482,24.0983,40.00070046844482,24Q40.00070046844482,17.3726,35.31440046844482,12.6863Q30.628100468444824,8,24.000700468444826,8Q17.207320468444824,8,12.487730468444823,12.88906Q12.419490468444824,12.95975,12.344650468444824,13.02341Q12.269810468444824,13.08707,12.189090468444824,13.14309Q12.108370468444825,13.199110000000001,12.022550468444825,13.24694Q11.936729468444824,13.29478,11.846631468444825,13.33397Q11.756534468444825,13.37317,11.663028468444825,13.40335Q11.569523468444824,13.43352,11.473510468444823,13.45438Q11.377497468444824,13.475249999999999,11.279902468444824,13.4866Q11.182306468444825,13.497959999999999,11.084068368444823,13.499690000000001Q10.985829968444824,13.50142,10.887894468444824,13.49352Q10.789959468444824,13.485610000000001,10.693270468444824,13.46815Q10.596581468444825,13.45068,10.502070468444824,13.42382Q10.407559468444823,13.39696,10.316136468444824,13.36097Q10.224712468444825,13.32497,10.137257468444824,13.280190000000001Q10.049801468444825,13.23541,9.967160468444824,13.182269999999999Q9.884510468444825,13.12914,9.807470468444825,13.06815Q9.730430468444824,13.00717,9.659740468444824,12.93893Q9.589050468444825,12.87069,9.525390468444824,12.79585Q9.461730468444824,12.72101,9.405710468444823,12.64029Q9.349690468444825,12.55957,9.301860468444824,12.473749999999999Q9.254020468444825,12.38793,9.214820468444824,12.297830000000001Q9.175630468444824,12.20773,9.145450468444825,12.11423Q9.115280468444825,12.02072,9.094420468444824,11.924710000000001Q9.073550468444825,11.828700000000001,9.062200468444825,11.7311Q9.050840468444825,11.633510000000001,9.049110468444825,11.53527Q9.047380468444825,11.43703,9.055280468444824,11.339089999999999Q9.063190468444825,11.24116,9.080650468444825,11.14447Q9.098120468444824,11.04778,9.124980468444825,10.95327Q9.151840468444824,10.85876,9.187830468444824,10.767330000000001Q9.223830468444824,10.67591,9.268610468444825,10.588460000000001Q9.313390468444824,10.501000000000001,9.366530468444825,10.41836Q9.419660468444825,10.335709999999999,9.480650468444825,10.25867Q9.541630468444824,10.18163,9.609870468444825,10.11094ZM13.048800468444824,11.5Q13.048800468444824,11.59825,13.039170468444825,11.69603Q13.029540468444825,11.79382,13.010370468444824,11.89018Q12.991200468444823,11.986550000000001,12.962680468444825,12.08057Q12.934160468444825,12.17459,12.896560468444825,12.26537Q12.858960468444824,12.35614,12.812640468444824,12.442789999999999Q12.766330468444824,12.52945,12.711740468444825,12.611139999999999Q12.657150468444824,12.69283,12.594820468444825,12.76879Q12.532490468444824,12.84474,12.463010468444825,12.91421Q12.393540468444824,12.98369,12.317590468444823,13.04602Q12.241640468444825,13.10835,12.159940468444825,13.162939999999999Q12.078250468444825,13.21753,11.991593468444824,13.26384Q11.904941468444825,13.31016,11.814167468444824,13.347760000000001Q11.723392468444825,13.38536,11.629369468444825,13.413879999999999Q11.535346468444825,13.4424,11.438981468444824,13.46157Q11.342615468444825,13.48074,11.244834468444823,13.49037Q11.147054168444825,13.5,11.048800468444824,13.5Q10.950546768444823,13.5,10.852766468444825,13.49037Q10.754985468444824,13.48074,10.658619468444824,13.46157Q10.562254468444824,13.4424,10.468231468444824,13.413879999999999Q10.374208468444824,13.38536,10.283433468444825,13.347760000000001Q10.192659468444823,13.31016,10.106007468444824,13.26384Q10.019350468444824,13.21753,9.937660468444824,13.162939999999999Q9.855960468444824,13.10835,9.780010468444825,13.04602Q9.704060468444824,12.98369,9.634590468444824,12.91421Q9.565110468444825,12.84474,9.502780468444824,12.76879Q9.440450468444824,12.69283,9.385860468444823,12.611139999999999Q9.331270468444824,12.52945,9.284960468444824,12.442789999999999Q9.238640468444824,12.35614,9.201040468444823,12.26537Q9.163440468444824,12.17459,9.134920468444824,12.08057Q9.106400468444825,11.986550000000001,9.087230468444824,11.89018Q9.068060468444823,11.79382,9.058430468444824,11.69603Q9.048800468444824,11.59825,9.048800468444824,11.5Q9.048800468444824,11.40175,9.058430468444824,11.30397Q9.068060468444823,11.20619,9.087230468444824,11.10982Q9.106400468444825,11.013449999999999,9.134920468444824,10.91943Q9.163440468444824,10.82541,9.201040468444823,10.73463Q9.238640468444824,10.64386,9.284960468444824,10.557210000000001Q9.331270468444824,10.47055,9.385860468444823,10.388860000000001Q9.440450468444824,10.30716,9.502780468444824,10.23121Q9.565110468444825,10.15526,9.634590468444824,10.08579Q9.704060468444824,10.01631,9.780010468444825,9.95398Q9.855960468444824,9.89165,9.937660468444824,9.837060000000001Q10.019350468444824,9.78247,10.106007468444824,9.73616Q10.192659468444823,9.68984,10.283433468444825,9.652239999999999Q10.374208468444824,9.61464,10.468231468444824,9.586120000000001Q10.562254468444824,9.5576,10.658619468444824,9.53843Q10.754985468444824,9.51926,10.852766468444825,9.50963Q10.950546768444823,9.5,11.048800468444824,9.5Q11.147054168444825,9.5,11.244834468444823,9.50963Q11.342615468444825,9.51926,11.438981468444824,9.53843Q11.535346468444825,9.5576,11.629369468444825,9.586120000000001Q11.723392468444825,9.61464,11.814167468444824,9.652239999999999Q11.904941468444825,9.68984,11.991593468444824,9.73616Q12.078250468444825,9.78247,12.159940468444825,9.837060000000001Q12.241640468444825,9.89165,12.317590468444823,9.95398Q12.393540468444824,10.01631,12.463010468444825,10.08579Q12.532490468444824,10.15526,12.594820468444825,10.23121Q12.657150468444824,10.30716,12.711740468444825,10.388860000000001Q12.766330468444824,10.47055,12.812640468444824,10.557210000000001Q12.858960468444824,10.64386,12.896560468444825,10.73463Q12.934160468444825,10.82541,12.962680468444825,10.91943Q12.991200468444823,11.013449999999999,13.010370468444824,11.10982Q13.029540468444825,11.20619,13.039170468444825,11.30397Q13.048800468444824,11.40175,13.048800468444824,11.5ZM44.000700468444826,24Q44.000700468444826,24.0983,43.99110046844483,24.196Q43.981400468444825,24.2938,43.96230046844482,24.3902Q43.943100468444825,24.4865,43.914600468444824,24.5806Q43.88610046844482,24.6746,43.848500468444826,24.7654Q43.81090046844482,24.8561,43.76450046844482,24.9428Q43.71820046844483,25.0294,43.66360046844483,25.1111Q43.60910046844482,25.1928,43.546700468444826,25.2688Q43.484400468444825,25.3447,43.41490046844483,25.4142Q43.34540046844482,25.4837,43.269500468444825,25.546Q43.193500468444824,25.6083,43.11180046844483,25.6629Q43.03010046844483,25.7175,42.943500468444824,25.7638Q42.856800468444824,25.8102,42.766100468444826,25.8478Q42.675300468444824,25.8854,42.58130046844482,25.9139Q42.487200468444826,25.9424,42.390900468444826,25.9616Q42.294500468444824,25.9807,42.196700468444824,25.9904Q42.09900046844483,26,42.00070046844482,26Q41.902400468444824,26,41.80470046844482,25.9904Q41.70690046844483,25.9807,41.610500468444826,25.9616Q41.51420046844483,25.9424,41.42010046844483,25.9139Q41.32610046844482,25.8854,41.23530046844482,25.8478Q41.14460046844482,25.8102,41.05790046844483,25.7638Q40.971300468444824,25.7175,40.889600468444826,25.6629Q40.80790046844483,25.6084,40.73190046844482,25.546Q40.65600046844482,25.4837,40.586500468444825,25.4142Q40.51700046844482,25.3447,40.45470046844483,25.2688Q40.39230046844482,25.1928,40.337800468444826,25.1111Q40.283200468444825,25.0294,40.23690046844482,24.9428Q40.190500468444824,24.8561,40.15290046844483,24.7654Q40.11530046844483,24.6746,40.08680046844482,24.5806Q40.05830046844483,24.4865,40.03910046844483,24.3902Q40.02000046844482,24.2938,40.010300468444825,24.196Q40.00070046844482,24.0983,40.00070046844482,24Q40.00070046844482,23.9017,40.010300468444825,23.804Q40.02000046844482,23.7062,40.03910046844483,23.6098Q40.05830046844483,23.5135,40.08680046844482,23.4194Q40.11530046844483,23.3254,40.15290046844483,23.2346Q40.190500468444824,23.1439,40.23690046844482,23.0572Q40.283200468444825,22.9706,40.337800468444826,22.8889Q40.39230046844482,22.8072,40.45470046844483,22.7312Q40.51700046844482,22.6553,40.586500468444825,22.5858Q40.65600046844482,22.5163,40.73190046844482,22.454Q40.80790046844483,22.3916,40.889600468444826,22.3371Q40.971300468444824,22.2825,41.05790046844483,22.2362Q41.14460046844482,22.1898,41.23530046844482,22.1522Q41.32610046844482,22.1146,41.42010046844483,22.0861Q41.51420046844483,22.0576,41.610500468444826,22.0384Q41.70690046844483,22.0193,41.80470046844482,22.0096Q41.902400468444824,22,42.00070046844482,22Q42.09900046844483,22,42.196700468444824,22.0096Q42.294500468444824,22.0193,42.390900468444826,22.0384Q42.487200468444826,22.0576,42.58130046844482,22.0861Q42.675300468444824,22.1146,42.766100468444826,22.1522Q42.856800468444824,22.1898,42.943500468444824,22.2362Q43.03010046844483,22.2825,43.11180046844483,22.3371Q43.193500468444824,22.3916,43.269500468444825,22.454Q43.34540046844482,22.5163,43.41490046844483,22.5858Q43.484400468444825,22.6553,43.546700468444826,22.7312Q43.60910046844482,22.8072,43.66360046844483,22.8889Q43.71820046844483,22.9706,43.76450046844482,23.0572Q43.81090046844482,23.1439,43.848500468444826,23.2346Q43.88610046844482,23.3254,43.914600468444824,23.4194Q43.943100468444825,23.5135,43.96230046844482,23.6098Q43.981400468444825,23.7062,43.99110046844483,23.804Q44.000700468444826,23.9017,44.000700468444826,24Z" fill="#660874" fill-opacity="1"/></g></g></svg>