<svg xmlns="http://www.w3.org/2000/svg" xmlns:xlink="http://www.w3.org/1999/xlink" fill="none" version="1.1" width="48" height="48" viewBox="0 0 48 48"><defs><clipPath id="master_svg0_502_520"><rect x="0" y="0" width="48" height="48" rx="0"/></clipPath></defs><g clip-path="url(#master_svg0_502_520)"><g><rect x="0" y="0" width="48" height="48" rx="0" fill="#FFFFFF" fill-opacity="0.009999999776482582"/></g><g><ellipse cx="24" cy="24" rx="20" ry="20" fill-opacity="0" stroke-opacity="1" stroke="#660874" fill="none" stroke-width="4" stroke-linecap="ROUND" stroke-linejoin="round"/></g><g style="mix-blend-mode:passthrough"><path d="M16.05078125,33.50003396911621L16.05078125,14.083333969116211C16.05078125,13.80719196911621,16.27463925,13.583333969116211,16.55078125,13.583333969116211L24.57291125,13.583333969116211Q27.78128125,13.583333969116211,29.23958125,14.121093969116211Q30.697881250000002,14.658853969116212,31.572881250000002,16.035153969116212Q32.447881249999995,17.41145396911621,32.447881249999995,19.179683969116212Q32.447881249999995,21.421873969116213,31.11718125,22.889323969116212Q30.16228125,23.94293396911621,28.51758125,24.43523396911621C28.06898125,24.56943396911621,27.92558125,25.232133969116212,28.290881249999998,25.525033969116212Q28.86928125,25.98873396911621,29.320981250000003,26.49803396911621C29.321481249999998,26.498633969116213,29.321681249999997,26.498833969116212,29.32218125,26.49943396911621Q30.17888125,27.45653396911621,31.627481250000002,29.898333969116212C31.627681250000002,29.89853396911621,31.627681250000002,29.89853396911621,31.627781249999998,29.89883396911621L33.62018125,33.244133969116206C33.81868125,33.577433969116214,33.578481249999996,34.00003396911621,33.19058125,34.00003396911621L29.50038125,34.00003396911621C29.331881250000002,34.00003396911621,29.174781250000002,33.915233969116215,29.082381249999997,33.77433396911621L26.30808125,29.54813396911621C26.305781250000003,29.544633969116212,26.30378125,29.541433969116213,26.301581249999998,29.53793396911621Q24.74684125,27.03793396911621,24.17285125,26.39043396911621C24.172081249999998,26.38953396911621,24.17166125,26.389033969116213,24.17090125,26.38823396911621Q23.59875125,25.734733969116213,22.95423125,25.49743396911621C22.95156125,25.49643396911621,22.94944125,25.495633969116213,22.94677125,25.49463396911621Q22.30841125,25.25003396911621,20.91797125,25.25003396911621L20.59766125,25.25003396911621C20.32151125,25.25003396911621,20.09766125,25.47383396911621,20.09766125,25.75003396911621L20.09766125,33.50003396911621C20.09766125,33.77613396911621,19.87380125,34.00003396911621,19.59766125,34.00003396911621L16.55078125,34.00003396911621C16.27463925,34.00003396911621,16.05078125,33.77613396911621,16.05078125,33.50003396911621M20.59766125,21.75000396911621L23.096351249999998,21.75000396911621Q26.00267125,21.75000396911621,26.72338125,21.52233396911621C26.723881249999998,21.52215396911621,26.72398125,21.522123969116212,26.72458125,21.52194396911621Q27.452381250000002,21.29432396911621,27.862281250000002,20.74877396911621C27.86308125,20.747713969116212,27.86348125,20.74709396911621,27.864281249999998,20.74602396911621Q28.27348125,20.190383969116212,28.27348125,19.36198396911621Q28.27348125,18.44140396911621,27.73568125,17.867183969116212Q27.19908125,17.29418396911621,26.21768125,17.14775396911621C26.214681249999998,17.147303969116212,26.21238125,17.14698396911621,26.20938125,17.14660396911621Q25.71097125,17.08333396911621,23.26041125,17.08333396911621L20.59766125,17.08333396911621C20.32151125,17.08333396911621,20.09766125,17.307193969116213,20.09766125,17.58333396911621L20.09766125,21.25000396911621C20.09766125,21.526143969116212,20.32151125,21.75000396911621,20.59766125,21.75000396911621" fill="#660874" fill-opacity="1"/></g></g></svg>