<svg xmlns="http://www.w3.org/2000/svg" xmlns:xlink="http://www.w3.org/1999/xlink" fill="none" version="1.1" width="48" height="48" viewBox="0 0 48 48"><defs><clipPath id="master_svg0_502_390"><rect x="0" y="0" width="48" height="48" rx="0"/></clipPath></defs><g clip-path="url(#master_svg0_502_390)"><g style="mix-blend-mode:passthrough"><g><path d="M5.3115234375,39.344482421875L5.3115234375,13.344482421875Q5.3115234375,11.687628421875,6.4830964375,10.516055421875Q7.6546694375,9.344482421875,9.3115234375,9.344482421875L38.3115234375,9.344482421875Q39.9684234375,9.344482421875,41.1399234375,10.516055421875Q42.3115234375,11.687623421875,42.3115234375,13.344482421875L42.3115234375,39.344482421875Q42.3115234375,41.001382421875,41.1399234375,42.172882421875Q39.9684234375,43.344482421875,38.3115234375,43.344482421875L9.3115234375,43.344482421875Q7.6546704375,43.344482421875,6.4830964375,42.172882421875Q5.3115234375,41.001382421875,5.3115234375,39.344482421875ZM9.3115234375,39.344482421875L9.3115234375,39.344482421875L38.3115234375,39.344482421875L38.3115234375,39.344482421875L38.3115234375,13.344482421875L38.3115234375,13.344482421875L9.3115234375,13.344482421875L9.3115234375,13.344482421875L9.3115234375,39.344482421875Z" fill="#660874" fill-opacity="1"/></g><g><path d="M13.5615234375,15.344482421875L13.5615234375,7.344482421875Q13.5615234375,7.246228721875,13.5711534375,7.148448421875Q13.5807834375,7.050667421875,13.5999534375,6.954301421875Q13.6191234375,6.857936421875,13.6476434375,6.763913421875Q13.6761634375,6.669890421875,13.713763437499999,6.579115421875Q13.7513634375,6.488341421875,13.7976834375,6.401689421875Q13.8439934375,6.315032421875,13.8985834375,6.233342421875Q13.9531734375,6.151642421875,14.0155034375,6.075692421875Q14.0778334375,5.999742421875,14.1473134375,5.930272421875Q14.2167834375,5.860792421875,14.2927334375,5.798462421875Q14.3686834375,5.736132421875,14.4503834375,5.681542421875Q14.5320734375,5.626952421875,14.6187304375,5.580642421875Q14.705382437499999,5.534322421875,14.7961564375,5.496722421875Q14.8869314375,5.459122421875,14.9809544375,5.430602421875Q15.0749774375,5.402082421875,15.1713424375,5.382912421875Q15.2677084375,5.363742421875,15.3654894375,5.354112421875Q15.4632697375,5.344482421875,15.5615234375,5.344482421875Q15.6597771375,5.344482421875,15.7575574375,5.354112421875Q15.8553384375,5.363742421875,15.9517044375,5.382912421875Q16.0480694375,5.402082421875,16.1420924375,5.430602421875Q16.2361154375,5.459122421875,16.3268904375,5.496722421875Q16.4176644375,5.534322421875,16.5043164375,5.580642421875Q16.5909734375,5.626952421875,16.6726634375,5.681542421875Q16.7543634375,5.736132421875,16.8303134375,5.798462421875Q16.9062634375,5.860792421875,16.9757334375,5.930272421875Q17.0452134375,5.999742421875,17.1075434375,6.075692421875Q17.1698734375,6.151642421875,17.2244634375,6.233342421875Q17.2790534375,6.315032421875,17.325363437500002,6.401689421875Q17.3716834375,6.488341421875,17.4092834375,6.579115421875Q17.4468834375,6.669890421875,17.4754034375,6.763913421875Q17.5039234375,6.857936421875,17.523093437500002,6.954301421875Q17.5422634375,7.050667421875,17.5518934375,7.148448421875Q17.5615234375,7.246228721875,17.5615234375,7.344482421875L17.5615234375,15.344482421875Q17.5615234375,15.442732421875,17.5518934375,15.540512421875Q17.5422634375,15.638292421875,17.523093437500002,15.734662421875Q17.5039234375,15.831032421875,17.4754034375,15.925052421875Q17.4468834375,16.019072421875002,17.4092834375,16.109852421875Q17.3716834375,16.200622421875,17.325363437500002,16.287272421875002Q17.2790534375,16.373932421875,17.2244634375,16.455622421875Q17.1698734375,16.537322421875,17.1075434375,16.613272421875Q17.0452134375,16.689222421875,16.9757334375,16.758692421875Q16.9062634375,16.828172421875,16.8303134375,16.890502421875Q16.7543634375,16.952832421875,16.6726634375,17.007422421875Q16.5909734375,17.062002421875,16.5043164375,17.108322421875002Q16.4176644375,17.154642421875,16.3268904375,17.192242421875Q16.2361154375,17.229842421875,16.1420924375,17.258362421875Q16.0480694375,17.286882421875,15.9517044375,17.306052421875002Q15.8553384375,17.325222421875,15.7575574375,17.334852421875Q15.6597771375,17.344482421875,15.5615234375,17.344482421875Q15.4632697375,17.344482421875,15.3654894375,17.334852421875Q15.2677084375,17.325222421875,15.1713424375,17.306052421875002Q15.0749774375,17.286882421875,14.9809544375,17.258362421875Q14.8869314375,17.229842421875,14.7961564375,17.192242421875Q14.705382437499999,17.154642421875,14.6187304375,17.108322421875002Q14.5320734375,17.062002421875,14.4503834375,17.007422421875Q14.3686834375,16.952832421875,14.2927334375,16.890502421875Q14.2167834375,16.828172421875,14.1473134375,16.758692421875Q14.0778334375,16.689222421875,14.0155034375,16.613272421875Q13.9531734375,16.537322421875,13.8985834375,16.455622421875Q13.8439934375,16.373932421875,13.7976834375,16.287272421875002Q13.7513634375,16.200622421875,13.713763437499999,16.109852421875Q13.6761634375,16.019072421875002,13.6476434375,15.925052421875Q13.6191234375,15.831032421875,13.5999534375,15.734662421875Q13.5807834375,15.638292421875,13.5711534375,15.540512421875Q13.5615234375,15.442732421875,13.5615234375,15.344482421875ZM17.5615234375,15.344482421875Q17.5615234375,15.442732421875,17.5518934375,15.540512421875Q17.5422634375,15.638292421875,17.523093437500002,15.734662421875Q17.5039234375,15.831032421875,17.4754034375,15.925052421875Q17.4468834375,16.019072421875002,17.4092834375,16.109852421875Q17.3716834375,16.200622421875,17.325363437500002,16.287272421875002Q17.2790534375,16.373932421875,17.2244634375,16.455622421875Q17.1698734375,16.537322421875,17.1075434375,16.613272421875Q17.0452134375,16.689222421875,16.9757334375,16.758692421875Q16.9062634375,16.828172421875,16.8303134375,16.890502421875Q16.7543634375,16.952832421875,16.6726634375,17.007422421875Q16.5909734375,17.062002421875,16.5043164375,17.108322421875002Q16.4176644375,17.154642421875,16.3268904375,17.192242421875Q16.2361154375,17.229842421875,16.1420924375,17.258362421875Q16.0480694375,17.286882421875,15.9517044375,17.306052421875002Q15.8553384375,17.325222421875,15.7575574375,17.334852421875Q15.6597771375,17.344482421875,15.5615234375,17.344482421875Q15.4632697375,17.344482421875,15.3654894375,17.334852421875Q15.2677084375,17.325222421875,15.1713424375,17.306052421875002Q15.0749774375,17.286882421875,14.9809544375,17.258362421875Q14.8869314375,17.229842421875,14.7961564375,17.192242421875Q14.705382437499999,17.154642421875,14.6187304375,17.108322421875002Q14.5320734375,17.062002421875,14.4503834375,17.007422421875Q14.3686834375,16.952832421875,14.2927334375,16.890502421875Q14.2167834375,16.828172421875,14.1473134375,16.758692421875Q14.0778334375,16.689222421875,14.0155034375,16.613272421875Q13.9531734375,16.537322421875,13.8985834375,16.455622421875Q13.8439934375,16.373932421875,13.7976834375,16.287272421875002Q13.7513634375,16.200622421875,13.713763437499999,16.109852421875Q13.6761634375,16.019072421875002,13.6476434375,15.925052421875Q13.6191234375,15.831032421875,13.5999534375,15.734662421875Q13.5807834375,15.638292421875,13.5711534375,15.540512421875Q13.5615234375,15.442732421875,13.5615234375,15.344482421875Q13.5615234375,15.246232421875,13.5711534375,15.148452421875Q13.5807834375,15.050672421875,13.5999534375,14.954302421875Q13.6191234375,14.857932421874999,13.6476434375,14.763912421875Q13.6761634375,14.669892421875,13.713763437499999,14.579112421875Q13.7513634375,14.488342421875,13.7976834375,14.401692421875001Q13.8439934375,14.315032421875,13.8985834375,14.233342421875001Q13.9531734375,14.151642421875,14.0155034375,14.075692421875Q14.0778334375,13.999742421875,14.1473134375,13.930272421875Q14.2167834375,13.860792421875,14.2927334375,13.798462421875Q14.3686834375,13.736132421875,14.4503834375,13.681542421875001Q14.5320734375,13.626952421875,14.6187304375,13.580642421875Q14.705382437499999,13.534322421875,14.7961564375,13.496722421874999Q14.8869314375,13.459122421875,14.9809544375,13.430602421875001Q15.0749774375,13.402082421875,15.1713424375,13.382912421875Q15.2677084375,13.363742421875,15.3654894375,13.354112421875Q15.4632697375,13.344482421875,15.5615234375,13.344482421875Q15.6597771375,13.344482421875,15.7575574375,13.354112421875Q15.8553384375,13.363742421875,15.9517044375,13.382912421875Q16.0480694375,13.402082421875,16.1420924375,13.430602421875001Q16.2361154375,13.459122421875,16.3268904375,13.496722421874999Q16.4176644375,13.534322421875,16.5043164375,13.580642421875Q16.5909734375,13.626952421875,16.6726634375,13.681542421875001Q16.7543634375,13.736132421875,16.8303134375,13.798462421875Q16.9062634375,13.860792421875,16.9757334375,13.930272421875Q17.0452134375,13.999742421875,17.1075434375,14.075692421875Q17.1698734375,14.151642421875,17.2244634375,14.233342421875001Q17.2790534375,14.315032421875,17.325363437500002,14.401692421875001Q17.3716834375,14.488342421875,17.4092834375,14.579112421875Q17.4468834375,14.669892421875,17.4754034375,14.763912421875Q17.5039234375,14.857932421874999,17.523093437500002,14.954302421875Q17.5422634375,15.050672421875,17.5518934375,15.148452421875Q17.5615234375,15.246232421875,17.5615234375,15.344482421875ZM17.5615234375,7.344482421875Q17.5615234375,7.442736121875,17.5518934375,7.540516421875Q17.5422634375,7.638297421875,17.523093437500002,7.734663421875Q17.5039234375,7.831028421875,17.4754034375,7.925051421875Q17.4468834375,8.019074421875,17.4092834375,8.109849421875Q17.3716834375,8.200623421875001,17.325363437500002,8.287275421875Q17.2790534375,8.373932421875,17.2244634375,8.455622421875Q17.1698734375,8.537322421875,17.1075434375,8.613272421875Q17.0452134375,8.689222421875,16.9757334375,8.758692421875Q16.9062634375,8.828172421875,16.8303134375,8.890502421875Q16.7543634375,8.952832421875,16.6726634375,9.007422421875Q16.5909734375,9.062012421875,16.5043164375,9.108322421875Q16.4176644375,9.154642421875,16.3268904375,9.192242421875001Q16.2361154375,9.229842421875,16.1420924375,9.258362421875Q16.0480694375,9.286882421875,15.9517044375,9.306052421875Q15.8553384375,9.325222421875,15.7575574375,9.334852421875Q15.6597771375,9.344482421875,15.5615234375,9.344482421875Q15.4632697375,9.344482421875,15.3654894375,9.334852421875Q15.2677084375,9.325222421875,15.1713424375,9.306052421875Q15.0749774375,9.286882421875,14.9809544375,9.258362421875Q14.8869314375,9.229842421875,14.7961564375,9.192242421875001Q14.705382437499999,9.154642421875,14.6187304375,9.108322421875Q14.5320734375,9.062012421875,14.4503834375,9.007422421875Q14.3686834375,8.952832421875,14.2927334375,8.890502421875Q14.2167834375,8.828172421875,14.1473134375,8.758692421875Q14.0778334375,8.689222421875,14.0155034375,8.613272421875Q13.9531734375,8.537322421875,13.8985834375,8.455622421875Q13.8439934375,8.373932421875,13.7976834375,8.287275421875Q13.7513634375,8.200623421875001,13.713763437499999,8.109849421875Q13.6761634375,8.019074421875,13.6476434375,7.925051421875Q13.6191234375,7.831028421875,13.5999534375,7.734663421875Q13.5807834375,7.638297421875,13.5711534375,7.540516421875Q13.5615234375,7.442736121875,13.5615234375,7.344482421875Q13.5615234375,7.246228721875,13.5711534375,7.148448421875Q13.5807834375,7.050667421875,13.5999534375,6.954301421875Q13.6191234375,6.857936421875,13.6476434375,6.763913421875Q13.6761634375,6.669890421875,13.713763437499999,6.579115421875Q13.7513634375,6.488341421875,13.7976834375,6.401689421875Q13.8439934375,6.315032421875,13.8985834375,6.233342421875Q13.9531734375,6.151642421875,14.0155034375,6.075692421875Q14.0778334375,5.999742421875,14.1473134375,5.930272421875Q14.2167834375,5.860792421875,14.2927334375,5.798462421875Q14.3686834375,5.736132421875,14.4503834375,5.681542421875Q14.5320734375,5.626952421875,14.6187304375,5.580642421875Q14.705382437499999,5.534322421875,14.7961564375,5.496722421875Q14.8869314375,5.459122421875,14.9809544375,5.430602421875Q15.0749774375,5.402082421875,15.1713424375,5.382912421875Q15.2677084375,5.363742421875,15.3654894375,5.354112421875Q15.4632697375,5.344482421875,15.5615234375,5.344482421875Q15.6597771375,5.344482421875,15.7575574375,5.354112421875Q15.8553384375,5.363742421875,15.9517044375,5.382912421875Q16.0480694375,5.402082421875,16.1420924375,5.430602421875Q16.2361154375,5.459122421875,16.3268904375,5.496722421875Q16.4176644375,5.534322421875,16.5043164375,5.580642421875Q16.5909734375,5.626952421875,16.6726634375,5.681542421875Q16.7543634375,5.736132421875,16.8303134375,5.798462421875Q16.9062634375,5.860792421875,16.9757334375,5.930272421875Q17.0452134375,5.999742421875,17.1075434375,6.075692421875Q17.1698734375,6.151642421875,17.2244634375,6.233342421875Q17.2790534375,6.315032421875,17.325363437500002,6.401689421875Q17.3716834375,6.488341421875,17.4092834375,6.579115421875Q17.4468834375,6.669890421875,17.4754034375,6.763913421875Q17.5039234375,6.857936421875,17.523093437500002,6.954301421875Q17.5422634375,7.050667421875,17.5518934375,7.148448421875Q17.5615234375,7.246228721875,17.5615234375,7.344482421875Z" fill="#660874" fill-opacity="1"/></g><g><path d="M30.0615234375,15.344482421875L30.0615234375,7.344482421875Q30.0615234375,7.246228721875,30.0711534375,7.148448421875Q30.0807834375,7.050667421875,30.099953437499998,6.954301421875Q30.1191234375,6.857936421875,30.1476434375,6.763913421875Q30.1761634375,6.669890421875,30.2137634375,6.579115421875Q30.2513634375,6.488341421875,30.297683437499998,6.401689421875Q30.3439934375,6.315032421875,30.3985834375,6.233342421875Q30.4531734375,6.151642421875,30.5155034375,6.075692421875Q30.5778334375,5.999742421875,30.6473134375,5.930272421875Q30.7167834375,5.860792421875,30.7927334375,5.798462421875Q30.8686834375,5.736132421875,30.9503834375,5.681542421875Q31.0320734375,5.626952421875,31.1187304375,5.580642421875Q31.2053824375,5.534322421875,31.2961564375,5.496722421875Q31.3869314375,5.459122421875,31.4809544375,5.430602421875Q31.5749774375,5.402082421875,31.6713424375,5.382912421875Q31.7677084375,5.363742421875,31.8654894375,5.354112421875Q31.9632697375,5.344482421875,32.0615234375,5.344482421875Q32.1597771375,5.344482421875,32.2575574375,5.354112421875Q32.3553384375,5.363742421875,32.4517044375,5.382912421875Q32.5480694375,5.402082421875,32.6420924375,5.430602421875Q32.7361154375,5.459122421875,32.8268904375,5.496722421875Q32.9176644375,5.534322421875,33.0043164375,5.580642421875Q33.0909734375,5.626952421875,33.1726634375,5.681542421875Q33.2543634375,5.736132421875,33.3303134375,5.798462421875Q33.4062634375,5.860792421875,33.4757334375,5.930272421875Q33.5452134375,5.999742421875,33.6075434375,6.075692421875Q33.6698734375,6.151642421875,33.7244634375,6.233342421875Q33.7790534375,6.315032421875,33.8253634375,6.401689421875Q33.8716834375,6.488341421875,33.9092834375,6.579115421875Q33.9468834375,6.669890421875,33.9754034375,6.763913421875Q34.0039234375,6.857936421875,34.0230934375,6.954301421875Q34.0422634375,7.050667421875,34.0518934375,7.148448421875Q34.0615234375,7.246228721875,34.0615234375,7.344482421875L34.0615234375,15.344482421875Q34.0615234375,15.442732421875,34.0518934375,15.540512421875Q34.0422634375,15.638292421875,34.0230934375,15.734662421875Q34.0039234375,15.831032421875,33.9754034375,15.925052421875Q33.9468834375,16.019072421875002,33.9092834375,16.109852421875Q33.8716834375,16.200622421875,33.8253634375,16.287272421875002Q33.7790534375,16.373932421875,33.7244634375,16.455622421875Q33.6698734375,16.537322421875,33.6075434375,16.613272421875Q33.5452134375,16.689222421875,33.4757334375,16.758692421875Q33.4062634375,16.828172421875,33.3303134375,16.890502421875Q33.2543634375,16.952832421875,33.1726634375,17.007422421875Q33.0909734375,17.062002421875,33.0043164375,17.108322421875002Q32.9176644375,17.154642421875,32.8268904375,17.192242421875Q32.7361154375,17.229842421875,32.6420924375,17.258362421875Q32.5480694375,17.286882421875,32.4517044375,17.306052421875002Q32.3553384375,17.325222421875,32.2575574375,17.334852421875Q32.1597771375,17.344482421875,32.0615234375,17.344482421875Q31.9632697375,17.344482421875,31.8654894375,17.334852421875Q31.7677084375,17.325222421875,31.6713424375,17.306052421875002Q31.5749774375,17.286882421875,31.4809544375,17.258362421875Q31.3869314375,17.229842421875,31.2961564375,17.192242421875Q31.2053824375,17.154642421875,31.1187304375,17.108322421875002Q31.0320734375,17.062002421875,30.9503834375,17.007422421875Q30.8686834375,16.952832421875,30.7927334375,16.890502421875Q30.7167834375,16.828172421875,30.6473134375,16.758692421875Q30.5778334375,16.689222421875,30.5155034375,16.613272421875Q30.4531734375,16.537322421875,30.3985834375,16.455622421875Q30.3439934375,16.373932421875,30.297683437499998,16.287272421875002Q30.2513634375,16.200622421875,30.2137634375,16.109852421875Q30.1761634375,16.019072421875002,30.1476434375,15.925052421875Q30.1191234375,15.831032421875,30.099953437499998,15.734662421875Q30.0807834375,15.638292421875,30.0711534375,15.540512421875Q30.0615234375,15.442732421875,30.0615234375,15.344482421875ZM34.0615234375,15.344482421875Q34.0615234375,15.442732421875,34.0518934375,15.540512421875Q34.0422634375,15.638292421875,34.0230934375,15.734662421875Q34.0039234375,15.831032421875,33.9754034375,15.925052421875Q33.9468834375,16.019072421875002,33.9092834375,16.109852421875Q33.8716834375,16.200622421875,33.8253634375,16.287272421875002Q33.7790534375,16.373932421875,33.7244634375,16.455622421875Q33.6698734375,16.537322421875,33.6075434375,16.613272421875Q33.5452134375,16.689222421875,33.4757334375,16.758692421875Q33.4062634375,16.828172421875,33.3303134375,16.890502421875Q33.2543634375,16.952832421875,33.1726634375,17.007422421875Q33.0909734375,17.062002421875,33.0043164375,17.108322421875002Q32.9176644375,17.154642421875,32.8268904375,17.192242421875Q32.7361154375,17.229842421875,32.6420924375,17.258362421875Q32.5480694375,17.286882421875,32.4517044375,17.306052421875002Q32.3553384375,17.325222421875,32.2575574375,17.334852421875Q32.1597771375,17.344482421875,32.0615234375,17.344482421875Q31.9632697375,17.344482421875,31.8654894375,17.334852421875Q31.7677084375,17.325222421875,31.6713424375,17.306052421875002Q31.5749774375,17.286882421875,31.4809544375,17.258362421875Q31.3869314375,17.229842421875,31.2961564375,17.192242421875Q31.2053824375,17.154642421875,31.1187304375,17.108322421875002Q31.0320734375,17.062002421875,30.9503834375,17.007422421875Q30.8686834375,16.952832421875,30.7927334375,16.890502421875Q30.7167834375,16.828172421875,30.6473134375,16.758692421875Q30.5778334375,16.689222421875,30.5155034375,16.613272421875Q30.4531734375,16.537322421875,30.3985834375,16.455622421875Q30.3439934375,16.373932421875,30.297683437499998,16.287272421875002Q30.2513634375,16.200622421875,30.2137634375,16.109852421875Q30.1761634375,16.019072421875002,30.1476434375,15.925052421875Q30.1191234375,15.831032421875,30.099953437499998,15.734662421875Q30.0807834375,15.638292421875,30.0711534375,15.540512421875Q30.0615234375,15.442732421875,30.0615234375,15.344482421875Q30.0615234375,15.246232421875,30.0711534375,15.148452421875Q30.0807834375,15.050672421875,30.099953437499998,14.954302421875Q30.1191234375,14.857932421874999,30.1476434375,14.763912421875Q30.1761634375,14.669892421875,30.2137634375,14.579112421875Q30.2513634375,14.488342421875,30.297683437499998,14.401692421875001Q30.3439934375,14.315032421875,30.3985834375,14.233342421875001Q30.4531734375,14.151642421875,30.5155034375,14.075692421875Q30.5778334375,13.999742421875,30.6473134375,13.930272421875Q30.7167834375,13.860792421875,30.7927334375,13.798462421875Q30.8686834375,13.736132421875,30.9503834375,13.681542421875001Q31.0320734375,13.626952421875,31.1187304375,13.580642421875Q31.2053824375,13.534322421875,31.2961564375,13.496722421874999Q31.3869314375,13.459122421875,31.4809544375,13.430602421875001Q31.5749774375,13.402082421875,31.6713424375,13.382912421875Q31.7677084375,13.363742421875,31.8654894375,13.354112421875Q31.9632697375,13.344482421875,32.0615234375,13.344482421875Q32.1597771375,13.344482421875,32.2575574375,13.354112421875Q32.3553384375,13.363742421875,32.4517044375,13.382912421875Q32.5480694375,13.402082421875,32.6420924375,13.430602421875001Q32.7361154375,13.459122421875,32.8268904375,13.496722421874999Q32.9176644375,13.534322421875,33.0043164375,13.580642421875Q33.0909734375,13.626952421875,33.1726634375,13.681542421875001Q33.2543634375,13.736132421875,33.3303134375,13.798462421875Q33.4062634375,13.860792421875,33.4757334375,13.930272421875Q33.5452134375,13.999742421875,33.6075434375,14.075692421875Q33.6698734375,14.151642421875,33.7244634375,14.233342421875001Q33.7790534375,14.315032421875,33.8253634375,14.401692421875001Q33.8716834375,14.488342421875,33.9092834375,14.579112421875Q33.9468834375,14.669892421875,33.9754034375,14.763912421875Q34.0039234375,14.857932421874999,34.0230934375,14.954302421875Q34.0422634375,15.050672421875,34.0518934375,15.148452421875Q34.0615234375,15.246232421875,34.0615234375,15.344482421875ZM34.0615234375,7.344482421875Q34.0615234375,7.442736121875,34.0518934375,7.540516421875Q34.0422634375,7.638297421875,34.0230934375,7.734663421875Q34.0039234375,7.831028421875,33.9754034375,7.925051421875Q33.9468834375,8.019074421875,33.9092834375,8.109849421875Q33.8716834375,8.200623421875001,33.8253634375,8.287275421875Q33.7790534375,8.373932421875,33.7244634375,8.455622421875Q33.6698734375,8.537322421875,33.6075434375,8.613272421875Q33.5452134375,8.689222421875,33.4757334375,8.758692421875Q33.4062634375,8.828172421875,33.3303134375,8.890502421875Q33.2543634375,8.952832421875,33.1726634375,9.007422421875Q33.0909734375,9.062012421875,33.0043164375,9.108322421875Q32.9176644375,9.154642421875,32.8268904375,9.192242421875001Q32.7361154375,9.229842421875,32.6420924375,9.258362421875Q32.5480694375,9.286882421875,32.4517044375,9.306052421875Q32.3553384375,9.325222421875,32.2575574375,9.334852421875Q32.1597771375,9.344482421875,32.0615234375,9.344482421875Q31.9632697375,9.344482421875,31.8654894375,9.334852421875Q31.7677084375,9.325222421875,31.6713424375,9.306052421875Q31.5749774375,9.286882421875,31.4809544375,9.258362421875Q31.3869314375,9.229842421875,31.2961564375,9.192242421875001Q31.2053824375,9.154642421875,31.1187304375,9.108322421875Q31.0320734375,9.062012421875,30.9503834375,9.007422421875Q30.8686834375,8.952832421875,30.7927334375,8.890502421875Q30.7167834375,8.828172421875,30.6473134375,8.758692421875Q30.5778334375,8.689222421875,30.5155034375,8.613272421875Q30.4531734375,8.537322421875,30.3985834375,8.455622421875Q30.3439934375,8.373932421875,30.297683437499998,8.287275421875Q30.2513634375,8.200623421875001,30.2137634375,8.109849421875Q30.1761634375,8.019074421875,30.1476434375,7.925051421875Q30.1191234375,7.831028421875,30.099953437499998,7.734663421875Q30.0807834375,7.638297421875,30.0711534375,7.540516421875Q30.0615234375,7.442736121875,30.0615234375,7.344482421875Q30.0615234375,7.246228721875,30.0711534375,7.148448421875Q30.0807834375,7.050667421875,30.099953437499998,6.954301421875Q30.1191234375,6.857936421875,30.1476434375,6.763913421875Q30.1761634375,6.669890421875,30.2137634375,6.579115421875Q30.2513634375,6.488341421875,30.297683437499998,6.401689421875Q30.3439934375,6.315032421875,30.3985834375,6.233342421875Q30.4531734375,6.151642421875,30.5155034375,6.075692421875Q30.5778334375,5.999742421875,30.6473134375,5.930272421875Q30.7167834375,5.860792421875,30.7927334375,5.798462421875Q30.8686834375,5.736132421875,30.9503834375,5.681542421875Q31.0320734375,5.626952421875,31.1187304375,5.580642421875Q31.2053824375,5.534322421875,31.2961564375,5.496722421875Q31.3869314375,5.459122421875,31.4809544375,5.430602421875Q31.5749774375,5.402082421875,31.6713424375,5.382912421875Q31.7677084375,5.363742421875,31.8654894375,5.354112421875Q31.9632697375,5.344482421875,32.0615234375,5.344482421875Q32.1597771375,5.344482421875,32.2575574375,5.354112421875Q32.3553384375,5.363742421875,32.4517044375,5.382912421875Q32.5480694375,5.402082421875,32.6420924375,5.430602421875Q32.7361154375,5.459122421875,32.8268904375,5.496722421875Q32.9176644375,5.534322421875,33.0043164375,5.580642421875Q33.0909734375,5.626952421875,33.1726634375,5.681542421875Q33.2543634375,5.736132421875,33.3303134375,5.798462421875Q33.4062634375,5.860792421875,33.4757334375,5.930272421875Q33.5452134375,5.999742421875,33.6075434375,6.075692421875Q33.6698734375,6.151642421875,33.7244634375,6.233342421875Q33.7790534375,6.315032421875,33.8253634375,6.401689421875Q33.8716834375,6.488341421875,33.9092834375,6.579115421875Q33.9468834375,6.669890421875,33.9754034375,6.763913421875Q34.0039234375,6.857936421875,34.0230934375,6.954301421875Q34.0422634375,7.050667421875,34.0518934375,7.148448421875Q34.0615234375,7.246228721875,34.0615234375,7.344482421875Z" fill="#660874" fill-opacity="1"/></g></g><g style="mix-blend-mode:passthrough"><g><ellipse cx="24.5" cy="26.5" rx="9.5" ry="9.5" fill-opacity="0" stroke-opacity="1" stroke="#660874" fill="none" stroke-width="3.5"/></g><g><path d="M28.0625,29.4375L23.3125,29.4375Q23.226528,29.4375,23.14097,29.42907Q23.055412,29.420650000000002,22.971092,29.40387Q22.886772,29.3871,22.804502,29.36214Q22.722231999999998,29.33719,22.642804,29.30429Q22.563376,29.27139,22.487556,29.23086Q22.411735,29.19033,22.340252,29.14257Q22.26877,29.09481,22.20231,29.04027Q22.13585,28.98573,22.07506,28.92494Q22.01427,28.86414,21.95973,28.79769Q21.90519,28.73123,21.85743,28.65975Q21.80966,28.58826,21.76914,28.512439999999998Q21.72861,28.436619999999998,21.69571,28.3572Q21.66281,28.27777,21.63785,28.1955Q21.6129,28.11323,21.59613,28.02891Q21.57935,27.944589999999998,21.57093,27.85903Q21.5625,27.77347,21.5625,27.6875L21.5625,22.9375Q21.5625,22.851528,21.57093,22.76597Q21.57935,22.680412,21.59613,22.596092Q21.6129,22.511772,21.63785,22.429502Q21.66281,22.347231999999998,21.69571,22.267804Q21.72861,22.188376,21.76914,22.112556Q21.80966,22.036735,21.85743,21.965252Q21.90519,21.89377,21.95973,21.82731Q22.01427,21.76085,22.07506,21.70006Q22.13585,21.63927,22.20231,21.58473Q22.26877,21.53019,22.340252,21.48243Q22.411735,21.43466,22.487556,21.39414Q22.563376,21.35361,22.642804,21.32071Q22.722231999999998,21.28781,22.804502,21.26285Q22.886772,21.2379,22.971092,21.22113Q23.055412,21.20435,23.14097,21.19593Q23.226528,21.1875,23.3125,21.1875Q23.398472,21.1875,23.48403,21.19593Q23.569588,21.20435,23.653908,21.22113Q23.738228,21.2379,23.820498,21.26285Q23.902768000000002,21.28781,23.982196,21.32071Q24.061624,21.35361,24.137444,21.39414Q24.213265,21.43466,24.284748,21.48243Q24.35623,21.53019,24.42269,21.58473Q24.48915,21.63927,24.54994,21.70006Q24.61073,21.76085,24.66527,21.82731Q24.71981,21.89377,24.76757,21.965252Q24.81534,22.036735,24.85586,22.112556Q24.89639,22.188376,24.92929,22.267804Q24.96219,22.347231999999998,24.98715,22.429502Q25.0121,22.511772,25.02887,22.596092Q25.04565,22.680412,25.05407,22.76597Q25.0625,22.851528,25.0625,22.9375L25.0625,27.6875L23.3125,27.6875L23.3125,25.9375L28.0625,25.9375Q28.14847,25.9375,28.23403,25.94593Q28.319589999999998,25.954349999999998,28.40391,25.97113Q28.48823,25.9879,28.5705,26.01285Q28.65277,26.03781,28.7322,26.07071Q28.811619999999998,26.10361,28.887439999999998,26.14414Q28.96326,26.18466,29.03475,26.23243Q29.10623,26.28019,29.17269,26.33473Q29.23914,26.38927,29.29994,26.45006Q29.36073,26.51085,29.41527,26.57731Q29.46981,26.64377,29.51757,26.71525Q29.56533,26.78674,29.60586,26.862560000000002Q29.64639,26.938380000000002,29.67929,27.0178Q29.71219,27.09723,29.73714,27.1795Q29.7621,27.26177,29.77887,27.34609Q29.795650000000002,27.430410000000002,29.80407,27.51597Q29.8125,27.60153,29.8125,27.6875Q29.8125,27.77347,29.80407,27.85903Q29.795650000000002,27.944589999999998,29.77887,28.02891Q29.7621,28.11323,29.73714,28.1955Q29.71219,28.27777,29.67929,28.3572Q29.64639,28.436619999999998,29.60586,28.512439999999998Q29.56533,28.58826,29.51757,28.65975Q29.46981,28.73123,29.41527,28.79769Q29.36073,28.86414,29.29994,28.92494Q29.23914,28.98573,29.17269,29.04027Q29.10623,29.09481,29.03475,29.14257Q28.96326,29.19033,28.887439999999998,29.23086Q28.811619999999998,29.27139,28.7322,29.30429Q28.65277,29.33719,28.5705,29.36214Q28.48823,29.3871,28.40391,29.40387Q28.319589999999998,29.420650000000002,28.23403,29.42907Q28.14847,29.4375,28.0625,29.4375ZM29.8125,27.6875Q29.8125,27.77347,29.80407,27.85903Q29.795650000000002,27.944589999999998,29.77887,28.02891Q29.7621,28.11323,29.73714,28.1955Q29.71219,28.27777,29.67929,28.3572Q29.64639,28.436619999999998,29.60586,28.512439999999998Q29.56533,28.58826,29.51757,28.65975Q29.46981,28.73123,29.41527,28.79769Q29.36073,28.86414,29.29994,28.92494Q29.23914,28.98573,29.17269,29.04027Q29.10623,29.09481,29.03475,29.14257Q28.96326,29.19033,28.887439999999998,29.23086Q28.811619999999998,29.27139,28.7322,29.30429Q28.65277,29.33719,28.5705,29.36214Q28.48823,29.3871,28.40391,29.40387Q28.319589999999998,29.420650000000002,28.23403,29.42907Q28.14847,29.4375,28.0625,29.4375Q27.97653,29.4375,27.89097,29.42907Q27.805410000000002,29.420650000000002,27.72109,29.40387Q27.63677,29.3871,27.5545,29.36214Q27.47223,29.33719,27.3928,29.30429Q27.313380000000002,29.27139,27.237560000000002,29.23086Q27.16174,29.19033,27.09025,29.14257Q27.01877,29.09481,26.95231,29.04027Q26.88585,28.98573,26.82506,28.92494Q26.76427,28.86414,26.70973,28.79769Q26.65519,28.73123,26.60743,28.65975Q26.55966,28.58826,26.51914,28.512439999999998Q26.47861,28.436619999999998,26.44571,28.3572Q26.41281,28.27777,26.38785,28.1955Q26.3629,28.11323,26.34613,28.02891Q26.329349999999998,27.944589999999998,26.32093,27.85903Q26.3125,27.77347,26.3125,27.6875Q26.3125,27.60153,26.32093,27.51597Q26.329349999999998,27.430410000000002,26.34613,27.34609Q26.3629,27.26177,26.38785,27.1795Q26.41281,27.09723,26.44571,27.0178Q26.47861,26.938380000000002,26.51914,26.862560000000002Q26.55966,26.78674,26.60743,26.71525Q26.65519,26.64377,26.70973,26.57731Q26.76427,26.51085,26.82506,26.45006Q26.88585,26.38927,26.95231,26.33473Q27.01877,26.28019,27.09025,26.23243Q27.16174,26.18466,27.237560000000002,26.14414Q27.313380000000002,26.10361,27.3928,26.07071Q27.47223,26.03781,27.5545,26.01285Q27.63677,25.9879,27.72109,25.97113Q27.805410000000002,25.954349999999998,27.89097,25.94593Q27.97653,25.9375,28.0625,25.9375Q28.14847,25.9375,28.23403,25.94593Q28.319589999999998,25.954349999999998,28.40391,25.97113Q28.48823,25.9879,28.5705,26.01285Q28.65277,26.03781,28.7322,26.07071Q28.811619999999998,26.10361,28.887439999999998,26.14414Q28.96326,26.18466,29.03475,26.23243Q29.10623,26.28019,29.17269,26.33473Q29.23914,26.38927,29.29994,26.45006Q29.36073,26.51085,29.41527,26.57731Q29.46981,26.64377,29.51757,26.71525Q29.56533,26.78674,29.60586,26.862560000000002Q29.64639,26.938380000000002,29.67929,27.0178Q29.71219,27.09723,29.73714,27.1795Q29.7621,27.26177,29.77887,27.34609Q29.795650000000002,27.430410000000002,29.80407,27.51597Q29.8125,27.60153,29.8125,27.6875ZM25.0625,22.9375Q25.0625,23.023472,25.05407,23.10903Q25.04565,23.194588,25.02887,23.278908Q25.0121,23.363228,24.98715,23.445498Q24.96219,23.527768000000002,24.92929,23.607196Q24.89639,23.686624,24.85586,23.762444Q24.81534,23.838265,24.76757,23.909748Q24.71981,23.98123,24.66527,24.04769Q24.61073,24.11415,24.54994,24.17494Q24.48915,24.23573,24.42269,24.29027Q24.35623,24.34481,24.284748,24.39257Q24.213265,24.44034,24.137444,24.48086Q24.061624,24.52139,23.982196,24.55429Q23.902768000000002,24.58719,23.820498,24.61215Q23.738228,24.6371,23.653908,24.65387Q23.569588,24.67065,23.48403,24.67907Q23.398472,24.6875,23.3125,24.6875Q23.226528,24.6875,23.14097,24.67907Q23.055412,24.67065,22.971092,24.65387Q22.886772,24.6371,22.804502,24.61215Q22.722231999999998,24.58719,22.642804,24.55429Q22.563376,24.52139,22.487556,24.48086Q22.411735,24.44034,22.340252,24.39257Q22.26877,24.34481,22.20231,24.29027Q22.13585,24.23573,22.07506,24.17494Q22.01427,24.11415,21.95973,24.04769Q21.90519,23.98123,21.85743,23.909748Q21.80966,23.838265,21.76914,23.762444Q21.72861,23.686624,21.69571,23.607196Q21.66281,23.527768000000002,21.63785,23.445498Q21.6129,23.363228,21.59613,23.278908Q21.57935,23.194588,21.57093,23.10903Q21.5625,23.023472,21.5625,22.9375Q21.5625,22.851528,21.57093,22.76597Q21.57935,22.680412,21.59613,22.596092Q21.6129,22.511772,21.63785,22.429502Q21.66281,22.347231999999998,21.69571,22.267804Q21.72861,22.188376,21.76914,22.112556Q21.80966,22.036735,21.85743,21.965252Q21.90519,21.89377,21.95973,21.82731Q22.01427,21.76085,22.07506,21.70006Q22.13585,21.63927,22.20231,21.58473Q22.26877,21.53019,22.340252,21.48243Q22.411735,21.43466,22.487556,21.39414Q22.563376,21.35361,22.642804,21.32071Q22.722231999999998,21.28781,22.804502,21.26285Q22.886772,21.2379,22.971092,21.22113Q23.055412,21.20435,23.14097,21.19593Q23.226528,21.1875,23.3125,21.1875Q23.398472,21.1875,23.48403,21.19593Q23.569588,21.20435,23.653908,21.22113Q23.738228,21.2379,23.820498,21.26285Q23.902768000000002,21.28781,23.982196,21.32071Q24.061624,21.35361,24.137444,21.39414Q24.213265,21.43466,24.284748,21.48243Q24.35623,21.53019,24.42269,21.58473Q24.48915,21.63927,24.54994,21.70006Q24.61073,21.76085,24.66527,21.82731Q24.71981,21.89377,24.76757,21.965252Q24.81534,22.036735,24.85586,22.112556Q24.89639,22.188376,24.92929,22.267804Q24.96219,22.347231999999998,24.98715,22.429502Q25.0121,22.511772,25.02887,22.596092Q25.04565,22.680412,25.05407,22.76597Q25.0625,22.851528,25.0625,22.9375Z" fill="#660874" fill-opacity="1"/></g></g></g></svg>