<svg xmlns="http://www.w3.org/2000/svg" xmlns:xlink="http://www.w3.org/1999/xlink" fill="none" version="1.1" width="48" height="48" viewBox="0 0 48 48"><defs><clipPath id="master_svg0_502_363"><rect x="0" y="0" width="48" height="48" rx="0"/></clipPath></defs><g clip-path="url(#master_svg0_502_363)"><g><rect x="0" y="0" width="48" height="48" rx="0" fill="#FFFFFF" fill-opacity="0.009999999776482582"/></g><g><path d="M2,38L2,10Q2,9.9017463,2.00963,9.803966Q2.01926,9.706185,2.03843,9.609819Q2.0576,9.513454,2.08612,9.419431Q2.11464,9.325408,2.15224,9.234633Q2.1898400000000002,9.143858999999999,2.23616,9.057207Q2.28247,8.97055,2.33706,8.88886Q2.3916500000000003,8.80716,2.45398,8.73121Q2.51631,8.65526,2.5857900000000003,8.58579Q2.65526,8.51631,2.73121,8.45398Q2.80716,8.39165,2.88886,8.33706Q2.9705500000000002,8.28247,3.057207,8.23616Q3.143859,8.18984,3.234633,8.152239999999999Q3.325408,8.11464,3.419431,8.08612Q3.513454,8.0576,3.609819,8.03843Q3.706185,8.01926,3.803966,8.00963Q3.9017463,8,4,8L36,8Q36.0983,8,36.196,8.00963Q36.2938,8.01926,36.3902,8.03843Q36.4865,8.0576,36.5806,8.08612Q36.6746,8.11464,36.7654,8.152239999999999Q36.8561,8.18984,36.9428,8.23616Q37.0294,8.28247,37.1111,8.33706Q37.1928,8.39165,37.2688,8.45398Q37.3447,8.51631,37.4142,8.58579Q37.4837,8.65526,37.546,8.73121Q37.6083,8.80716,37.6629,8.88886Q37.7175,8.97055,37.7638,9.057207Q37.8102,9.143858999999999,37.8478,9.234633Q37.8854,9.325408,37.9139,9.419431Q37.9424,9.513454,37.9616,9.609819Q37.9807,9.706185,37.9904,9.803966Q38,9.9017463,38,10L38,38Q38,38.098299999999995,37.9904,38.196Q37.9807,38.293800000000005,37.9616,38.3902Q37.9424,38.4865,37.9139,38.580600000000004Q37.8854,38.6746,37.8478,38.7654Q37.8102,38.8561,37.7638,38.9428Q37.7175,39.029399999999995,37.6629,39.1111Q37.6083,39.1928,37.546,39.2688Q37.4837,39.3447,37.4142,39.4142Q37.3447,39.4837,37.2688,39.546Q37.1928,39.6084,37.1111,39.6629Q37.0294,39.7175,36.9428,39.7638Q36.8561,39.810199999999995,36.7654,39.8478Q36.6746,39.885400000000004,36.5806,39.9139Q36.4865,39.9424,36.3902,39.961600000000004Q36.2938,39.9807,36.196,39.9904Q36.0983,40,36,40L4,40Q3.9017463,40,3.803966,39.9904Q3.706185,39.9807,3.609819,39.961600000000004Q3.513454,39.9424,3.419431,39.9139Q3.325408,39.885400000000004,3.234633,39.8478Q3.143859,39.810199999999995,3.057207,39.7638Q2.9705500000000002,39.7175,2.88886,39.6629Q2.80716,39.6083,2.73121,39.546Q2.65526,39.4837,2.5857900000000003,39.4142Q2.51631,39.3447,2.45398,39.2688Q2.3916500000000003,39.1928,2.33706,39.1111Q2.28247,39.029399999999995,2.23616,38.9428Q2.1898400000000002,38.8561,2.15224,38.7654Q2.11464,38.6746,2.08612,38.580600000000004Q2.0576,38.4865,2.03843,38.3902Q2.01926,38.293800000000005,2.00963,38.196Q2,38.098299999999995,2,38ZM6,12L6,36L34,36L34,12L6,12Z" fill="#660874" fill-opacity="1"/></g><g><path d="M42,34L42,14L44,14L45.28974,15.52858L37.28974,22.278579999999998L36,20.75L38,20.75L38,27.25L36,27.25L37.28974,25.7214L45.28974,32.4714L44,34L42,34ZM46,34Q46,34.1757,45.96938,34.348600000000005Q45.93876,34.5216,45.87845,34.6866Q45.81815,34.851600000000005,45.73001,35.0035Q45.64186,35.1555,45.52858,35.289699999999996Q45.46522,35.3648,45.39481,35.4334Q45.32439,35.5019,45.24759,35.563199999999995Q45.1708,35.6245,45.08837,35.6779Q45.00594,35.7314,44.91866,35.7765Q44.83139,35.8217,44.74011,35.858000000000004Q44.648830000000004,35.894400000000005,44.554429999999996,35.9216Q44.46002,35.948899999999995,44.36341,35.9667Q44.26679,35.9846,44.16889,35.9929Q44.07098,36.0012,43.97274,35.9998Q43.87449,35.9985,43.776849999999996,35.9875Q43.67921,35.9765,43.58312,35.9561Q43.48702,35.9356,43.3934,35.9058Q43.29977,35.876000000000005,43.20952,35.837199999999996Q43.11926,35.7983,43.03325,35.7508Q42.94724,35.7033,42.8663,35.6476Q42.78535,35.591899999999995,42.71026,35.5286L34.71026,28.7786Q34.54338,28.6378,34.41081,28.4643Q34.27824,28.2908,34.18624,28.0928Q34.09423,27.8948,34.04711,27.6816Q34,27.4683,34,27.25L34,20.75Q34,20.53165,34.04711,20.31845Q34.09423,20.105249999999998,34.18624,19.90723Q34.27824,19.709220000000002,34.41081,19.53572Q34.54338,19.36222,34.71026,19.221420000000002L42.71026,12.47142Q42.84452,12.35814,42.99647,12.26999Q43.14841,12.18185,43.3134,12.12155Q43.47839,12.06124,43.65136,12.03062Q43.82434,12,44,12Q44.09825,12,44.19603,12.00963Q44.29381,12.01926,44.39018,12.03843Q44.48655,12.0576,44.58057,12.08612Q44.67459,12.11464,44.765370000000004,12.152239999999999Q44.856139999999996,12.18984,44.94279,12.23616Q45.02945,12.28247,45.11114,12.33706Q45.192840000000004,12.39165,45.268789999999996,12.45398Q45.34474,12.51631,45.41421,12.58579Q45.483689999999996,12.65526,45.54602,12.73121Q45.60835,12.80716,45.66294,12.88886Q45.71752,12.97055,45.76384,13.057207Q45.810159999999996,13.143858999999999,45.84776,13.234633Q45.88536,13.325408,45.91388,13.419431Q45.9424,13.513454,45.96157,13.609819Q45.98074,13.706185,45.99037,13.803966Q46,13.9017463,46,14L46,34Z" fill="#660874" fill-opacity="1"/></g><g><path d="M15.71963,27.46356L21.719630000000002,22.46356L23,24L21.719630000000002,25.53644L15.71963,20.53644Q15.64415,20.47354,15.5752,20.40355Q15.50625,20.33355,15.44449,20.25713Q15.38273,20.18072,15.328759999999999,20.09861Q15.27479,20.01651,15.22912,19.929512Q15.18346,19.842514,15.14654,19.75146Q15.10962,19.660405,15.08181,19.56617Q15.054,19.471936,15.03555,19.375429Q15.01711,19.278922,15.00821,19.181071Q14.99932,19.0832213,15.00006,18.9849704Q15.00079,18.886719,15.01116,18.789014Q15.02153,18.691309,15.04142,18.59509Q15.06131,18.498871,15.09054,18.405065Q15.11976,18.311259,15.15804,18.220769Q15.19633,18.13028,15.24329,18.043978Q15.29026,17.95768,15.34546,17.87639Q15.40066,17.79511,15.46356,17.71963Q15.52646,17.64415,15.59645,17.5752Q15.66645,17.50625,15.74287,17.444490000000002Q15.81928,17.38273,15.90139,17.32876Q15.98349,17.27479,16.070488,17.22912Q16.157486,17.18346,16.24854,17.14654Q16.339595,17.10962,16.43383,17.08181Q16.528064,17.054,16.624571,17.03555Q16.721078,17.01711,16.818929,17.00821Q16.9167787,16.99932,17.0150296,17.00006Q17.113281,17.00079,17.210986,17.01116Q17.308691,17.02153,17.40491,17.04142Q17.501129,17.06131,17.594935,17.09054Q17.688741,17.11976,17.779231,17.15804Q17.86972,17.19633,17.956022,17.243290000000002Q18.04232,17.29026,18.12361,17.34546Q18.20489,17.40066,18.28037,17.46356L24.280369999999998,22.46356Q24.42005,22.57995,24.53644,22.71963Q24.599339999999998,22.79511,24.65454,22.87639Q24.70974,22.95768,24.756709999999998,23.04398Q24.80367,23.13028,24.84196,23.22077Q24.88024,23.31126,24.90946,23.40506Q24.93869,23.49887,24.95858,23.59509Q24.97847,23.69131,24.98884,23.78901Q24.999200000000002,23.88672,24.99994,23.98497Q25.00068,24.08322,24.99179,24.18107Q24.98289,24.27892,24.96445,24.37543Q24.945999999999998,24.47194,24.91819,24.56617Q24.89037,24.6604,24.85346,24.75146Q24.81654,24.84251,24.77088,24.92951Q24.72521,25.01651,24.67124,25.09861Q24.61727,25.18071,24.555509999999998,25.25713Q24.49375,25.33355,24.4248,25.40355Q24.35585,25.47354,24.280369999999998,25.53644L18.28037,30.5364Q18.20489,30.5993,18.12361,30.6545Q18.04232,30.709699999999998,17.956022,30.756700000000002Q17.86972,30.8037,17.779231,30.842Q17.688741,30.880200000000002,17.594935,30.9095Q17.501129,30.9387,17.40491,30.9586Q17.308691,30.9785,17.210986,30.988799999999998Q17.113281,30.999200000000002,17.0150296,30.9999Q16.9167787,31.000700000000002,16.818929,30.991799999999998Q16.721078,30.9829,16.624571,30.964399999999998Q16.528064,30.945999999999998,16.43383,30.9182Q16.339595,30.8904,16.24854,30.8535Q16.157486,30.816499999999998,16.070488,30.770899999999997Q15.98349,30.7252,15.90139,30.6712Q15.81928,30.6173,15.74287,30.555500000000002Q15.66645,30.4938,15.59645,30.424799999999998Q15.52646,30.3559,15.46356,30.2804Q15.40066,30.204900000000002,15.34546,30.1236Q15.29026,30.042299999999997,15.24329,29.956Q15.19633,29.8697,15.15804,29.7792Q15.11976,29.6887,15.09054,29.594900000000003Q15.06131,29.5011,15.04142,29.404899999999998Q15.02153,29.3087,15.01116,29.211Q15.0008,29.113300000000002,15.00006,29.015Q14.99932,28.91678,15.00821,28.81893Q15.01711,28.72108,15.03555,28.62457Q15.054,28.52806,15.08181,28.43383Q15.10962,28.33959,15.14654,28.24854Q15.18346,28.15749,15.22912,28.07049Q15.27479,27.98349,15.328759999999999,27.90139Q15.38273,27.81928,15.44449,27.74287Q15.50625,27.666449999999998,15.5752,27.59645Q15.64415,27.52646,15.71963,27.46356ZM19,29Q19,29.098300000000002,18.99037,29.195999999999998Q18.98074,29.293799999999997,18.961570000000002,29.3902Q18.9424,29.4865,18.91388,29.5806Q18.88536,29.674599999999998,18.84776,29.7654Q18.81016,29.856099999999998,18.763840000000002,29.9428Q18.71753,30.029400000000003,18.66294,30.1111Q18.60835,30.1928,18.54602,30.2688Q18.48369,30.3447,18.41421,30.4142Q18.34474,30.4837,18.26879,30.546Q18.19284,30.6084,18.11114,30.6629Q18.02945,30.7175,17.942793,30.7638Q17.856141,30.810200000000002,17.765367,30.8478Q17.674592,30.8854,17.580569,30.913899999999998Q17.486546,30.9424,17.390181,30.9616Q17.293815,30.9807,17.196034,30.9904Q17.0982537,31,17,31Q16.9017463,31,16.803966,30.9904Q16.706185,30.9807,16.609819,30.9616Q16.513454,30.9424,16.419431,30.913899999999998Q16.325408,30.8854,16.234633,30.8478Q16.143859,30.810200000000002,16.057207,30.7638Q15.97055,30.7175,15.88886,30.6629Q15.80716,30.6084,15.73121,30.546Q15.65526,30.4837,15.58579,30.4142Q15.51631,30.3447,15.45398,30.2688Q15.39165,30.1928,15.33706,30.1111Q15.28247,30.029400000000003,15.23616,29.9428Q15.18984,29.856099999999998,15.152239999999999,29.7654Q15.11464,29.674599999999998,15.08612,29.5806Q15.0576,29.4865,15.03843,29.3902Q15.01926,29.293799999999997,15.00963,29.195999999999998Q15,29.098300000000002,15,29Q15,28.90175,15.00963,28.80397Q15.01926,28.70619,15.03843,28.60982Q15.0576,28.51345,15.08612,28.41943Q15.11464,28.325409999999998,15.152239999999999,28.23463Q15.18984,28.14386,15.23616,28.057209999999998Q15.28247,27.97055,15.33706,27.88886Q15.39165,27.80716,15.45398,27.73121Q15.51631,27.65526,15.58579,27.58579Q15.65526,27.51631,15.73121,27.45398Q15.80716,27.39165,15.88886,27.33706Q15.97055,27.28247,16.057207,27.236159999999998Q16.143859,27.18984,16.234633,27.15224Q16.325408,27.11464,16.419431,27.08612Q16.513454,27.0576,16.609819,27.038429999999998Q16.706185,27.01926,16.803966,27.00963Q16.9017463,27,17,27Q17.0982537,27,17.196034,27.00963Q17.293815,27.01926,17.390181,27.038429999999998Q17.486546,27.0576,17.580569,27.08612Q17.674592,27.11464,17.765367,27.15224Q17.856141,27.18984,17.942793,27.236159999999998Q18.02945,27.28247,18.11114,27.33706Q18.19284,27.39165,18.26879,27.45398Q18.34474,27.51631,18.41421,27.58579Q18.48369,27.65526,18.54602,27.73121Q18.60835,27.80716,18.66294,27.88886Q18.71753,27.97056,18.763840000000002,28.057209999999998Q18.81016,28.14386,18.84776,28.23463Q18.88536,28.325409999999998,18.91388,28.41943Q18.9424,28.51345,18.961570000000002,28.60982Q18.98074,28.70619,18.99037,28.80397Q19,28.90175,19,29ZM19,19Q19,19.0982537,18.99037,19.196034Q18.98074,19.293815,18.961570000000002,19.390181Q18.9424,19.486546,18.91388,19.580569Q18.88536,19.674592,18.84776,19.765367Q18.81016,19.856141,18.763840000000002,19.942793Q18.71753,20.02945,18.66294,20.11114Q18.60835,20.19284,18.54602,20.26879Q18.48369,20.34474,18.41421,20.41421Q18.34474,20.48369,18.26879,20.54602Q18.19284,20.60835,18.11114,20.66294Q18.02945,20.71753,17.942793,20.763840000000002Q17.856141,20.81016,17.765367,20.84776Q17.674592,20.88536,17.580569,20.91388Q17.486546,20.9424,17.390181,20.961570000000002Q17.293815,20.98074,17.196034,20.99037Q17.0982537,21,17,21Q16.9017463,21,16.803966,20.99037Q16.706185,20.98074,16.609819,20.961570000000002Q16.513454,20.9424,16.419431,20.91388Q16.325408,20.88536,16.234633,20.84776Q16.143859,20.81016,16.057207,20.763840000000002Q15.97055,20.71753,15.88886,20.66294Q15.80716,20.60835,15.73121,20.54602Q15.65526,20.48369,15.58579,20.41421Q15.51631,20.34474,15.45398,20.26879Q15.39165,20.19284,15.33706,20.11114Q15.28247,20.02945,15.23616,19.942793Q15.18984,19.856141,15.152239999999999,19.765367Q15.11464,19.674592,15.08612,19.580569Q15.0576,19.486546,15.03843,19.390181Q15.01926,19.293815,15.00963,19.196034Q15,19.0982537,15,19Q15,18.9017463,15.00963,18.803966Q15.01926,18.706185,15.03843,18.609819Q15.0576,18.513454,15.08612,18.419431Q15.11464,18.325408,15.152239999999999,18.234633Q15.18984,18.143859,15.23616,18.057207Q15.28247,17.97055,15.33706,17.88886Q15.39165,17.80716,15.45398,17.73121Q15.51631,17.65526,15.58579,17.58579Q15.65526,17.51631,15.73121,17.45398Q15.80716,17.39165,15.88886,17.33706Q15.97055,17.28247,16.057207,17.236159999999998Q16.143859,17.18984,16.234633,17.15224Q16.325408,17.11464,16.419431,17.08612Q16.513454,17.0576,16.609819,17.038429999999998Q16.706185,17.01926,16.803966,17.00963Q16.9017463,17,17,17Q17.0982537,17,17.196034,17.00963Q17.293815,17.01926,17.390181,17.038429999999998Q17.486546,17.0576,17.580569,17.08612Q17.674592,17.11464,17.765367,17.15224Q17.856141,17.18984,17.942793,17.236159999999998Q18.02945,17.28247,18.11114,17.33706Q18.19284,17.39165,18.26879,17.45398Q18.34474,17.51631,18.41421,17.58579Q18.48369,17.65526,18.54602,17.73121Q18.60835,17.80716,18.66294,17.88886Q18.71753,17.97055,18.763840000000002,18.057207Q18.81016,18.143859,18.84776,18.234633Q18.88536,18.325408,18.91388,18.419431Q18.9424,18.513454,18.961570000000002,18.609819Q18.98074,18.706185,18.99037,18.803966Q19,18.9017463,19,19Z" fill="#660874" fill-opacity="1"/></g></g></svg>