<svg xmlns="http://www.w3.org/2000/svg" xmlns:xlink="http://www.w3.org/1999/xlink" fill="none" version="1.1" width="48" height="48" viewBox="0 0 48 48"><defs><clipPath id="master_svg0_1_6551"><rect x="0" y="0" width="48" height="48" rx="0"/></clipPath></defs><g clip-path="url(#master_svg0_1_6551)"><g><rect x="0" y="0" width="48" height="48" rx="0" fill="#FFFFFF" fill-opacity="0.009999999776482582"/></g><g><path d="M6,24Q6,31.4558,11.272079999999999,36.7279Q16.5442,42,24,42Q31.4558,42,36.7279,36.7279Q42,31.4558,42,24Q42,16.5442,36.7279,11.272079999999999Q31.4558,6,24,6Q16.5442,6,11.272079999999999,11.272079999999999Q6,16.5442,6,24ZM2,24Q2,14.8873,8.44365,8.44365Q14.8873,2,24,2Q33.112700000000004,2,39.5564,8.44365Q46,14.8873,46,24Q46,33.112700000000004,39.5564,39.5564Q33.112700000000004,46,24,46Q14.8873,46,8.44365,39.5564Q2,33.112700000000004,2,24Z" fill="#660874" fill-opacity="1"/></g><g><path d="M18,30.928200231933594L18,24.000000231933594L18,17.071800231933594Q18,16.973546531933593,18.00963,16.875766231933593Q18.01926,16.777985231933595,18.038429999999998,16.681619231933595Q18.0576,16.585254231933593,18.08612,16.491231231933593Q18.11464,16.397208231933593,18.15224,16.306433231933593Q18.18984,16.215659231933593,18.236159999999998,16.129007231933592Q18.28247,16.042350231933593,18.33706,15.960660231933593Q18.39165,15.878960231933593,18.45398,15.803010231933595Q18.51631,15.727060231933594,18.58579,15.657590231933593Q18.65526,15.588110231933594,18.73121,15.525780231933593Q18.80716,15.463450231933594,18.88886,15.408860231933593Q18.97055,15.354270231933594,19.057207,15.307960231933594Q19.143859,15.261640231933594,19.234633,15.224040231933593Q19.325408,15.186440231933593,19.419431,15.157920231933593Q19.513454,15.129400231933595,19.609819,15.110230231933594Q19.706185,15.091060231933593,19.803966,15.081430231933593Q19.9017463,15.071800231933594,20,15.071800231933594Q20.263305,15.071800231933594,20.517638,15.139950231933593Q20.771971,15.208100231933594,21,15.339750231933593L27,18.803850231933595L33,22.267950231933593Q33.0851,22.317080231933595,33.165,22.374310231933592Q33.2448,22.431540231933596,33.3187,22.496320231933595Q33.3926,22.561100231933594,33.4597,22.632820231933593Q33.5269,22.704530231933592,33.5867,22.782480231933594Q33.6465,22.860430231933595,33.6984,22.943860231933595Q33.750299999999996,23.027300231933594,33.7937,23.115420231933594Q33.837199999999996,23.203540231933594,33.8718,23.295500231933595Q33.9064,23.387460231933595,33.9319,23.482360231933594Q33.957300000000004,23.577270231933593,33.9733,23.674210231933593Q33.9893,23.771150231933593,33.9957,23.869190231933594Q34.0021,23.967240231933594,33.9989,24.065440231933593Q33.9957,24.163640231933595,33.9829,24.261050231933595Q33.9701,24.358460231933595,33.9478,24.454150231933593Q33.925399999999996,24.549840231933594,33.8939,24.642880231933596Q33.8623,24.735920231933594,33.8217,24.825410231933596Q33.7812,24.914910231933593,33.7321,25.000000231933594Q33.6004,25.228030231933595,33.4142,25.414210231933595Q33.228,25.600400231933595,33,25.73205023193359L27,29.196200231933595L21,32.66030023193359Q20.914909,32.70940023193359,20.825414,32.749900231933594Q20.735918,32.79050023193359,20.642878,32.82210023193359Q20.549839,32.8536002319336,20.454152,32.876000231933595Q20.358465,32.89830023193359,20.261052,32.911100231933595Q20.163639,32.923900231933594,20.0654378,32.92710023193359Q19.9672367,32.93030023193359,19.869193,32.923900231933594Q19.77115,32.917500231933595,19.674209,32.901500231933596Q19.577267,32.88550023193359,19.482362,32.8600002319336Q19.387456,32.83460023193359,19.2955,32.800000231933595Q19.203543,32.7654002319336,19.115422,32.721900231933596Q19.027301,32.6785002319336,18.94386,32.626600231933594Q18.86043,32.57470023193359,18.78248,32.514900231933595Q18.70453,32.45510023193359,18.63282,32.38790023193359Q18.5611,32.320800231933596,18.49632,32.246900231933594Q18.43154,32.17300023193359,18.37431,32.093200231933594Q18.31708,32.01330023193359,18.26795,31.928200231933594Q18.1363,31.700200231933593,18.06815,31.445800231933596Q18,31.191500231933595,18,30.928200231933594ZM22,30.928200231933594L20,30.928200231933594L19,29.196100231933592L25,25.73205023193359L31,22.267950231933593L32,24.000000231933594L31,25.73205023193359L25,22.267950231933593L19,18.803850231933595L20,17.071800231933594L22,17.071800231933594L22,24.000000231933594L22,30.928200231933594Z" fill="#660874" fill-opacity="1"/></g></g></svg>