<svg xmlns="http://www.w3.org/2000/svg" xmlns:xlink="http://www.w3.org/1999/xlink" fill="none" version="1.1" width="48" height="48" viewBox="0 0 48 48"><defs><clipPath id="master_svg0_1_6254"><rect x="0" y="0" width="48" height="48" rx="0"/></clipPath></defs><g clip-path="url(#master_svg0_1_6254)"><g><rect x="0" y="0" width="48" height="48" rx="0" fill="#FFFFFF" fill-opacity="0.009999999776482582"/></g><g><path d="M6,24Q6,31.4558,11.272079999999999,36.7279Q16.5442,42,24,42Q31.4558,42,36.7279,36.7279Q42,31.4558,42,24Q42,16.5442,36.7279,11.272079999999999Q31.4558,6,24,6Q16.5442,6,11.272079999999999,11.272079999999999Q6,16.5442,6,24ZM2,24Q2,14.8873,8.44365,8.44365Q14.8873,2,24,2Q33.112700000000004,2,39.5564,8.44365Q46,14.8873,46,24Q46,33.112700000000004,39.5564,39.5564Q33.112700000000004,46,24,46Q14.8873,46,8.44365,39.5564Q2,33.112700000000004,2,24Z" fill="#660874" fill-opacity="1"/></g><g><path d="M17,30L17,18Q17,17.9017463,17.00963,17.803966Q17.01926,17.706185,17.038429999999998,17.609819Q17.0576,17.513454,17.08612,17.419431Q17.11464,17.325408,17.15224,17.234633Q17.18984,17.143859,17.236159999999998,17.057207Q17.28247,16.97055,17.33706,16.88886Q17.39165,16.80716,17.45398,16.73121Q17.51631,16.65526,17.58579,16.58579Q17.65526,16.51631,17.73121,16.45398Q17.80716,16.39165,17.88886,16.33706Q17.97055,16.28247,18.057207,16.236159999999998Q18.143859,16.18984,18.234633,16.15224Q18.325408,16.11464,18.419431,16.08612Q18.513454,16.0576,18.609819,16.038429999999998Q18.706185,16.01926,18.803966,16.00963Q18.9017463,16,19,16Q19.0982537,16,19.196034,16.00963Q19.293815,16.01926,19.390181,16.038429999999998Q19.486546,16.0576,19.580569,16.08612Q19.674592,16.11464,19.765367,16.15224Q19.856141,16.18984,19.942793,16.236159999999998Q20.02945,16.28247,20.11114,16.33706Q20.19284,16.39165,20.26879,16.45398Q20.34474,16.51631,20.41421,16.58579Q20.48369,16.65526,20.54602,16.73121Q20.60835,16.80716,20.66294,16.88886Q20.71753,16.97055,20.763840000000002,17.057207Q20.81016,17.143859,20.84776,17.234633Q20.88536,17.325408,20.91388,17.419431Q20.9424,17.513454,20.961570000000002,17.609819Q20.98074,17.706185,20.99037,17.803966Q21,17.9017463,21,18L21,30Q21,30.098300000000002,20.99037,30.195999999999998Q20.98074,30.293799999999997,20.961570000000002,30.3902Q20.9424,30.4865,20.91388,30.5806Q20.88536,30.674599999999998,20.84776,30.7654Q20.81016,30.856099999999998,20.763840000000002,30.9428Q20.71753,31.029400000000003,20.66294,31.1111Q20.60835,31.1928,20.54602,31.2688Q20.48369,31.3447,20.41421,31.4142Q20.34474,31.4837,20.26879,31.546Q20.19284,31.6084,20.11114,31.6629Q20.02945,31.7175,19.942793,31.7638Q19.856141,31.810200000000002,19.765367,31.8478Q19.674592,31.8854,19.580569,31.913899999999998Q19.486546,31.9424,19.390181,31.9616Q19.293815,31.9807,19.196034,31.9904Q19.0982537,32,19,32Q18.9017463,32,18.803966,31.9904Q18.706185,31.9807,18.609819,31.9616Q18.513454,31.9424,18.419431,31.913899999999998Q18.325408,31.8854,18.234633,31.8478Q18.143859,31.810200000000002,18.057207,31.7638Q17.97055,31.7175,17.88886,31.6629Q17.80716,31.6084,17.73121,31.546Q17.65526,31.4837,17.58579,31.4142Q17.51631,31.3447,17.45398,31.2688Q17.39165,31.1928,17.33706,31.1111Q17.28247,31.029400000000003,17.236159999999998,30.9428Q17.18984,30.856099999999998,17.15224,30.7654Q17.11464,30.674599999999998,17.08612,30.5806Q17.0576,30.4865,17.038429999999998,30.3902Q17.01926,30.293799999999997,17.00963,30.195999999999998Q17,30.098300000000002,17,30ZM21,30Q21,30.098300000000002,20.99037,30.195999999999998Q20.98074,30.293799999999997,20.961570000000002,30.3902Q20.9424,30.4865,20.91388,30.5806Q20.88536,30.674599999999998,20.84776,30.7654Q20.81016,30.856099999999998,20.763840000000002,30.9428Q20.71753,31.029400000000003,20.66294,31.1111Q20.60835,31.1928,20.54602,31.2688Q20.48369,31.3447,20.41421,31.4142Q20.34474,31.4837,20.26879,31.546Q20.19284,31.6084,20.11114,31.6629Q20.02945,31.7175,19.942793,31.7638Q19.856141,31.810200000000002,19.765367,31.8478Q19.674592,31.8854,19.580569,31.913899999999998Q19.486546,31.9424,19.390181,31.9616Q19.293815,31.9807,19.196034,31.9904Q19.0982537,32,19,32Q18.9017463,32,18.803966,31.9904Q18.706185,31.9807,18.609819,31.9616Q18.513454,31.9424,18.419431,31.913899999999998Q18.325408,31.8854,18.234633,31.8478Q18.143859,31.810200000000002,18.057207,31.7638Q17.97055,31.7175,17.88886,31.6629Q17.80716,31.6084,17.73121,31.546Q17.65526,31.4837,17.58579,31.4142Q17.51631,31.3447,17.45398,31.2688Q17.39165,31.1928,17.33706,31.1111Q17.28247,31.029400000000003,17.236159999999998,30.9428Q17.18984,30.856099999999998,17.15224,30.7654Q17.11464,30.674599999999998,17.08612,30.5806Q17.0576,30.4865,17.038429999999998,30.3902Q17.01926,30.293799999999997,17.00963,30.195999999999998Q17,30.098300000000002,17,30Q17,29.901699999999998,17.00963,29.804000000000002Q17.01926,29.706200000000003,17.038429999999998,29.6098Q17.0576,29.5135,17.08612,29.4194Q17.11464,29.325400000000002,17.15224,29.2346Q17.18984,29.143900000000002,17.236159999999998,29.0572Q17.28247,28.970599999999997,17.33706,28.8889Q17.39165,28.8072,17.45398,28.7312Q17.51631,28.6553,17.58579,28.5858Q17.65526,28.5163,17.73121,28.454Q17.80716,28.3916,17.88886,28.3371Q17.97055,28.2825,18.057207,28.2362Q18.143859,28.189799999999998,18.234633,28.1522Q18.325408,28.1146,18.419431,28.086100000000002Q18.513454,28.0576,18.609819,28.0384Q18.706185,28.0193,18.803966,28.0096Q18.9017463,28,19,28Q19.0982537,28,19.196034,28.0096Q19.293815,28.0193,19.390181,28.0384Q19.486546,28.0576,19.580569,28.086100000000002Q19.674592,28.1146,19.765367,28.1522Q19.856141,28.189799999999998,19.942793,28.2362Q20.02945,28.2825,20.11114,28.3371Q20.19284,28.3916,20.26879,28.454Q20.34474,28.5163,20.41421,28.5858Q20.48369,28.6553,20.54602,28.7312Q20.60835,28.8072,20.66294,28.8889Q20.71753,28.970599999999997,20.763840000000002,29.0572Q20.81016,29.143900000000002,20.84776,29.2346Q20.88536,29.325400000000002,20.91388,29.4194Q20.9424,29.5135,20.961570000000002,29.6098Q20.98074,29.706200000000003,20.99037,29.804000000000002Q21,29.901699999999998,21,30ZM21,18Q21,18.0982537,20.99037,18.196034Q20.98074,18.293815,20.961570000000002,18.390181Q20.9424,18.486546,20.91388,18.580569Q20.88536,18.674592,20.84776,18.765367Q20.81016,18.856141,20.763840000000002,18.942793Q20.71753,19.02945,20.66294,19.11114Q20.60835,19.19284,20.54602,19.26879Q20.48369,19.34474,20.41421,19.41421Q20.34474,19.48369,20.26879,19.54602Q20.19284,19.60835,20.11114,19.66294Q20.02945,19.71753,19.942793,19.763840000000002Q19.856141,19.81016,19.765367,19.84776Q19.674592,19.88536,19.580569,19.91388Q19.486546,19.9424,19.390181,19.961570000000002Q19.293815,19.98074,19.196034,19.99037Q19.0982537,20,19,20Q18.9017463,20,18.803966,19.99037Q18.706185,19.98074,18.609819,19.961570000000002Q18.513454,19.9424,18.419431,19.91388Q18.325408,19.88536,18.234633,19.84776Q18.143859,19.81016,18.057207,19.763840000000002Q17.97055,19.71753,17.88886,19.66294Q17.80716,19.60835,17.73121,19.54602Q17.65526,19.48369,17.58579,19.41421Q17.51631,19.34474,17.45398,19.26879Q17.39165,19.19284,17.33706,19.11114Q17.28247,19.02945,17.236159999999998,18.942793Q17.18984,18.856141,17.15224,18.765367Q17.11464,18.674592,17.08612,18.580569Q17.0576,18.486546,17.038429999999998,18.390181Q17.01926,18.293815,17.00963,18.196034Q17,18.0982537,17,18Q17,17.9017463,17.00963,17.803966Q17.01926,17.706185,17.038429999999998,17.609819Q17.0576,17.513454,17.08612,17.419431Q17.11464,17.325408,17.15224,17.234633Q17.18984,17.143859,17.236159999999998,17.057207Q17.28247,16.97055,17.33706,16.88886Q17.39165,16.80716,17.45398,16.73121Q17.51631,16.65526,17.58579,16.58579Q17.65526,16.51631,17.73121,16.45398Q17.80716,16.39165,17.88886,16.33706Q17.97055,16.28247,18.057207,16.236159999999998Q18.143859,16.18984,18.234633,16.15224Q18.325408,16.11464,18.419431,16.08612Q18.513454,16.0576,18.609819,16.038429999999998Q18.706185,16.01926,18.803966,16.00963Q18.9017463,16,19,16Q19.0982537,16,19.196034,16.00963Q19.293815,16.01926,19.390181,16.038429999999998Q19.486546,16.0576,19.580569,16.08612Q19.674592,16.11464,19.765367,16.15224Q19.856141,16.18984,19.942793,16.236159999999998Q20.02945,16.28247,20.11114,16.33706Q20.19284,16.39165,20.26879,16.45398Q20.34474,16.51631,20.41421,16.58579Q20.48369,16.65526,20.54602,16.73121Q20.60835,16.80716,20.66294,16.88886Q20.71753,16.97055,20.763840000000002,17.057207Q20.81016,17.143859,20.84776,17.234633Q20.88536,17.325408,20.91388,17.419431Q20.9424,17.513454,20.961570000000002,17.609819Q20.98074,17.706185,20.99037,17.803966Q21,17.9017463,21,18Z" fill="#660874" fill-opacity="1"/></g><g><path d="M27,30L27,18Q27,17.9017463,27.00963,17.803966Q27.01926,17.706185,27.038429999999998,17.609819Q27.0576,17.513454,27.08612,17.419431Q27.11464,17.325408,27.15224,17.234633Q27.18984,17.143859,27.236159999999998,17.057207Q27.28247,16.97055,27.33706,16.88886Q27.39165,16.80716,27.45398,16.73121Q27.51631,16.65526,27.58579,16.58579Q27.65526,16.51631,27.73121,16.45398Q27.80716,16.39165,27.88886,16.33706Q27.97055,16.28247,28.057207,16.236159999999998Q28.143859,16.18984,28.234633,16.15224Q28.325408,16.11464,28.419431,16.08612Q28.513454,16.0576,28.609819,16.038429999999998Q28.706185,16.01926,28.803966,16.00963Q28.9017463,16,29,16Q29.0982537,16,29.196034,16.00963Q29.293815,16.01926,29.390181,16.038429999999998Q29.486546,16.0576,29.580569,16.08612Q29.674592,16.11464,29.765367,16.15224Q29.856141,16.18984,29.942793,16.236159999999998Q30.02945,16.28247,30.11114,16.33706Q30.19284,16.39165,30.26879,16.45398Q30.34474,16.51631,30.41421,16.58579Q30.48369,16.65526,30.54602,16.73121Q30.60835,16.80716,30.66294,16.88886Q30.71753,16.97055,30.763840000000002,17.057207Q30.81016,17.143859,30.84776,17.234633Q30.88536,17.325408,30.91388,17.419431Q30.9424,17.513454,30.961570000000002,17.609819Q30.98074,17.706185,30.99037,17.803966Q31,17.9017463,31,18L31,30Q31,30.098300000000002,30.99037,30.195999999999998Q30.98074,30.293799999999997,30.961570000000002,30.3902Q30.9424,30.4865,30.91388,30.5806Q30.88536,30.674599999999998,30.84776,30.7654Q30.81016,30.856099999999998,30.763840000000002,30.9428Q30.71753,31.029400000000003,30.66294,31.1111Q30.60835,31.1928,30.54602,31.2688Q30.48369,31.3447,30.41421,31.4142Q30.34474,31.4837,30.26879,31.546Q30.19284,31.6084,30.11114,31.6629Q30.02945,31.7175,29.942793,31.7638Q29.856141,31.810200000000002,29.765367,31.8478Q29.674592,31.8854,29.580569,31.913899999999998Q29.486546,31.9424,29.390181,31.9616Q29.293815,31.9807,29.196034,31.9904Q29.0982537,32,29,32Q28.9017463,32,28.803966,31.9904Q28.706185,31.9807,28.609819,31.9616Q28.513454,31.9424,28.419431,31.913899999999998Q28.325408,31.8854,28.234633,31.8478Q28.143859,31.810200000000002,28.057207,31.7638Q27.97055,31.7175,27.88886,31.6629Q27.80716,31.6084,27.73121,31.546Q27.65526,31.4837,27.58579,31.4142Q27.51631,31.3447,27.45398,31.2688Q27.39165,31.1928,27.33706,31.1111Q27.28247,31.029400000000003,27.236159999999998,30.9428Q27.18984,30.856099999999998,27.15224,30.7654Q27.11464,30.674599999999998,27.08612,30.5806Q27.0576,30.4865,27.038429999999998,30.3902Q27.01926,30.293799999999997,27.00963,30.195999999999998Q27,30.098300000000002,27,30ZM31,30Q31,30.098300000000002,30.99037,30.195999999999998Q30.98074,30.293799999999997,30.961570000000002,30.3902Q30.9424,30.4865,30.91388,30.5806Q30.88536,30.674599999999998,30.84776,30.7654Q30.81016,30.856099999999998,30.763840000000002,30.9428Q30.71753,31.029400000000003,30.66294,31.1111Q30.60835,31.1928,30.54602,31.2688Q30.48369,31.3447,30.41421,31.4142Q30.34474,31.4837,30.26879,31.546Q30.19284,31.6084,30.11114,31.6629Q30.02945,31.7175,29.942793,31.7638Q29.856141,31.810200000000002,29.765367,31.8478Q29.674592,31.8854,29.580569,31.913899999999998Q29.486546,31.9424,29.390181,31.9616Q29.293815,31.9807,29.196034,31.9904Q29.0982537,32,29,32Q28.9017463,32,28.803966,31.9904Q28.706185,31.9807,28.609819,31.9616Q28.513454,31.9424,28.419431,31.913899999999998Q28.325408,31.8854,28.234633,31.8478Q28.143859,31.810200000000002,28.057207,31.7638Q27.97055,31.7175,27.88886,31.6629Q27.80716,31.6084,27.73121,31.546Q27.65526,31.4837,27.58579,31.4142Q27.51631,31.3447,27.45398,31.2688Q27.39165,31.1928,27.33706,31.1111Q27.28247,31.029400000000003,27.236159999999998,30.9428Q27.18984,30.856099999999998,27.15224,30.7654Q27.11464,30.674599999999998,27.08612,30.5806Q27.0576,30.4865,27.038429999999998,30.3902Q27.01926,30.293799999999997,27.00963,30.195999999999998Q27,30.098300000000002,27,30Q27,29.901699999999998,27.00963,29.804000000000002Q27.01926,29.706200000000003,27.038429999999998,29.6098Q27.0576,29.5135,27.08612,29.4194Q27.11464,29.325400000000002,27.15224,29.2346Q27.18984,29.143900000000002,27.236159999999998,29.0572Q27.28247,28.970599999999997,27.33706,28.8889Q27.39165,28.8072,27.45398,28.7312Q27.51631,28.6553,27.58579,28.5858Q27.65526,28.5163,27.73121,28.454Q27.80716,28.3916,27.88886,28.3371Q27.97055,28.2825,28.057207,28.2362Q28.143859,28.189799999999998,28.234633,28.1522Q28.325408,28.1146,28.419431,28.086100000000002Q28.513454,28.0576,28.609819,28.0384Q28.706185,28.0193,28.803966,28.0096Q28.9017463,28,29,28Q29.0982537,28,29.196034,28.0096Q29.293815,28.0193,29.390181,28.0384Q29.486546,28.0576,29.580569,28.086100000000002Q29.674592,28.1146,29.765367,28.1522Q29.856141,28.189799999999998,29.942793,28.2362Q30.02945,28.2825,30.11114,28.3371Q30.19284,28.3916,30.26879,28.454Q30.34474,28.5163,30.41421,28.5858Q30.48369,28.6553,30.54602,28.7312Q30.60835,28.8072,30.66294,28.8889Q30.71753,28.970599999999997,30.763840000000002,29.0572Q30.81016,29.143900000000002,30.84776,29.2346Q30.88536,29.325400000000002,30.91388,29.4194Q30.9424,29.5135,30.961570000000002,29.6098Q30.98074,29.706200000000003,30.99037,29.804000000000002Q31,29.901699999999998,31,30ZM31,18Q31,18.0982537,30.99037,18.196034Q30.98074,18.293815,30.961570000000002,18.390181Q30.9424,18.486546,30.91388,18.580569Q30.88536,18.674592,30.84776,18.765367Q30.81016,18.856141,30.763840000000002,18.942793Q30.71753,19.02945,30.66294,19.11114Q30.60835,19.19284,30.54602,19.26879Q30.48369,19.34474,30.41421,19.41421Q30.34474,19.48369,30.26879,19.54602Q30.19284,19.60835,30.11114,19.66294Q30.02945,19.71753,29.942793,19.763840000000002Q29.856141,19.81016,29.765367,19.84776Q29.674592,19.88536,29.580569,19.91388Q29.486546,19.9424,29.390181,19.961570000000002Q29.293815,19.98074,29.196034,19.99037Q29.0982537,20,29,20Q28.9017463,20,28.803966,19.99037Q28.706185,19.98074,28.609819,19.961570000000002Q28.513454,19.9424,28.419431,19.91388Q28.325408,19.88536,28.234633,19.84776Q28.143859,19.81016,28.057207,19.763840000000002Q27.97055,19.71753,27.88886,19.66294Q27.80716,19.60835,27.73121,19.54602Q27.65526,19.48369,27.58579,19.41421Q27.51631,19.34474,27.45398,19.26879Q27.39165,19.19284,27.33706,19.11114Q27.28247,19.02945,27.236159999999998,18.942793Q27.18984,18.856141,27.15224,18.765367Q27.11464,18.674592,27.08612,18.580569Q27.0576,18.486546,27.038429999999998,18.390181Q27.01926,18.293815,27.00963,18.196034Q27,18.0982537,27,18Q27,17.9017463,27.00963,17.803966Q27.01926,17.706185,27.038429999999998,17.609819Q27.0576,17.513454,27.08612,17.419431Q27.11464,17.325408,27.15224,17.234633Q27.18984,17.143859,27.236159999999998,17.057207Q27.28247,16.97055,27.33706,16.88886Q27.39165,16.80716,27.45398,16.73121Q27.51631,16.65526,27.58579,16.58579Q27.65526,16.51631,27.73121,16.45398Q27.80716,16.39165,27.88886,16.33706Q27.97055,16.28247,28.057207,16.236159999999998Q28.143859,16.18984,28.234633,16.15224Q28.325408,16.11464,28.419431,16.08612Q28.513454,16.0576,28.609819,16.038429999999998Q28.706185,16.01926,28.803966,16.00963Q28.9017463,16,29,16Q29.0982537,16,29.196034,16.00963Q29.293815,16.01926,29.390181,16.038429999999998Q29.486546,16.0576,29.580569,16.08612Q29.674592,16.11464,29.765367,16.15224Q29.856141,16.18984,29.942793,16.236159999999998Q30.02945,16.28247,30.11114,16.33706Q30.19284,16.39165,30.26879,16.45398Q30.34474,16.51631,30.41421,16.58579Q30.48369,16.65526,30.54602,16.73121Q30.60835,16.80716,30.66294,16.88886Q30.71753,16.97055,30.763840000000002,17.057207Q30.81016,17.143859,30.84776,17.234633Q30.88536,17.325408,30.91388,17.419431Q30.9424,17.513454,30.961570000000002,17.609819Q30.98074,17.706185,30.99037,17.803966Q31,17.9017463,31,18Z" fill="#660874" fill-opacity="1"/></g></g></svg>