<svg xmlns="http://www.w3.org/2000/svg" xmlns:xlink="http://www.w3.org/1999/xlink" fill="none" version="1.1" width="48" height="48" viewBox="0 0 48 48"><defs><clipPath id="master_svg0_524_275"><rect x="48" y="0" width="48" height="48" rx="0"/></clipPath></defs><g transform="matrix(0,1,-1,0,48,-48)" clip-path="url(#master_svg0_524_275)"><g><rect x="48" y="0" width="48" height="48" rx="0" fill="#FFFFFF" fill-opacity="0.009999999776482582"/></g><g><path d="M59.272059999999996,36.7279Q64.54429999999999,42,72,42Q79.4558,42,84.7279,36.7279Q90,31.4558,90,24Q90,16.5442,84.7279,11.27207Q79.4558,6,72,6Q64.5442,6,59.272059999999996,11.272079999999999Q54,16.5442,54,24Q54,31.4558,59.27208,36.7279L59.272059999999996,36.7279ZM56.44364,39.5563Q50,33.1126,50,24Q50,14.8874,56.44366,8.443629999999999Q62.8874,2,72,2Q81.1126,2,87.5563,8.443660000000001Q94,14.8874,94,24Q94,33.1126,87.5563,39.5563Q81.1126,46,72,46Q62.8874,46,56.44365,39.5563L56.44364,39.5563Z" fill="#660874" fill-opacity="1"/></g><g><path d="M80,26L64,26Q63.9017463,26,63.803966,25.99037Q63.706185,25.98074,63.609819,25.961570000000002Q63.513454,25.9424,63.419431,25.91388Q63.325408,25.88536,63.234633,25.84776Q63.143859,25.81016,63.057207,25.763840000000002Q62.97055,25.71753,62.88886,25.66294Q62.80716,25.60835,62.73121,25.54602Q62.65526,25.48369,62.58579,25.41421Q62.51631,25.34474,62.45398,25.26879Q62.39165,25.19284,62.33706,25.11114Q62.28247,25.02945,62.23616,24.942793Q62.18984,24.856141,62.15224,24.765367Q62.11464,24.674592,62.08612,24.580569Q62.0576,24.486546,62.03843,24.390181Q62.01926,24.293815,62.00963,24.196034Q62,24.0982537,62,24Q62,23.9017463,62.00963,23.803966Q62.01926,23.706185,62.03843,23.609819Q62.0576,23.513454,62.08612,23.419431Q62.11464,23.325408,62.15224,23.234633Q62.18984,23.143859,62.23616,23.057207Q62.28247,22.97055,62.33706,22.88886Q62.39165,22.80716,62.45398,22.73121Q62.51631,22.65526,62.58579,22.58579Q62.65526,22.51631,62.73121,22.45398Q62.80716,22.39165,62.88886,22.33706Q62.97055,22.28247,63.057207,22.236159999999998Q63.143859,22.18984,63.234633,22.15224Q63.325408,22.11464,63.419431,22.08612Q63.513454,22.0576,63.609819,22.038429999999998Q63.706185,22.01926,63.803966,22.00963Q63.9017463,22,64,22L80,22Q80.0983,22,80.196,22.00963Q80.2938,22.01926,80.3902,22.038429999999998Q80.4865,22.0576,80.5806,22.08612Q80.6746,22.11464,80.7654,22.15224Q80.8561,22.18984,80.9428,22.236159999999998Q81.0294,22.28247,81.1111,22.33706Q81.1928,22.39165,81.2688,22.45398Q81.3447,22.51631,81.4142,22.58579Q81.4837,22.65526,81.54599999999999,22.73121Q81.6084,22.80716,81.66290000000001,22.88886Q81.7175,22.97055,81.7638,23.057207Q81.8102,23.143859,81.8478,23.234633Q81.8854,23.325408,81.9139,23.419431Q81.94239999999999,23.513454,81.9616,23.609819Q81.9807,23.706185,81.9904,23.803966Q82,23.9017463,82,24Q82,24.0982537,81.9904,24.196034Q81.9807,24.293815,81.9616,24.390181Q81.94239999999999,24.486546,81.9139,24.580569Q81.8854,24.674592,81.8478,24.765367Q81.8102,24.856141,81.7638,24.942793Q81.7175,25.02945,81.66290000000001,25.11114Q81.6084,25.19284,81.54599999999999,25.26879Q81.4837,25.34474,81.4142,25.41421Q81.3447,25.48369,81.2688,25.54602Q81.1928,25.60835,81.1111,25.66294Q81.0294,25.71753,80.9428,25.763840000000002Q80.8561,25.81016,80.7654,25.84776Q80.6746,25.88536,80.5806,25.91388Q80.4865,25.9424,80.3902,25.961570000000002Q80.2938,25.98074,80.196,25.99037Q80.0983,26,80,26ZM82,24Q82,24.0982537,81.9904,24.196034Q81.9807,24.293815,81.9616,24.390181Q81.94239999999999,24.486546,81.9139,24.580569Q81.8854,24.674592,81.8478,24.765367Q81.8102,24.856141,81.7638,24.942793Q81.7175,25.02945,81.66290000000001,25.11114Q81.6084,25.19284,81.54599999999999,25.26879Q81.4837,25.34474,81.4142,25.41421Q81.3447,25.48369,81.2688,25.54602Q81.1928,25.60835,81.1111,25.66294Q81.0294,25.71753,80.9428,25.763840000000002Q80.8561,25.81016,80.7654,25.84776Q80.6746,25.88536,80.5806,25.91388Q80.4865,25.9424,80.3902,25.961570000000002Q80.2938,25.98074,80.196,25.99037Q80.0983,26,80,26Q79.9017,26,79.804,25.99037Q79.7062,25.98074,79.6098,25.961570000000002Q79.5135,25.9424,79.4194,25.91388Q79.3254,25.88536,79.2346,25.84776Q79.1439,25.81016,79.0572,25.763840000000002Q78.9706,25.71753,78.8889,25.66294Q78.8072,25.60835,78.7312,25.54602Q78.6553,25.48369,78.5858,25.41421Q78.5163,25.34474,78.45400000000001,25.26879Q78.3916,25.19284,78.33709999999999,25.11114Q78.2825,25.02945,78.2362,24.942793Q78.1898,24.856141,78.1522,24.765367Q78.1146,24.674592,78.0861,24.580569Q78.05760000000001,24.486546,78.0384,24.390181Q78.0193,24.293815,78.0096,24.196034Q78,24.0982537,78,24Q78,23.9017463,78.0096,23.803966Q78.0193,23.706185,78.0384,23.609819Q78.05760000000001,23.513454,78.0861,23.419431Q78.1146,23.325408,78.1522,23.234633Q78.1898,23.143859,78.2362,23.057207Q78.2825,22.97055,78.33709999999999,22.88886Q78.3916,22.80716,78.45400000000001,22.73121Q78.5163,22.65526,78.5858,22.58579Q78.6553,22.51631,78.7312,22.45398Q78.8072,22.39165,78.8889,22.33706Q78.9706,22.28247,79.0572,22.236159999999998Q79.1439,22.18984,79.2346,22.15224Q79.3254,22.11464,79.4194,22.08612Q79.5135,22.0576,79.6098,22.038429999999998Q79.7062,22.01926,79.804,22.00963Q79.9017,22,80,22Q80.0983,22,80.196,22.00963Q80.2938,22.01926,80.3902,22.038429999999998Q80.4865,22.0576,80.5806,22.08612Q80.6746,22.11464,80.7654,22.15224Q80.8561,22.18984,80.9428,22.236159999999998Q81.0294,22.28247,81.1111,22.33706Q81.1928,22.39165,81.2688,22.45398Q81.3447,22.51631,81.4142,22.58579Q81.4837,22.65526,81.54599999999999,22.73121Q81.6084,22.80716,81.66290000000001,22.88886Q81.7175,22.97055,81.7638,23.057207Q81.8102,23.143859,81.8478,23.234633Q81.8854,23.325408,81.9139,23.419431Q81.94239999999999,23.513454,81.9616,23.609819Q81.9807,23.706185,81.9904,23.803966Q82,23.9017463,82,24ZM66,24Q66,24.0982537,65.99037,24.196034Q65.98074,24.293815,65.96157,24.390181Q65.9424,24.486546,65.91388,24.580569Q65.88536,24.674592,65.84776,24.765367Q65.81016,24.856141,65.76384,24.942793Q65.71753,25.02945,65.66294,25.11114Q65.60835,25.19284,65.54602,25.26879Q65.48369,25.34474,65.41421,25.41421Q65.34474,25.48369,65.26879,25.54602Q65.19284,25.60835,65.11114,25.66294Q65.02945,25.71753,64.942793,25.763840000000002Q64.856141,25.81016,64.765367,25.84776Q64.674592,25.88536,64.580569,25.91388Q64.486546,25.9424,64.390181,25.961570000000002Q64.293815,25.98074,64.196034,25.99037Q64.0982537,26,64,26Q63.9017463,26,63.803966,25.99037Q63.706185,25.98074,63.609819,25.961570000000002Q63.513454,25.9424,63.419431,25.91388Q63.325408,25.88536,63.234633,25.84776Q63.143859,25.81016,63.057207,25.763840000000002Q62.97055,25.71753,62.88886,25.66294Q62.80716,25.60835,62.73121,25.54602Q62.65526,25.48369,62.58579,25.41421Q62.51631,25.34474,62.45398,25.26879Q62.39165,25.19284,62.33706,25.11114Q62.28247,25.02945,62.23616,24.942793Q62.18984,24.856141,62.15224,24.765367Q62.11464,24.674592,62.08612,24.580569Q62.0576,24.486546,62.03843,24.390181Q62.01926,24.293815,62.00963,24.196034Q62,24.0982537,62,24Q62,23.9017463,62.00963,23.803966Q62.01926,23.706185,62.03843,23.609819Q62.0576,23.513454,62.08612,23.419431Q62.11464,23.325408,62.15224,23.234633Q62.18984,23.143859,62.23616,23.057207Q62.28247,22.97055,62.33706,22.88886Q62.39165,22.80716,62.45398,22.73121Q62.51631,22.65526,62.58579,22.58579Q62.65526,22.51631,62.73121,22.45398Q62.80716,22.39165,62.88886,22.33706Q62.97055,22.28247,63.057207,22.236159999999998Q63.143859,22.18984,63.234633,22.15224Q63.325408,22.11464,63.419431,22.08612Q63.513454,22.0576,63.609819,22.038429999999998Q63.706185,22.01926,63.803966,22.00963Q63.9017463,22,64,22Q64.0982537,22,64.196034,22.00963Q64.293815,22.01926,64.390181,22.038429999999998Q64.486546,22.0576,64.580569,22.08612Q64.674592,22.11464,64.765367,22.15224Q64.856141,22.18984,64.942793,22.236159999999998Q65.02945,22.28247,65.11114,22.33706Q65.19284,22.39165,65.26879,22.45398Q65.34474,22.51631,65.41421,22.58579Q65.48369,22.65526,65.54602,22.73121Q65.60835,22.80716,65.66294,22.88886Q65.71753,22.97055,65.76384,23.057207Q65.81016,23.143859,65.84776,23.234633Q65.88536,23.325408,65.91388,23.419431Q65.9424,23.513454,65.96157,23.609819Q65.98074,23.706185,65.99037,23.803966Q66,23.9017463,66,24Z" fill="#660874" fill-opacity="1"/></g><g><path d="M73.58579,28.5858L79.58579,22.58579L81,24L79.58579,25.41421L73.58579,19.41421Q73.51631,19.34474,73.45398,19.26879Q73.39165,19.19284,73.33706,19.11114Q73.28247,19.02945,73.23616,18.942793Q73.18984,18.856141,73.15224,18.765367Q73.11464,18.674592,73.08612,18.580569Q73.0576,18.486546,73.03843,18.390181Q73.01926,18.293815,73.00963,18.196034Q73,18.0982537,73,18Q73,17.9017463,73.00963,17.803966Q73.01926,17.706185,73.03843,17.609819Q73.0576,17.513454,73.08612,17.419431Q73.11464,17.325408,73.15224,17.234633Q73.18984,17.143859,73.23616,17.057207Q73.28247,16.97055,73.33706,16.88886Q73.39165,16.80716,73.45398,16.73121Q73.51631,16.65526,73.58579,16.58579Q73.65526,16.51631,73.73121,16.45398Q73.80716,16.39165,73.88886,16.33706Q73.97055,16.28247,74.057207,16.236159999999998Q74.143859,16.18984,74.234633,16.15224Q74.325408,16.11464,74.419431,16.08612Q74.513454,16.0576,74.609819,16.038429999999998Q74.706185,16.01926,74.803966,16.00963Q74.9017463,16,75,16Q75.0982537,16,75.196034,16.00963Q75.293815,16.01926,75.390181,16.038429999999998Q75.486546,16.0576,75.580569,16.08612Q75.674592,16.11464,75.765367,16.15224Q75.856141,16.18984,75.942793,16.236159999999998Q76.02945,16.28247,76.11114,16.33706Q76.19284,16.39165,76.26879,16.45398Q76.34474,16.51631,76.41421,16.58579L82.41421,22.58579Q82.48369,22.65526,82.54602,22.73121Q82.60835,22.80716,82.66294,22.88886Q82.71753,22.97055,82.76384,23.05721Q82.81016,23.14386,82.84776,23.23463Q82.88536,23.325409999999998,82.91388,23.41943Q82.9424,23.51345,82.96157,23.60982Q82.98074,23.70618,82.99037,23.80397Q83,23.90175,83,24Q83,24.09825,82.99037,24.19603Q82.98074,24.29381,82.96157,24.39018Q82.9424,24.48655,82.91388,24.58057Q82.88536,24.674590000000002,82.84776,24.76537Q82.81016,24.85614,82.76384,24.94279Q82.71753,25.02945,82.66294,25.11114Q82.60835,25.19284,82.54602,25.26879Q82.48369,25.34474,82.41421,25.41421L76.41421,31.4142Q76.34474,31.4837,76.26879,31.546Q76.19284,31.6084,76.11114,31.6629Q76.02945,31.7175,75.942793,31.7638Q75.856141,31.810200000000002,75.765367,31.8478Q75.674592,31.8854,75.580569,31.913899999999998Q75.486546,31.9424,75.390181,31.9616Q75.293815,31.9807,75.196034,31.9904Q75.0982537,32,75,32Q74.9017463,32,74.803966,31.9904Q74.706185,31.9807,74.609819,31.9616Q74.513454,31.9424,74.419431,31.913899999999998Q74.325408,31.8854,74.234633,31.8478Q74.143859,31.810200000000002,74.057207,31.7638Q73.97055,31.7175,73.88886,31.6629Q73.80716,31.6084,73.73121,31.546Q73.65526,31.4837,73.58579,31.4142Q73.51631,31.3447,73.45398,31.2688Q73.39165,31.1928,73.33706,31.1111Q73.28247,31.029400000000003,73.23616,30.9428Q73.18984,30.856099999999998,73.15224,30.7654Q73.11464,30.674599999999998,73.08612,30.5806Q73.0576,30.4865,73.03843,30.3902Q73.01926,30.293799999999997,73.00963,30.195999999999998Q73,30.098300000000002,73,30Q73,29.901699999999998,73.00963,29.804000000000002Q73.01926,29.706200000000003,73.03843,29.6098Q73.0576,29.5135,73.08612,29.4194Q73.11464,29.325400000000002,73.15224,29.2346Q73.18984,29.143900000000002,73.23616,29.0572Q73.28247,28.970599999999997,73.33706,28.8889Q73.39165,28.8072,73.45398,28.7312Q73.51631,28.6553,73.58579,28.5858ZM77,30Q77,30.098300000000002,76.99037,30.195999999999998Q76.98074,30.293799999999997,76.96157,30.3902Q76.9424,30.4865,76.91388,30.5806Q76.88536,30.674599999999998,76.84776,30.7654Q76.81016,30.856099999999998,76.76384,30.9428Q76.71753,31.029400000000003,76.66294,31.1111Q76.60835,31.1928,76.54602,31.2688Q76.48369,31.3447,76.41421,31.4142Q76.34474,31.4837,76.26879,31.546Q76.19284,31.6084,76.11114,31.6629Q76.02945,31.7175,75.942793,31.7638Q75.856141,31.810200000000002,75.765367,31.8478Q75.674592,31.8854,75.580569,31.913899999999998Q75.486546,31.9424,75.390181,31.9616Q75.293815,31.9807,75.196034,31.9904Q75.0982537,32,75,32Q74.9017463,32,74.803966,31.9904Q74.706185,31.9807,74.609819,31.9616Q74.513454,31.9424,74.419431,31.913899999999998Q74.325408,31.8854,74.234633,31.8478Q74.143859,31.810200000000002,74.057207,31.7638Q73.97055,31.7175,73.88886,31.6629Q73.80716,31.6084,73.73121,31.546Q73.65526,31.4837,73.58579,31.4142Q73.51631,31.3447,73.45398,31.2688Q73.39165,31.1928,73.33706,31.1111Q73.28247,31.029400000000003,73.23616,30.9428Q73.18984,30.856099999999998,73.15224,30.7654Q73.11464,30.674599999999998,73.08612,30.5806Q73.0576,30.4865,73.03843,30.3902Q73.01926,30.293799999999997,73.00963,30.195999999999998Q73,30.098300000000002,73,30Q73,29.901699999999998,73.00963,29.804000000000002Q73.01926,29.706200000000003,73.03843,29.6098Q73.0576,29.5135,73.08612,29.4194Q73.11464,29.325400000000002,73.15224,29.2346Q73.18984,29.143900000000002,73.23616,29.0572Q73.28247,28.970599999999997,73.33706,28.8889Q73.39165,28.8072,73.45398,28.7312Q73.51631,28.6553,73.58579,28.5858Q73.65526,28.5163,73.73121,28.454Q73.80716,28.3916,73.88886,28.3371Q73.97055,28.2825,74.057207,28.2362Q74.143859,28.189799999999998,74.234633,28.1522Q74.325408,28.1146,74.419431,28.086100000000002Q74.513454,28.0576,74.609819,28.0384Q74.706185,28.0193,74.803966,28.0096Q74.9017463,28,75,28Q75.0982537,28,75.196034,28.0096Q75.293815,28.0193,75.390181,28.0384Q75.486546,28.0576,75.580569,28.086100000000002Q75.674592,28.1146,75.765367,28.1522Q75.856141,28.189799999999998,75.942793,28.2362Q76.02945,28.2825,76.11114,28.3371Q76.19284,28.3916,76.26879,28.454Q76.34474,28.5163,76.41421,28.5858Q76.48369,28.6553,76.54602,28.7312Q76.60835,28.8072,76.66294,28.8889Q76.71753,28.970599999999997,76.76384,29.0572Q76.81016,29.143900000000002,76.84776,29.2346Q76.88536,29.325400000000002,76.91388,29.4194Q76.9424,29.5135,76.96157,29.6098Q76.98074,29.706200000000003,76.99037,29.804000000000002Q77,29.901699999999998,77,30ZM77,18Q77,18.0982537,76.99037,18.196034Q76.98074,18.293815,76.96157,18.390181Q76.9424,18.486546,76.91388,18.580569Q76.88536,18.674592,76.84776,18.765367Q76.81016,18.856141,76.76384,18.942793Q76.71753,19.02945,76.66294,19.11114Q76.60835,19.19284,76.54602,19.26879Q76.48369,19.34474,76.41421,19.41421Q76.34474,19.48369,76.26879,19.54602Q76.19284,19.60835,76.11114,19.66294Q76.02945,19.71753,75.942793,19.763840000000002Q75.856141,19.81016,75.765367,19.84776Q75.674592,19.88536,75.580569,19.91388Q75.486546,19.9424,75.390181,19.961570000000002Q75.293815,19.98074,75.196034,19.99037Q75.0982537,20,75,20Q74.9017463,20,74.803966,19.99037Q74.706185,19.98074,74.609819,19.961570000000002Q74.513454,19.9424,74.419431,19.91388Q74.325408,19.88536,74.234633,19.84776Q74.143859,19.81016,74.057207,19.763840000000002Q73.97055,19.71753,73.88886,19.66294Q73.80716,19.60835,73.73121,19.54602Q73.65526,19.48369,73.58579,19.41421Q73.51631,19.34474,73.45398,19.26879Q73.39165,19.19284,73.33706,19.11114Q73.28247,19.02945,73.23616,18.942793Q73.18984,18.856141,73.15224,18.765367Q73.11464,18.674592,73.08612,18.580569Q73.0576,18.486546,73.03843,18.390181Q73.01926,18.293815,73.00963,18.196034Q73,18.0982537,73,18Q73,17.9017463,73.00963,17.803966Q73.01926,17.706185,73.03843,17.609819Q73.0576,17.513454,73.08612,17.419431Q73.11464,17.325408,73.15224,17.234633Q73.18984,17.143859,73.23616,17.057207Q73.28247,16.97055,73.33706,16.88886Q73.39165,16.80716,73.45398,16.73121Q73.51631,16.65526,73.58579,16.58579Q73.65526,16.51631,73.73121,16.45398Q73.80716,16.39165,73.88886,16.33706Q73.97055,16.28247,74.057207,16.236159999999998Q74.143859,16.18984,74.234633,16.15224Q74.325408,16.11464,74.419431,16.08612Q74.513454,16.0576,74.609819,16.038429999999998Q74.706185,16.01926,74.803966,16.00963Q74.9017463,16,75,16Q75.0982537,16,75.196034,16.00963Q75.293815,16.01926,75.390181,16.038429999999998Q75.486546,16.0576,75.580569,16.08612Q75.674592,16.11464,75.765367,16.15224Q75.856141,16.18984,75.942793,16.236159999999998Q76.02945,16.28247,76.11114,16.33706Q76.19284,16.39165,76.26879,16.45398Q76.34474,16.51631,76.41421,16.58579Q76.48369,16.65526,76.54602,16.73121Q76.60835,16.80716,76.66294,16.88886Q76.71753,16.97055,76.76384,17.057207Q76.81016,17.143859,76.84776,17.234633Q76.88536,17.325408,76.91388,17.419431Q76.9424,17.513454,76.96157,17.609819Q76.98074,17.706185,76.99037,17.803966Q77,17.9017463,77,18Z" fill="#660874" fill-opacity="1"/></g></g></svg>