<svg xmlns="http://www.w3.org/2000/svg" xmlns:xlink="http://www.w3.org/1999/xlink" fill="none" version="1.1" width="46" height="46" viewBox="0 0 46 46"><defs><clipPath id="master_svg0_3_517"><rect x="0" y="0" width="46" height="46" rx="0"/></clipPath></defs><g clip-path="url(#master_svg0_3_517)"><g><path d="M5.55450439453125,8.01194754333496C16.245704394531252,-4.429132456665039,36.07170439453125,-1.973882456665039,43.48150439453125,12.563997543334962L25.66990439453125,12.563997543334962C22.46140439453125,12.563997543334962,20.38950439453125,12.49119754333496,18.145104394531252,13.67189754333496C15.50775439453125,15.06139754333496,13.518254394531251,17.63549754333496,12.82250439453125,20.65809754333496L5.55450439453125,8.01386754333496L5.55450439453125,8.01194754333496Z" fill="#EA4335" fill-opacity="1"/></g><g><path d="M15.348663330078125,23.0000390625C15.348663330078125,27.2167390625,18.777583330078127,30.6475390625,22.992333330078125,30.6475390625C27.208963330078127,30.6475390625,30.635963330078127,27.2167390625,30.635963330078127,23.0000390625C30.635963330078127,18.7833690625,27.207063330078125,15.3525390625,22.992333330078125,15.3525390625C18.775663330078125,15.3525390625,15.348664700988126,18.7833690625,15.348663330078125,23.0000390625Z" fill="#4285F4" fill-opacity="1"/></g><g><path d="M25.9593,33.01064765625C21.6679,34.28524765625,16.6481,32.87074765625,13.8977,28.12314765625C11.797,24.500647656250003,6.25021,14.83684765625,3.72979,10.44384765625C-5.10029,23.97554765625,2.51079,42.41954765625,18.5399,45.56674765625L25.9574,33.01064765625L25.9593,33.01064765625Z" fill="#34A853" fill-opacity="1"/></g><g><path d="M30.091685302734376,15.3525052075C33.649685302734376,18.6740559375,34.450185302734376,24.0091659375,32.02368530273438,28.2286859375C30.200935302734376,31.3719859375,24.380015302734375,41.1968859375,21.558685302734375,45.9539859375C38.07458530273438,46.9717859375,50.11698530273438,30.7854859375,44.677485302734375,15.3505859375L30.091685302734376,15.3505859375L30.091685302734376,15.3525052075Z" fill="#FBBC05" fill-opacity="1"/></g></g></svg>